<svg viewBox="0 0 32 32" enable-background="new 0 0 32 32" version="1.1" xml:space="preserve" xmlns="http://www.w3.org/2000/svg" xmlns:xlink="http://www.w3.org/1999/xlink" fill="#000000"><g id="SVGRepo_bgCarrier" stroke-width="0"></g><g id="SVGRepo_tracerCarrier" stroke-linecap="round" stroke-linejoin="round"></g><g id="SVGRepo_iconCarrier"> <g id="Files_Folder40"></g> <g id="Files_Folder39"></g> <g id="Files_Folder38"></g> <g id="Files_Folder37"></g> <g id="Files_Folder36"></g> <g id="Files_Folder35"></g> <g id="Files_Folder34"></g> <g id="Files_Folder33"></g> <g id="Files_Folder32"></g> <g id="Files_Folder31"></g> <g id="Files_Folder30"></g> <g id="Files_Folder29"></g> <g id="Files_Folder28"></g> <g id="Files_Folder27"></g> <g id="Files_Folder26"></g> <g id="Files_Folder25"></g> <g id="Files_Folder24"></g> <g id="Files_Folder23"></g> <g id="Files_Folder22"></g> <g id="Files_Folder21"></g> <g id="Files_Folder20"></g> <g id="Files_Folder19"></g> <g id="Files_Folder18"> <g> <path d="M27,9v21c0,0.55-0.45,1-1,1H6c-0.55,0-1-0.45-1-1V2c0-0.55,0.45-1,1-1h14c0.29,0,0.57,0.13,0.76,0.35l6,7 C26.92,8.53,27,8.76,27,9z" fill="#FFC10A"></path> </g> <g> <g> <path d="M21,19H11c-0.5522,0-1-0.4478-1-1s0.4478-1,1-1h10c0.5527,0,1,0.4478,1,1S21.5527,19,21,19z" fill="#FE9803"></path> </g> <g> <path d="M20,25h-8c-0.5522,0-1-0.4478-1-1s0.4478-1,1-1h8c0.5527,0,1,0.4478,1,1S20.5527,25,20,25z" fill="#FE9803"></path> </g> </g> </g> <g id="Files_Folder17"></g> <g id="Files_Folder16"></g> <g id="Files_Folder15"></g> <g id="Files_Folder14"></g> <g id="Files_Folder13"></g> <g id="Files_Folder12"></g> <g id="Files_Folder11"></g> <g id="Files_Folder10"></g> <g id="Files_Folder09"></g> <g id="Files_Folder08"></g> <g id="Files_Folder07"></g> <g id="Files_Folder06"></g> <g id="Files_Folder05"></g> <g id="Files_Folder04"></g> <g id="Files_Folder03"></g> <g id="Files_Folder02"></g> <g id="Files_Folder01"></g> </g></svg>