<?xml version="1.0" encoding="utf-8"?>
<!-- Generator: Adobe Illustrator 25.3.1, SVG Export Plug-In . SVG Version: 6.00 Build 0)  -->
<svg version="1.1" id="Camada_1" xmlns="http://www.w3.org/2000/svg" xmlns:xlink="http://www.w3.org/1999/xlink" x="0px" y="0px"
	 viewBox="0 0 3333.9 1608.9" style="enable-background:new 0 0 3333.9 1608.9;" xml:space="preserve">
<style type="text/css">
	.st0{fill:#100C08;}
	.st1{fill:#F5B01F;}
	.st2{enable-background:new    ;}
</style>
<path class="st0" d="M282.3,1156.3h-24c-4.5,0-6.7,0-9.7-4.9l-67.2-111.9h-9.7c-12.4,0-21.4-0.4-41.4-1.1v110.3
	c0,3.8-2.6,7.5-6.8,7.5h-20.2c-3.9-0.2-7-3.5-6.8-7.5l0,0V886c0-5.2,2.3-7.5,9-8.3c16.2-1.9,44.3-3,66.1-3
	c59.3,0,105.1,20,105.1,80.7v2.6c0,42-24.8,66.8-59,75.8L286,1148c0.7,1,1.1,2.2,1.1,3.4c0.1,2.6-2,4.8-4.6,4.9
	C282.4,1156.3,282.4,1156.3,282.3,1156.3 M242.8,955.4c0-37.6-24.4-49.9-71.3-49.9c-11.7,0-32.3,0-41.4,1.1v102.9
	c16.5,0.4,32.7,0.8,41.4,0.8c46.2,0,71.3-11.6,71.3-52.2V955.4z"/>
<path class="st0" d="M762.4,1157.1c-14.3,1.4-51.1,1.9-73.2,1.9c-52.6,0-80-19.9-80-69.9V944.6c0-49.9,27.4-69.9,80-69.9
	c22.1,0,57.4,0.8,73.2,2.3c2.3,0.4,3.8,3,3.8,5.3V901c0.3,2.2-1.3,4.2-3.6,4.5c-0.2,0-0.4,0-0.6,0h-72.5c-39.8,0-46.2,10.5-46.2,39
	v52.2h115.3c4.1,0,7.5,3.4,7.5,7.5v14.3c0,4.1-3.4,7.5-7.5,7.5H643.4v63.1c0,28.5,6.4,39.1,46.2,39.1h72.5c2.2-0.1,4.1,1.7,4.2,3.9
	c0,0.2,0,0.4,0,0.6v19.2C766.2,1154,764.8,1156.6,762.4,1157.1"/>
<path class="st0" d="M1160,1159c-20.9,0-41.7-1.8-62.3-5.3c-6.4-1.1-7.1-2.6-7.1-6.7v-15c0-4.1,3-6,6.4-6h1.1
	c17.2,1.4,44.7,2.3,61.9,2.3c45.1,0,57.1-18,57.1-44.3c0-18.8-10.9-29.3-45.1-50.3l-36.4-22.2c-34.5-21-51.8-40.2-51.8-70.2
	c0-45.4,32.7-66.5,89.7-66.5c22.2,0,51.1,2.3,65.3,4.5c3.8,0.8,6.4,2.6,6.4,6.4v16.1c0,3.8-2.6,6-6.4,6h-0.8
	c-16.5-1.1-42.8-2.3-64.6-2.3c-38.7,0-55.2,8.3-55.2,35.7c0,17.6,12.4,28.2,40.9,45.4l34.5,20.6c43.6,25.9,59,46.6,59,76.6
	C1252.7,1119.9,1233.9,1158.9,1160,1159"/>
<path class="st0" d="M1732.1,1157.1c-14.3,1.4-51.1,1.9-73.2,1.9c-52.6,0-80-19.9-80-69.9V944.6c0-49.9,27.4-69.9,80-69.9
	c22.1,0,57.5,0.8,73.2,2.3c2.3,0.4,3.8,3,3.8,5.3V901c0.3,2.2-1.3,4.2-3.6,4.5c-0.2,0-0.4,0-0.6,0h-72.5c-39.8,0-46.2,10.5-46.2,39
	v52.2h115.3c4.1,0,7.5,3.4,7.5,7.5v14.3c0,4.1-3.4,7.5-7.5,7.5H1613v63.1c0,28.5,6.4,39.1,46.2,39.1h72.5c2.2-0.1,4.1,1.7,4.1,3.9
	c0,0.2,0,0.4,0,0.6v19.2C1735.9,1154,1734.4,1156.6,1732.1,1157.1"/>
<path class="st0" d="M2249.8,1156.3h-24c-4.5,0-6.7,0-9.8-4.9l-67.2-111.9h-9.7c-12.4,0-21.4-0.4-41.4-1.1v110.3
	c0,3.8-2.6,7.5-6.7,7.5h-20.3c-3.9-0.2-7-3.5-6.8-7.5l0,0V886c0-5.2,2.2-7.5,9-8.3c16.2-1.9,44.3-3,66.1-3
	c59.3,0,105.2,20,105.2,80.7v2.6c0,42-24.8,66.8-59,75.8l68.3,114.1c0.7,1,1.1,2.2,1.1,3.4c0.1,2.6-2,4.8-4.6,4.9
	C2250,1156.3,2249.9,1156.3,2249.8,1156.3 M2210.4,955.5c0-37.6-24.4-49.9-71.3-49.9c-11.6,0-32.3,0-41.4,1.1v102.9
	c16.5,0.4,32.7,0.8,41.4,0.8c46.2,0,71.3-11.6,71.3-52.2V955.5z"/>
<path class="st0" d="M2763.4,886l-69.1,244.4c-6.8,23.6-24,28.5-38.3,28.5c-13.9,0-31.6-4.9-38.3-28.5L2548.2,886
	c-0.3-0.7-0.4-1.5-0.4-2.3c0-3.5,2.9-6.4,6.4-6.4c0.1,0,0.2,0,0.3,0h21.8c3.2,0.2,5.9,2.5,6.8,5.6l65.3,239.2
	c1.5,5.3,3.4,7.9,7.5,7.9c3.8,0,5.6-2.6,7.1-7.9l65.7-239.2c0.7-3.1,3.3-5.4,6.4-5.6h22.2c3.4-0.2,6.2,2.5,6.4,5.8
	c0,0.2,0,0.4,0,0.6C2763.9,884.5,2763.7,885.3,2763.4,886"/>
<path class="st0" d="M3248.8,1156.3h-22.2c-3.4,0-5.6-2.6-6.4-5.7l-24.4-86.4h-97.3l-24,86.4c-0.8,3.2-3.5,5.5-6.8,5.7h-22.1
	c-3.3,0.2-6.2-2.3-6.4-5.7c0-0.1,0-0.2,0-0.3c-0.1-0.9,0.1-1.8,0.4-2.6l69.5-244.5c6.4-22.8,24-28.5,38.3-28.5
	c13.9,0,31.6,5.3,37.9,28.2l69.5,244.8c0.3,0.8,0.5,1.7,0.4,2.6C3255.2,1153.7,3253,1156.3,3248.8,1156.3 M3154.6,911.1
	c-1.1-4.1-3.4-6.7-7.1-6.7c-4.1,0-6.4,2.6-7.5,6.7l-34.1,123.6h83L3154.6,911.1z"/>
<path class="st0" d="M702.9,678.6h-374l-53.1,125h-175L427.9,74.5H605l327,729.1H756L702.9,678.6z M516.4,239l-126,295.8h251
	L516.4,239z"/>
<path class="st0" d="M1500.6,266.1c-47.1-41.7-107.9-64.7-170.8-64.6c-138.6,0-229.2,79.2-229.2,238.5
	c0,104.1,57.3,234.4,229.2,234.4c56.2,2.2,111.3-16,155.2-51.1V506.8h-174V371.4h314.6v317.7c-62.5,89.6-162.5,135.4-296.9,135.4
	c-281.2,0-387.5-194.8-387.5-384.4c0-205.2,120.9-387.5,388.6-387.5c102.6-3.6,201.8,37.5,271.9,112.5L1500.6,266.1z"/>
<path class="st0" d="M2427.2,793H2247l-186.5-239.6h-117.7V793h-162.5V63.7h345.9c176,0,269.8,117.7,269.8,245.8
	c-1,94.8-29.2,179.2-168.8,229.2l200.1,241.7L2427.2,793z M1942.8,203.3v212.5h185.4c55.8,3.3,103.7-39.2,107.1-94.9
	c0.1-2.4,0.2-4.8,0.2-7.1c1.8-59.1-44.7-108.5-103.8-110.4l0,0c-1.9,0-3.7,0-5.6,0L1942.8,203.3z"/>
<path class="st1" d="M2876,37.9c-209.4,0-379.2,169.7-379.2,379.2s169.7,379.2,379.2,379.2s379.2-169.7,379.2-379.2
	c0-209.4-169.6-379.2-379-379.2L2876,37.9z M2963.3,573.2l-135-98c-4.7-3.5-7.5-9-7.5-14.8V203c0-10.1,8.2-18.3,18.3-18.3h73.4
	c10.1,0,18.3,8.2,18.3,18.3v210.5l97,70.6c8.2,5.9,10,17.2,4.2,25.4l-0.2,0.3l-42.9,59.3C2983,577.3,2971.6,579.1,2963.3,573.2"/>
<g>
	<g class="st2">
		<path class="st1" d="M157.7,1506.6l-23.1-33.4h-1.4h-24.1v33.4H81.4v-119.8h51.8c32,0,52,16.6,52,43.5c0,18-9.1,31.1-24.6,37.8
			l26.9,38.5H157.7z M131.7,1409.4h-22.6v41.7h22.6c16.9,0,25.5-7.9,25.5-20.9C157.2,1417.1,148.6,1409.4,131.7,1409.4z"/>
		<path class="st1" d="M308.3,1484.4v22.2h-92.7v-119.8H306v22.2h-63v26h55.6v21.6h-55.6v27.7H308.3z"/>
		<path class="st1" d="M329.3,1494.8l9.4-20.9c10.1,7.4,25.1,12.5,39.5,12.5c16.4,0,23.1-5.5,23.1-12.8c0-22.4-69.6-7-69.6-51.5
			c0-20.4,16.4-37.3,50.5-37.3c15.1,0,30.5,3.6,41.6,10.6l-8.6,21c-11.1-6.3-22.6-9.4-33.2-9.4c-16.4,0-22.8,6.2-22.8,13.7
			c0,22.1,69.6,6.8,69.6,50.8c0,20-16.6,37.1-50.8,37.1C359.1,1508.6,339.9,1503,329.3,1494.8z"/>
	</g>
	<g class="st2">
		<path class="st1" d="M559.1,1430.3c0,26.7-20,43.3-52,43.3h-24.1v33h-27.7v-119.8h51.8C539.1,1386.8,559.1,1403.4,559.1,1430.3z
			 M531,1430.3c0-13.2-8.6-20.9-25.5-20.9h-22.6v41.6h22.6C522.5,1451,531,1443.3,531,1430.3z"/>
	</g>
	<g class="st2">
		<path class="st1" d="M679.5,1484.4v22.2h-92.7v-119.8h90.5v22.2h-63v26h55.6v21.6h-55.6v27.7H679.5z"/>
		<path class="st1" d="M710,1386.8h27.7v119.8H710V1386.8z"/>
	</g>
	<g class="st2">
		<path class="st1" d="M798.6,1409.4h-38.3v-22.6h104.4v22.6h-38.3v97.2h-27.7V1409.4z"/>
	</g>
	<g class="st2">
		<path class="st1" d="M878.3,1446.7c0-35.6,27.7-61.9,65.5-61.9c37.6,0,65.5,26.2,65.5,61.9s-27.9,61.9-65.5,61.9
			C906,1508.6,878.3,1482.3,878.3,1446.7z M981.3,1446.7c0-22.8-16.1-38.3-37.5-38.3s-37.5,15.6-37.5,38.3s16.1,38.3,37.5,38.3
			S981.3,1469.5,981.3,1446.7z"/>
	</g>
</g>
<g>
	<g class="st2">
		<path class="st1" d="M1263.6,1430.3c0,26.7-20,43.3-52,43.3h-24.1v33h-27.7v-119.8h51.8
			C1243.6,1386.8,1263.6,1403.4,1263.6,1430.3z M1235.5,1430.3c0-13.2-8.6-20.9-25.5-20.9h-22.6v41.6h22.6
			C1227,1451,1235.5,1443.3,1235.5,1430.3z"/>
	</g>
	<g class="st2">
		<path class="st1" d="M1384,1484.4v22.2h-92.7v-119.8h90.5v22.2h-63v26h55.6v21.6h-55.6v27.7H1384z"/>
	</g>
	<g class="st2">
		<path class="st1" d="M1414.1,1386.8h27.7v97.2h60.1v22.6h-87.8V1386.8z"/>
	</g>
	<path class="st1" d="M1605.4,1480.9h-55.6l-10.6,25.7h-28.4l53.4-119.8h27.4l53.5,119.8H1616L1605.4,1480.9z M1596.7,1459.9
		l-19-45.9l-19,45.9H1596.7z"/>
</g>
<g>
	<path class="st1" d="M1780.5,1494.8l9.4-20.9c10.1,7.4,25.2,12.5,39.5,12.5c16.4,0,23.1-5.5,23.1-12.8c0-22.4-69.6-7-69.6-51.5
		c0-20.4,16.4-37.3,50.5-37.3c15.1,0,30.5,3.6,41.6,10.6l-8.6,21c-11.1-6.3-22.6-9.4-33.2-9.4c-16.4,0-22.8,6.2-22.8,13.7
		c0,22.1,69.6,6.8,69.6,50.8c0,20-16.6,37.1-50.8,37.1C1810.2,1508.6,1791.1,1503,1780.5,1494.8z"/>
	<g class="st2">
		<path class="st1" d="M1905.3,1453.9v-67.1h27.7v66c0,22.8,9.9,32.2,26.7,32.2c16.9,0,26.7-9.4,26.7-32.2v-66h27.4v67.1
			c0,35.2-20.2,54.7-54.2,54.7C1925.5,1508.6,1905.3,1489.1,1905.3,1453.9z"/>
	</g>
	<path class="st1" d="M2125.5,1480.9h-55.6l-10.6,25.7h-28.4l53.4-119.8h27.4l53.5,119.8h-29.1L2125.5,1480.9z M2116.8,1459.9
		l-19-45.9l-19,45.9H2116.8z"/>
</g>
<g>
	<path class="st1" d="M2300.6,1491.2l15.4-18.5c6.5,8.7,13.7,13.2,22.2,13.2c11.1,0,16.9-6.7,16.9-19.8v-57h-42.1v-22.2h69.6v77.7
		c0,29.6-14.9,44.1-43.1,44.1C2323.5,1508.6,2309.3,1502.5,2300.6,1491.2z"/>
	<path class="st1" d="M2410.9,1446.7c0-35.6,27.7-61.9,65.5-61.9c37.6,0,65.5,26.2,65.5,61.9s-27.9,61.9-65.5,61.9
		C2438.7,1508.6,2410.9,1482.3,2410.9,1446.7z M2513.9,1446.7c0-22.8-16.1-38.3-37.5-38.3s-37.5,15.6-37.5,38.3s16.1,38.3,37.5,38.3
		S2513.9,1469.5,2513.9,1446.7z"/>
	<path class="st1" d="M2647.6,1506.6l-23.1-33.4h-1.4H2599v33.4h-27.7v-119.8h51.8c32,0,52,16.6,52,43.5c0,18-9.1,31.1-24.6,37.8
		l26.9,38.5H2647.6z M2621.6,1409.4H2599v41.7h22.6c16.9,0,25.5-7.9,25.5-20.9C2647,1417.1,2638.5,1409.4,2621.6,1409.4z"/>
	<path class="st1" d="M2815.2,1386.8v119.8h-22.8l-59.7-72.7v72.7h-27.4v-119.8h22.9l59.5,72.7v-72.7H2815.2z"/>
	<path class="st1" d="M2930.9,1480.9h-55.6l-10.6,25.7h-28.4l53.4-119.8h27.4l53.5,119.8h-29.1L2930.9,1480.9z M2922.2,1459.9
		l-19-45.9l-19,45.9H2922.2z"/>
	<g class="st2">
		<path class="st1" d="M2989,1386.8h54.4c39.2,0,66,23.6,66,59.9s-26.9,59.9-66,59.9H2989V1386.8z M3042.1,1483.8
			c23.8,0,39.3-14.2,39.3-37.1s-15.6-37.1-39.3-37.1h-25.3v74.3H3042.1z"/>
	</g>
	<g class="st2">
		<path class="st1" d="M3215.5,1480.9h-55.6l-10.6,25.7h-28.4l53.4-119.8h27.4l53.5,119.8h-29.1L3215.5,1480.9z M3206.8,1459.9
			l-19-45.9l-19,45.9H3206.8z"/>
	</g>
</g>
</svg>
