<svg xmlns="http://www.w3.org/2000/svg" xmlns:xlink="http://www.w3.org/1999/xlink" width="104.535" height="83.559" viewBox="0 0 104.535 83.559"><defs><style>.a{fill:#32343e;}.b{clip-path:url(#a);}</style><clipPath id="a"><rect class="a" width="104.535" height="83.559" transform="translate(0 21)"/></clipPath></defs><g class="b" transform="translate(0 -21)"><g transform="translate(0 26.049)"><path class="a" d="M410.845,193.58h-8.656v20.089a1.637,1.637,0,0,0,1.633,1.633h20.416l-10.454-19.928a3.442,3.442,0,0,0-2.94-1.8Z" transform="translate(-324.768 -183.78)"/><path class="a" d="M145.127,230.983h-1.143V218.57H122.751a4.812,4.812,0,0,1-4.9-4.9V193.579h-6.37a1.637,1.637,0,0,0-1.633,1.633v35.934h-53.9a1.637,1.637,0,0,0-1.633,1.633V243.4a3.276,3.276,0,0,0,3.266,3.267H58.4a5.56,5.56,0,0,1-.163-1.633,12.25,12.25,0,1,1,24.5,0,5.567,5.567,0,0,1-.163,1.633h32.34a5.561,5.561,0,0,1-.163-1.633,12.25,12.25,0,1,1,24.5,0,5.559,5.559,0,0,1-.163,1.633h6.043a3.276,3.276,0,0,0,3.267-3.267v-8.984a3.315,3.315,0,0,0-3.267-3.43Z" transform="translate(-43.86 -183.78)"/><ellipse class="a" cx="8.984" cy="8.984" rx="8.984" ry="8.984" transform="translate(73.989 52.102)"/><ellipse class="a" cx="8.984" cy="8.984" rx="8.984" ry="8.984" transform="translate(17.477 52.102)"/><path class="a" d="M62.719,184.98V145.943a3.276,3.276,0,0,0-3.266-3.266H3.267A3.276,3.276,0,0,0,0,145.943v37.4a3.276,3.276,0,0,0,3.267,3.266H61.085a1.543,1.543,0,0,0,1.634-1.633Zm-49.326-8.657a1.47,1.47,0,1,1-2.94,0V153.131a1.47,1.47,0,1,1,2.94,0Zm12.9,0a1.47,1.47,0,1,1-2.94,0V153.131a1.47,1.47,0,1,1,2.94,0Zm13.067,0a1.47,1.47,0,1,1-2.94,0V153.131a1.47,1.47,0,1,1,2.94,0Zm12.9,0a1.47,1.47,0,1,1-2.94,0V153.131a1.47,1.47,0,1,1,2.94,0Z" transform="translate(0 -142.677)"/></g><path class="a" d="M59.932,526.2H53.4a1.633,1.633,0,0,0,0,3.266h6.533a1.543,1.543,0,0,0,1.633-1.633,1.756,1.756,0,0,0-1.633-1.633" transform="translate(-41.801 -424.904)"/><path class="a" d="M156.652,526.2h-6.533a1.633,1.633,0,0,0,0,3.266h6.533a1.543,1.543,0,0,0,1.633-1.633,1.637,1.637,0,0,0-1.633-1.633" transform="translate(-119.903 -424.904)"/><path class="a" d="M254.232,526.2H247.7a1.633,1.633,0,0,0,0,3.266h6.533a1.543,1.543,0,0,0,1.633-1.633,1.636,1.636,0,0,0-1.633-1.633" transform="translate(-198.699 -424.904)"/><path class="a" d="M351.812,526.2h-6.533a1.633,1.633,0,0,0,0,3.266h6.533a1.543,1.543,0,0,0,1.633-1.633,1.756,1.756,0,0,0-1.633-1.633" transform="translate(-277.495 -424.904)"/><path class="a" d="M448.532,526.2H442a1.633,1.633,0,0,0,0,3.266h6.533a1.543,1.543,0,0,0,1.633-1.633,1.637,1.637,0,0,0-1.633-1.633" transform="translate(-355.596 -424.904)"/></g></svg>