<svg xmlns="http://www.w3.org/2000/svg" width="436.923" height="359.096" viewBox="0 0 436.923 359.096"><g transform="translate(0 38.804)"><g transform="translate(0 0)"><path d="M226.1,373.345c-2.568.078-5.135.078-7.7.078a254.744,254.744,0,0,1-62.166-7.625,225.033,225.033,0,0,1-56.953-22.641,177.009,177.009,0,0,1-77.8-91.187C13.3,230.34,8.943,206.609,9.1,185.135a129.711,129.711,0,0,1,4.59-34.312A95.2,95.2,0,0,1,28.317,120.09c5.991-8.169,13.071-14.238,21.085-17.973a54.168,54.168,0,0,1,24.119-4.824,91.761,91.761,0,0,1,25.053,4.357,192.437,192.437,0,0,1,24.353,9.492C155.605,126,191.317,137.519,231.7,121.18c16.65-6.769,31.589-17.817,46.06-28.632,17.817-13.227,36.257-27,58.2-32.756a74.486,74.486,0,0,1,31.277-1.478A82.059,82.059,0,0,1,395.788,68.9a92.856,92.856,0,0,1,23.5,20.074,100.162,100.162,0,0,1,16.339,27.076,145.879,145.879,0,0,1,9.959,65.823c-1.556,21.318-7.469,42.793-17.506,63.878-18.984,39.992-51.507,75.315-89.32,96.945A228.515,228.515,0,0,1,280.793,365.8,250.5,250.5,0,0,1,226.1,373.345ZM70.487,100.095c-16.495.467-29.566,7.547-39.836,21.63-26.843,36.646-21.007,90.8-6.536,129.234a174.436,174.436,0,0,0,76.56,89.709C137.4,361.674,181.9,371.555,225.94,370.232c39.369-1.089,78.5-11.126,111.494-29.955,72.514-41.47,129.7-138.57,95.622-223.144C416.484,75.9,375.092,52.478,336.734,62.515c-21.318,5.6-39.525,19.14-57.186,32.289-14.627,10.893-29.721,22.1-46.683,28.943a109.2,109.2,0,0,1-56.8,7.158c-16.028-2.179-32.756-7.469-54.23-17.273-13.538-6.147-31.2-13.227-48.317-13.538Z" transform="translate(-9.095 -57.31)" fill="#efeef2"/></g></g><g transform="translate(1.474)"><path d="M395.975,40.242C368.277,8.42,321.049-4.029,285.181,20.012c-33.689,22.641-47.85,65.512-78.194,92.043-31.744,27.776-67.534,30.266-107.137,26.531-34.078-3.112-72.67-1.323-84.963,38.591-13.3,43.337,9.57,93.21,36.49,125.577A175.339,175.339,0,0,0,153.925,362.9c78.972,14.783,170.7-16.339,224.855-78.5C434.877,220.048,456.429,109.643,395.975,40.242Z" transform="translate(-10.989 -7.436)" fill="#efeef2"/></g><g transform="translate(37.272 210.2)"><g transform="translate(8.247)"><path d="M107.2,323.583H73.98a6.409,6.409,0,0,1-6.38-6.38V283.98a6.409,6.409,0,0,1,6.38-6.38H107.2a6.409,6.409,0,0,1,6.38,6.38V317.2A6.359,6.359,0,0,1,107.2,323.583Z" transform="translate(-67.6 -277.6)" fill="#263239"/></g><path d="M96.6,323.583H63.38A6.409,6.409,0,0,1,57,317.2V283.98a6.409,6.409,0,0,1,6.38-6.38H96.6a6.409,6.409,0,0,1,6.38,6.38V317.2A6.409,6.409,0,0,1,96.6,323.583Z" transform="translate(-57 -277.6)" fill="#455a64"/><g transform="translate(7.08 11.982)"><path d="M66.1,304.671,70.69,300l8.948,7.936L94.577,293l4.357,4.59-19.918,19.3Z" transform="translate(-66.1 -293)" fill="#fff"/></g></g><g transform="translate(325.85 28.137)"><g transform="translate(12.993)"><path d="M510.734,116.114H450.98a6.409,6.409,0,0,1-6.38-6.38V49.98a6.409,6.409,0,0,1,6.38-6.38h59.754a6.409,6.409,0,0,1,6.38,6.38v59.754A6.359,6.359,0,0,1,510.734,116.114Z" transform="translate(-444.6 -43.6)" fill="#263239"/></g><path d="M494.034,116.114H434.28a6.409,6.409,0,0,1-6.38-6.38V49.98a6.409,6.409,0,0,1,6.38-6.38h59.754a6.409,6.409,0,0,1,6.38,6.38v59.754A6.409,6.409,0,0,1,494.034,116.114Z" transform="translate(-427.9 -43.6)" fill="#455a64"/><g transform="translate(11.204 18.907)"><path d="M442.3,86.262l7.314-7.314L463.7,91.475l23.5-23.575,6.847,7.236-31.433,30.422Z" transform="translate(-442.3 -67.9)" fill="#fff"/></g></g><g transform="translate(29.025 99.951)"><g transform="translate(0)"><path d="M107.554,136.522,46.4,135.9l1.712,79.75,61.154.233Z" transform="translate(-46.4 -135.9)" fill="#e0e0e0"/></g><g transform="translate(3.657 2.801)"><path d="M104.63,140.823,51.1,139.5l1.556,72.281,53.53.7Z" transform="translate(-51.1 -139.5)" fill="#fbfbfb"/></g><g transform="translate(12.527 14.394)"><path d="M98.057,154.945,62.5,154.4l1.089,50.573,35.479-.778Z" transform="translate(-62.5 -154.4)" fill="#ebebeb"/></g><g transform="translate(12.527 14.394)"><path d="M63.589,204.973l34.934-26.765L62.5,154.4Z" transform="translate(-62.5 -154.4)" fill="#f5f4f5"/></g></g><g transform="translate(290.76 158.837)"><path d="M434.929,211.83a2.432,2.432,0,0,0-.545-.156,4.109,4.109,0,0,0-1.712,0,6.722,6.722,0,0,0-2.49,1.245,13.277,13.277,0,0,0-2.49,2.879,50.727,50.727,0,0,0-4.279,9.726c-1.4,3.968-3.034,8.481-4.357,13.694h0a4.1,4.1,0,0,1-.934,1.089,1.815,1.815,0,0,1-1.4.467A2.326,2.326,0,0,1,415.4,240a6.723,6.723,0,0,1-1.011-1.089,27.771,27.771,0,0,0-2.178-2.1,3.2,3.2,0,0,0-5.213.545,7.159,7.159,0,0,0-.856,3.112c-.156,2.256.545,4.435.934,6.769.467,2.334.856,4.746,1.323,7.158l.7,3.735c.078.622.233,1.245.311,1.867a2.35,2.35,0,0,1-.233,2.023,1.072,1.072,0,0,1-1.011.389,3.494,3.494,0,0,1-.934-.467c-.545-.389-1.011-.778-1.556-1.167-1.089-.778-2.178-1.556-3.268-2.256a13.623,13.623,0,0,0-3.657-1.556,4.11,4.11,0,0,0-1.945,0,3.208,3.208,0,0,0-1.634,1.089,6.632,6.632,0,0,0-1.011,3.89,25.575,25.575,0,0,0,.389,4.2,67.7,67.7,0,0,0,2.334,8.4,17.835,17.835,0,0,1,.7,2.179,1.3,1.3,0,0,1-.311,1.167l-.233.233a.4.4,0,0,1-.311.156c-.311.078-.467-.078-.7-.156a10.977,10.977,0,0,1-1.789-1.4c-.545-.545-1.089-1.011-1.634-1.556a31.318,31.318,0,0,0-3.5-2.879,6.812,6.812,0,0,0-2.023-.934,2.492,2.492,0,0,0-2.1.233,2.817,2.817,0,0,0-1.167,1.789,10.519,10.519,0,0,0-.311,2.256,19.246,19.246,0,0,0,.622,4.668,41.374,41.374,0,0,0,3.346,8.947,77.583,77.583,0,0,0,5.057,8.4,37.208,37.208,0,0,0,3.034,3.89c1.011,1.323,2.1,2.568,3.19,3.89v.078l-.156-.078c1.634-.233,3.268-.467,4.979-.7a35.935,35.935,0,0,0,4.9-.856,61.692,61.692,0,0,0,9.337-2.8,39.651,39.651,0,0,0,8.481-4.357,18.968,18.968,0,0,0,3.579-3.034,6.277,6.277,0,0,0,1.323-1.867,2.554,2.554,0,0,0,.311-2.1,2.32,2.32,0,0,0-1.4-1.556,9.519,9.519,0,0,0-2.1-.7,21.957,21.957,0,0,0-4.513-.233h-2.256a12.169,12.169,0,0,1-2.334-.156,1.533,1.533,0,0,1-.622-.311.589.589,0,0,1-.078-.311v-.311a1.43,1.43,0,0,1,.622-1.089,12.868,12.868,0,0,1,1.945-1.167,53.811,53.811,0,0,0,7.391-4.59,18.223,18.223,0,0,0,3.112-2.879,6.669,6.669,0,0,0,1.867-3.579,2.609,2.609,0,0,0-.467-1.867,4.042,4.042,0,0,0-1.478-1.323,11.313,11.313,0,0,0-3.735-1.323,23.168,23.168,0,0,0-3.968-.545,16.377,16.377,0,0,0-1.945-.156,2.4,2.4,0,0,1-1.011-.233.943.943,0,0,1-.545-.934,2.576,2.576,0,0,1,1.167-1.634c.545-.389,1.011-.778,1.556-1.167,1.011-.778,2.023-1.556,3.034-2.256,1.945-1.478,3.89-2.957,5.758-4.357a32.586,32.586,0,0,0,5.213-4.435,5.882,5.882,0,0,0,1.4-2.879,3.68,3.68,0,0,0-.7-2.879,2.614,2.614,0,0,0-1.245-.778,4.886,4.886,0,0,0-1.478-.233,19.768,19.768,0,0,0-3.034.078c-.467,0-1.011.078-1.478.078a2.553,2.553,0,0,1-1.478-.311,1.815,1.815,0,0,1-.778-1.323,4.847,4.847,0,0,1,.078-1.478h0c2.49-4.746,4.357-9.181,5.991-13.071a52.49,52.49,0,0,0,3.346-10.115,12.922,12.922,0,0,0,.156-3.812,5.545,5.545,0,0,0-.934-2.568,3.255,3.255,0,0,0-1.167-1.167,4.622,4.622,0,0,0-.545-.233,1.009,1.009,0,0,1,.545.233,4.043,4.043,0,0,1,1.245,1.167,5.883,5.883,0,0,1,.934,2.645,12.924,12.924,0,0,1-.156,3.812,52.493,52.493,0,0,1-3.346,10.115c-1.556,3.89-3.423,8.325-5.913,13.149h0a3.9,3.9,0,0,0-.078,1.323,1.43,1.43,0,0,0,.622,1.089,2.557,2.557,0,0,0,1.323.311c.467,0,.934-.078,1.478-.078a19.772,19.772,0,0,1,3.034-.078,5.391,5.391,0,0,1,1.556.233,2.655,2.655,0,0,1,1.4.856,3.745,3.745,0,0,1,.778,3.112,6.91,6.91,0,0,1-1.478,3.034c-1.4,1.79-3.423,3.034-5.291,4.513-1.867,1.4-3.812,2.879-5.758,4.435-1.011.778-1.945,1.478-2.957,2.256-.467.389-1.011.778-1.556,1.167a5.647,5.647,0,0,0-.7.622,3.632,3.632,0,0,0-.389.778.583.583,0,0,0,.389.622,2.759,2.759,0,0,0,.856.233,16.375,16.375,0,0,0,1.945.156c1.323.156,2.645.311,3.968.545a14.594,14.594,0,0,1,3.89,1.4,5.423,5.423,0,0,1,1.556,1.4,3.418,3.418,0,0,1,.545,2.1,7.182,7.182,0,0,1-1.945,3.812,18.728,18.728,0,0,1-3.19,2.879,52.35,52.35,0,0,1-7.469,4.668,14.662,14.662,0,0,0-1.867,1.089,1.186,1.186,0,0,0-.467.856v.233c0,.078,0,.233.078.233,0,.078.233.156.389.156a10.276,10.276,0,0,0,2.179.156h2.256a22.779,22.779,0,0,1,4.59.311,7.609,7.609,0,0,1,2.256.7,3.118,3.118,0,0,1,1.556,1.867,3.231,3.231,0,0,1-.389,2.412,8.857,8.857,0,0,1-1.4,1.945,23.43,23.43,0,0,1-3.657,3.112,39.118,39.118,0,0,1-8.636,4.357,65.474,65.474,0,0,1-9.414,2.8c-1.634.467-3.268.545-4.9.856-1.634.233-3.268.467-4.979.7h-.078l-.078-.078v-.078c-1.089-1.323-2.1-2.568-3.19-3.89a47.644,47.644,0,0,1-3.034-3.89,77.608,77.608,0,0,1-5.057-8.4,38.482,38.482,0,0,1-3.423-9.025,19.367,19.367,0,0,1-.622-4.746,8.56,8.56,0,0,1,.311-2.412,3.576,3.576,0,0,1,1.323-2.023,2.93,2.93,0,0,1,2.412-.311,7.914,7.914,0,0,1,2.178,1.011,26.335,26.335,0,0,1,3.579,2.879c.545.545,1.089,1.011,1.634,1.556a14.913,14.913,0,0,0,1.712,1.4,1.314,1.314,0,0,0,.389.156l.156-.078c.078-.078.156-.078.156-.156a1.212,1.212,0,0,0,.233-.934,10.755,10.755,0,0,0-.622-2.1,55.189,55.189,0,0,1-2.412-8.481,19.912,19.912,0,0,1-.389-4.279,6.545,6.545,0,0,1,1.167-4.124,3.031,3.031,0,0,1,1.789-1.167,4.786,4.786,0,0,1,2.1,0,15.082,15.082,0,0,1,3.812,1.556c1.167.7,2.256,1.478,3.346,2.256.545.389,1.089.778,1.556,1.167a1.832,1.832,0,0,0,.778.389.591.591,0,0,0,.7-.233,1.5,1.5,0,0,0,.233-.778c0-.311-.078-.622-.078-.934-.078-.622-.233-1.245-.311-1.867l-.7-3.735c-.467-2.412-.856-4.824-1.323-7.158-.389-2.334-1.011-4.59-.856-6.847a6.9,6.9,0,0,1,.934-3.268,4.074,4.074,0,0,1,2.723-1.79,3.071,3.071,0,0,1,1.634.311,7.71,7.71,0,0,1,1.323.856c.778.7,1.478,1.4,2.179,2.1a12.385,12.385,0,0,0,1.011,1.011,2.613,2.613,0,0,0,1.167.7,1.83,1.83,0,0,0,1.245-.389,5.356,5.356,0,0,0,.856-1.011h0a123.925,123.925,0,0,1,4.435-13.694c1.478-3.968,2.723-7.314,4.357-9.726a13.474,13.474,0,0,1,2.568-2.879,6.2,6.2,0,0,1,2.49-1.245,4.109,4.109,0,0,1,1.712,0A1.163,1.163,0,0,1,434.929,211.83Z" transform="translate(-382.8 -211.585)" fill="#263239"/><g transform="translate(10.97 10.827)"><path d="M433.935,225.5a.6.6,0,0,1-.078.233,3.618,3.618,0,0,0-.233.7c-.233.7-.622,1.634-1.089,2.8-.934,2.412-2.256,5.991-3.968,10.27-3.346,8.714-7.858,20.7-12.916,33.923-5.057,13.3-9.648,25.287-13.071,33.923-1.712,4.357-3.112,7.858-4.046,10.192q-.7,1.751-1.167,2.8c-.156.311-.233.545-.311.7s-.078.233-.156.233a.6.6,0,0,1,.078-.233,3.617,3.617,0,0,0,.233-.7c.233-.7.622-1.634,1.089-2.8.934-2.412,2.256-5.991,3.968-10.27,3.346-8.714,7.858-20.7,12.916-33.923s9.648-25.287,13.071-33.923c1.712-4.357,3.112-7.858,4.046-10.192q.7-1.751,1.167-2.8c.156-.311.233-.545.311-.7C433.935,225.578,433.935,225.5,433.935,225.5Z" transform="translate(-396.9 -225.5)" fill="#263239"/></g><g transform="translate(34.857 37.66)"><path d="M441.216,260a12.721,12.721,0,0,1-1.945,1.167c-1.323.778-2.957,1.634-4.746,2.645-1.867,1.011-3.579,1.945-4.824,2.568a15.165,15.165,0,0,1-2.1.934,12.721,12.721,0,0,1,1.945-1.167c1.323-.778,2.957-1.634,4.746-2.723,1.867-1.011,3.579-1.945,4.824-2.568A10.252,10.252,0,0,1,441.216,260Z" transform="translate(-427.6 -259.987)" fill="#263239"/></g><g transform="translate(26.366 28.565)"><path d="M424.555,264.25c-.078.078-1.945-3.5-4.124-7.858-2.179-4.435-3.89-8.014-3.735-8.092.078-.078,1.945,3.5,4.124,7.858C422.922,260.593,424.633,264.172,424.555,264.25Z" transform="translate(-416.687 -248.298)" fill="#263239"/></g><g transform="translate(17.264 53.153)"><path d="M415.112,291.96A20.61,20.61,0,0,1,413.4,290.4c-1.011-1.011-2.334-2.412-3.735-4.124-1.4-1.634-2.568-3.268-3.423-4.435A8.716,8.716,0,0,1,405,279.9a10.016,10.016,0,0,1,1.478,1.79c.856,1.089,2.1,2.645,3.5,4.279s2.723,3.112,3.657,4.2A16.107,16.107,0,0,1,415.112,291.96Z" transform="translate(-404.989 -279.9)" fill="#263239"/></g><g transform="translate(27.465 61.847)"><path d="M432.26,291.094a8.406,8.406,0,0,1-2.023.622c-1.245.311-3.034.7-4.979,1.167s-3.735.778-5.057,1.089a10.206,10.206,0,0,1-2.1.311,8.4,8.4,0,0,1,2.023-.622c1.245-.311,3.034-.7,4.98-1.167s3.735-.778,5.057-1.089A10.2,10.2,0,0,1,432.26,291.094Z" transform="translate(-418.1 -291.074)" fill="#263239"/></g><g transform="translate(19.685 80.914)"><path d="M426.384,315.6a16.917,16.917,0,0,1-2.645.7c-1.634.389-3.89.856-6.458,1.4-2.49.545-4.824,1.011-6.458,1.323a13.011,13.011,0,0,1-2.723.389,16.925,16.925,0,0,1,2.645-.7c1.634-.389,3.89-.856,6.458-1.4,2.49-.545,4.824-1.011,6.458-1.323C425.373,315.751,426.384,315.518,426.384,315.6Z" transform="translate(-408.1 -315.58)" fill="#263239"/></g><g transform="translate(7.625 68.947)"><path d="M405.127,315.839a4.7,4.7,0,0,1-.622-.545c-.389-.389-.856-.856-1.478-1.556-1.245-1.323-2.879-3.19-4.59-5.369s-3.19-4.2-4.279-5.68a16.415,16.415,0,0,1-1.167-1.789,2.053,2.053,0,0,1-.389-.7s.233.233.545.622c.389.467.778,1.011,1.323,1.712,1.089,1.478,2.645,3.423,4.357,5.6s3.346,4.046,4.513,5.446A28.233,28.233,0,0,1,405.127,315.839Z" transform="translate(-392.6 -300.2)" fill="#263239"/></g></g><g transform="translate(288.756 201.175)"><path d="M394.522,360.377c-13.538-10.893-15.483-29.488-13.771-45.983.311-2.723.156-5.68,1.634-8.014s4.668-3.812,7.08-2.412c2.023,1.089,2.723,3.579,3.735,5.6a16.059,16.059,0,0,0,6.069,6.613c1.712,1.011,3.812,1.712,5.6.934,2.49-1.167,2.957-4.435,3.112-7.158.311-5.135.622-10.27.934-15.328a26.006,26.006,0,0,1,1.4-8.092,8.448,8.448,0,0,1,5.758-5.368c2.645-.545,5.758,1.167,6.147,3.89a25.206,25.206,0,0,1-.156,3.423,2.889,2.889,0,0,0,1.478,2.8c1.089.389,2.256-.311,3.112-1.089,3.034-2.568,5.213-5.991,7.236-9.414a50.365,50.365,0,0,1,6.847-9.8c2.8-2.879,6.536-4.98,10.426-4.98,3.968.078,7.936,2.8,8.714,6.691.7,3.968-1.789,7.7-4.435,10.659a59.1,59.1,0,0,1-13.616,11.282,4.725,4.725,0,0,0-2.256,2.179c-.7,1.789.856,3.735,2.645,4.435,2.023.856,4.2.778,6.38,1.167,2.1.389,4.357,1.478,5.057,3.579.934,2.879-1.634,5.68-4.046,7.469a52.264,52.264,0,0,1-16.183,7.936c-2.1.622-4.279,1.089-5.991,2.412s-2.879,3.735-2.023,5.68c.856,2.023,3.346,2.8,5.446,2.568,2.179-.233,4.124-1.245,6.147-1.867,3.89-1.167,8.714-.545,10.893,2.879a8.551,8.551,0,0,1,.389,7.781,21.169,21.169,0,0,1-4.59,6.536A53.517,53.517,0,0,1,420.041,361.7c-8.87,2.178-16.961,2.412-25.52-1.323" transform="translate(-380.225 -266)" fill="#e9505b"/><path d="M394.522,360.377c-13.538-10.893-15.483-29.488-13.771-45.983.311-2.723.156-5.68,1.634-8.014s4.668-3.812,7.08-2.412c2.023,1.089,2.723,3.579,3.735,5.6a16.059,16.059,0,0,0,6.069,6.613c1.712,1.011,3.812,1.712,5.6.934,2.49-1.167,2.957-4.435,3.112-7.158.311-5.135.622-10.27.934-15.328a26.006,26.006,0,0,1,1.4-8.092,8.448,8.448,0,0,1,5.758-5.368c2.645-.545,5.758,1.167,6.147,3.89a25.206,25.206,0,0,1-.156,3.423,2.889,2.889,0,0,0,1.478,2.8c1.089.389,2.256-.311,3.112-1.089,3.034-2.568,5.213-5.991,7.236-9.414a50.365,50.365,0,0,1,6.847-9.8c2.8-2.879,6.536-4.98,10.426-4.98,3.968.078,7.936,2.8,8.714,6.691.7,3.968-1.789,7.7-4.435,10.659a59.1,59.1,0,0,1-13.616,11.282,4.725,4.725,0,0,0-2.256,2.179c-.7,1.789.856,3.735,2.645,4.435,2.023.856,4.2.778,6.38,1.167,2.1.389,4.357,1.478,5.057,3.579.934,2.879-1.634,5.68-4.046,7.469a52.264,52.264,0,0,1-16.183,7.936c-2.1.622-4.279,1.089-5.991,2.412s-2.879,3.735-2.023,5.68c.856,2.023,3.346,2.8,5.446,2.568,2.179-.233,4.124-1.245,6.147-1.867,3.89-1.167,8.714-.545,10.893,2.879a8.551,8.551,0,0,1,.389,7.781,21.169,21.169,0,0,1-4.59,6.536A53.517,53.517,0,0,1,420.041,361.7c-8.87,2.178-16.961,2.412-25.52-1.323" transform="translate(-380.225 -266)" fill="#f8a921"/><g transform="translate(13.285 2.49)"><path d="M397.3,373.3a116.889,116.889,0,0,1,6.069-22.33,259.288,259.288,0,0,1,11.593-25.831c1.167-2.256,2.256-4.435,3.423-6.613,1.089-2.178,2.256-4.279,3.423-6.38a129.47,129.47,0,0,1,7.625-11.282c2.568-3.5,5.213-6.691,7.625-9.648,2.49-2.957,4.824-5.68,7-8.092a94.164,94.164,0,0,1,11.437-10.5c1.4-1.167,2.568-1.945,3.346-2.568.389-.233.7-.467.934-.622a2.3,2.3,0,0,0,.311-.233,2.3,2.3,0,0,1-.311.233c-.233.156-.467.389-.856.7q-1.167.934-3.268,2.568a112.1,112.1,0,0,0-11.282,10.581c-2.256,2.412-4.513,5.135-7,8.092-2.412,2.957-4.98,6.224-7.625,9.648A123.659,123.659,0,0,0,422.2,312.3c-1.167,2.023-2.334,4.124-3.423,6.3s-2.256,4.357-3.346,6.613a258.353,258.353,0,0,0-11.593,25.753,123.079,123.079,0,0,0-6.147,22.252" transform="translate(-397.3 -269.2)" fill="#263239"/></g><g transform="translate(35.927 15.016)"><path d="M428.345,315.8s-.078-.389-.156-1.167-.156-1.867-.311-3.268c-.233-2.723-.311-6.613-.467-10.815s-.311-8.014-.622-10.815c-.156-1.4-.233-2.49-.311-3.268s-.078-1.167-.078-1.167a4.723,4.723,0,0,1,.233,1.167q.233,1.167.467,3.268c.311,2.723.622,6.536.778,10.815.156,4.124.233,7.936.311,10.815.078,1.323.078,2.412.156,3.268Z" transform="translate(-426.4 -285.3)" fill="#263239"/></g><g transform="translate(37.872 41.003)"><path d="M464.69,319.011a10.941,10.941,0,0,1-1.4.078c-.934,0-2.256,0-3.89.078-3.268.156-7.78.467-12.682,1.011-4.979.622-9.414,1.323-12.6,1.945-1.634.311-2.879.545-3.812.778a5.9,5.9,0,0,1-1.4.233s.467-.156,1.323-.467c.856-.233,2.179-.545,3.735-.934,3.19-.7,7.625-1.478,12.6-2.1s9.492-.856,12.76-.934c1.634,0,2.957,0,3.89.078C464.146,318.933,464.69,319.011,464.69,319.011Z" transform="translate(-428.9 -318.7)" fill="#263239"/></g><g transform="translate(5.006 37.346)"><path d="M401.474,360.294l-.233-.467c-.156-.389-.311-.778-.545-1.323-.467-1.167-1.011-2.8-1.789-4.9-1.4-4.124-3.19-9.959-5.135-16.417-1.867-6.458-3.657-12.293-4.979-16.417-.622-2.023-1.167-3.735-1.634-4.979-.156-.545-.311-1.011-.389-1.323s-.156-.467-.078-.467l.233.467c.156.389.311.778.545,1.323.467,1.167,1.011,2.8,1.789,4.9,1.4,4.124,3.19,9.959,5.135,16.417,1.867,6.458,3.657,12.293,4.979,16.417.622,2.023,1.167,3.735,1.634,4.979.156.545.311,1.011.389,1.323A1.129,1.129,0,0,0,401.474,360.294Z" transform="translate(-386.659 -314)" fill="#263239"/></g><g transform="translate(19.821 71.736)"><path d="M453.628,358.2a2.507,2.507,0,0,1-.467.156c-.389.078-.856.233-1.4.389-1.323.311-3.034.778-5.135,1.245-4.357,1.089-10.27,2.645-16.884,4.357s-12.6,3.268-16.961,4.279c-2.179.467-3.968.856-5.213,1.089a13.052,13.052,0,0,1-1.4.233,2.179,2.179,0,0,1-.467.078,2.511,2.511,0,0,1,.467-.156c.389-.078.856-.233,1.4-.389,1.323-.311,3.034-.778,5.135-1.245,4.357-1.089,10.348-2.645,16.884-4.357,6.613-1.712,12.6-3.268,16.961-4.279,2.179-.467,3.968-.856,5.213-1.089a13.036,13.036,0,0,1,1.4-.233A2.177,2.177,0,0,1,453.628,358.2Z" transform="translate(-405.7 -358.2)" fill="#263239"/></g></g><g transform="translate(117.567 80.733)"><rect width="188.676" height="258.545" fill="#31343e"/></g><g transform="translate(133.283 91.237)"><path d="M345.891,357.414H180.4V124.7H345.891V357.414Z" transform="translate(-180.4 -124.7)" fill="#e0e0e0"/></g><g transform="translate(132.116 88.124)"><path d="M342.912,352.169H178.9V120.7H342.912V352.169Z" transform="translate(-178.9 -120.7)" fill="#ebebeb"/></g><g transform="translate(128.926 88.513)"><g transform="translate(0.156 0.233)"><path d="M324.463,334.374,305.556,349.7H175V121.5H340.491V321.3Z" transform="translate(-175 -121.5)" fill="#fbfbfb"/></g><path d="M324.418,334.307a11.984,11.984,0,0,1,1.011-.856c.7-.545,1.712-1.4,3.034-2.49,2.723-2.179,6.691-5.446,11.982-9.726v.078c0-32.834-.078-105.814-.156-199.88l.156.156H174.878l.233-.233c0,85.819,0,164.946-.078,228.279l-.156-.156c59.6.078,105.347.078,130.556.078h-.078c6.3-5.135,11.048-8.948,14.16-11.515,1.556-1.245,2.723-2.256,3.579-2.879a12.2,12.2,0,0,0,1.323-.856s-.389.311-1.167,1.011c-.778.622-1.945,1.634-3.5,2.879-3.112,2.568-7.858,6.458-14.16,11.593h0c-25.209,0-70.958.078-130.556.078h-.156v-.156c0-63.255,0-142.46-.078-228.279V121.2H340.757v.156c-.078,94.066-.078,167.047-.156,199.88h0c-5.291,4.279-9.337,7.547-11.982,9.726-1.323,1.089-2.334,1.867-3.034,2.412A11.022,11.022,0,0,0,324.418,334.307Z" transform="translate(-174.8 -121.2)" fill="#263239"/></g><g transform="translate(178.021 72.719)"><path d="M305.668,124.164H237.9V112.415A11.489,11.489,0,0,1,249.415,100.9H294.7a11.041,11.041,0,0,1,11.048,11.048v12.215Z" transform="translate(-237.9 -100.9)" fill="#f8a921"/></g><g transform="translate(192.104 60.27)"><path d="M258.49,97.427,256,84.9h39.058l-2.179,12.527Z" transform="translate(-256 -84.9)" fill="#f8a921"/></g><g transform="translate(146.432 188.337)"><path d="M225.154,277.354H197.3V249.5h27.854ZM198,276.576h26.3v-26.3H198Z" transform="translate(-197.3 -249.5)" fill="#31343e"/><g transform="translate(5.524 1.712)"><path d="M204.4,264.46l3.657-3.968,6.224,4.9L228.364,251.7l3.423,3.968L213.97,273.252Z" transform="translate(-204.4 -251.7)" fill="#f8a921"/></g><g transform="translate(39.68 6.458)"><path d="M334.974,258.033c0,.078-19.373.233-43.337.233s-43.337-.078-43.337-.233,19.373-.233,43.337-.233S334.974,257.878,334.974,258.033Z" transform="translate(-248.3 -257.8)" fill="#263239"/></g><g transform="translate(39.68 12.215)"><path d="M334.974,265.433c0,.078-19.373.233-43.337.233s-43.337-.078-43.337-.233,19.373-.233,43.337-.233C315.6,265.278,334.974,265.356,334.974,265.433Z" transform="translate(-248.3 -265.2)" fill="#31343e"/></g><g transform="translate(39.68 18.051)"><path d="M334.974,272.933c0,.078-19.373.233-43.337.233s-43.337-.078-43.337-.233,19.373-.233,43.337-.233S334.974,272.778,334.974,272.933Z" transform="translate(-248.3 -272.7)" fill="#31343e"/></g><g transform="translate(39.68 23.808)"><path d="M334.974,280.333c0,.078-19.373.233-43.337.233s-43.337-.078-43.337-.233,19.373-.233,43.337-.233C315.6,280.178,334.974,280.256,334.974,280.333Z" transform="translate(-248.3 -280.1)" fill="#31343e"/></g></g><g transform="translate(146.432 229.885)"><path d="M225.154,330.754H197.3V302.9h27.854ZM198,329.976h26.3v-26.3H198Z" transform="translate(-197.3 -302.9)" fill="#31343e"/><g transform="translate(5.524 1.789)"><path d="M204.4,317.882l3.657-3.968,6.224,4.98L228.364,305.2l3.423,3.968L213.97,326.674Z" transform="translate(-204.4 -305.2)" fill="#f8a921"/></g><g transform="translate(39.68 6.458)"><path d="M334.974,311.433c0,.078-19.373.233-43.337.233s-43.337-.078-43.337-.233,19.373-.233,43.337-.233C315.6,311.278,334.974,311.356,334.974,311.433Z" transform="translate(-248.3 -311.2)" fill="#31343e"/></g><g transform="translate(39.68 12.293)"><path d="M334.974,318.933c0,.078-19.373.233-43.337.233s-43.337-.078-43.337-.233c0-.078,19.373-.233,43.337-.233S334.974,318.778,334.974,318.933Z" transform="translate(-248.3 -318.7)" fill="#31343e"/></g><g transform="translate(39.68 18.051)"><path d="M334.974,326.333c0,.078-19.373.233-43.337.233s-43.337-.078-43.337-.233c0-.078,19.373-.233,43.337-.233C315.6,326.178,334.974,326.256,334.974,326.333Z" transform="translate(-248.3 -326.1)" fill="#31343e"/></g><g transform="translate(39.68 23.886)"><path d="M334.974,333.833c0,.078-19.373.233-43.337.233s-43.337-.078-43.337-.233c0-.078,19.373-.233,43.337-.233S334.974,333.678,334.974,333.833Z" transform="translate(-248.3 -333.6)" fill="#31343e"/></g></g><g transform="translate(146.432 112.088)"><path d="M225.154,179.354H197.3V151.5h27.854ZM198,178.576h26.3v-26.3H198Z" transform="translate(-197.3 -151.5)" fill="#31343e"/><g transform="translate(5.524 1.712)"><path d="M204.4,166.46l3.657-3.968,6.224,4.9L228.364,153.7l3.423,3.968L213.97,175.252Z" transform="translate(-204.4 -153.7)" fill="#f8a921"/></g><g transform="translate(39.68 6.458)"><path d="M334.974,160.033c0,.078-19.373.233-43.337.233s-43.337-.078-43.337-.233,19.373-.233,43.337-.233S334.974,159.878,334.974,160.033Z" transform="translate(-248.3 -159.8)" fill="#31343e"/></g><g transform="translate(39.68 12.215)"><path d="M334.974,167.433c0,.078-19.373.233-43.337.233s-43.337-.078-43.337-.233,19.373-.233,43.337-.233C315.6,167.278,334.974,167.356,334.974,167.433Z" transform="translate(-248.3 -167.2)" fill="#31343e"/></g><g transform="translate(39.68 18.051)"><path d="M334.974,174.933c0,.078-19.373.233-43.337.233s-43.337-.078-43.337-.233c0-.078,19.373-.233,43.337-.233S334.974,174.778,334.974,174.933Z" transform="translate(-248.3 -174.7)" fill="#31343e"/></g><g transform="translate(39.68 23.808)"><path d="M334.974,182.333c0,.078-19.373.233-43.337.233s-43.337-.078-43.337-.233,19.373-.233,43.337-.233C315.6,182.178,334.974,182.256,334.974,182.333Z" transform="translate(-248.3 -182.1)" fill="#31343e"/></g></g><g transform="translate(146.432 153.636)"><path d="M225.154,232.754H197.3V204.9h27.854ZM198,231.976h26.3v-26.3H198Z" transform="translate(-197.3 -204.9)" fill="#31343e"/><g transform="translate(5.524 1.79)"><path d="M204.4,219.882l3.657-3.968,6.224,4.979L228.364,207.2l3.423,3.968L213.97,228.674Z" transform="translate(-204.4 -207.2)" fill="#f8a921"/></g><g transform="translate(39.68 6.458)"><path d="M334.974,213.433c0,.078-19.373.233-43.337.233s-43.337-.078-43.337-.233,19.373-.233,43.337-.233C315.6,213.278,334.974,213.356,334.974,213.433Z" transform="translate(-248.3 -213.2)" fill="#31343e"/></g><g transform="translate(39.68 12.293)"><path d="M334.974,220.933c0,.078-19.373.233-43.337.233s-43.337-.078-43.337-.233,19.373-.233,43.337-.233S334.974,220.778,334.974,220.933Z" transform="translate(-248.3 -220.7)" fill="#31343e"/></g><g transform="translate(39.68 18.051)"><path d="M334.974,228.333c0,.078-19.373.233-43.337.233s-43.337-.078-43.337-.233c0-.078,19.373-.233,43.337-.233C315.6,228.178,334.974,228.256,334.974,228.333Z" transform="translate(-248.3 -228.1)" fill="#31343e"/></g><g transform="translate(39.68 23.886)"><path d="M334.974,235.833c0,.078-19.373.233-43.337.233s-43.337-.078-43.337-.233c0-.078,19.373-.233,43.337-.233S334.974,235.678,334.974,235.833Z" transform="translate(-248.3 -235.6)" fill="#31343e"/></g></g><g transform="translate(146.432 270.032)"><path d="M225.154,382.354H197.3V354.5h27.854ZM198,381.576h26.3v-26.3H198Z" transform="translate(-197.3 -354.5)" fill="#31343e"/><g transform="translate(39.68 6.458)"><path d="M334.974,363.033c0,.078-19.373.233-43.337.233s-43.337-.078-43.337-.233,19.373-.233,43.337-.233C315.6,362.878,334.974,362.956,334.974,363.033Z" transform="translate(-248.3 -362.8)" fill="#31343e"/></g><g transform="translate(39.68 12.293)"><path d="M334.974,370.533c0,.078-19.373.233-43.337.233s-43.337-.078-43.337-.233c0-.078,19.373-.233,43.337-.233S334.974,370.456,334.974,370.533Z" transform="translate(-248.3 -370.3)" fill="#31343e"/></g><g transform="translate(39.68 18.051)"><path d="M334.974,377.933c0,.078-19.373.233-43.337.233s-43.337-.078-43.337-.233,19.373-.233,43.337-.233C315.6,377.778,334.974,377.856,334.974,377.933Z" transform="translate(-248.3 -377.7)" fill="#31343e"/></g><g transform="translate(39.68 23.886)"><path d="M334.974,385.433c0,.078-19.373.233-43.337.233s-43.337-.078-43.337-.233,19.373-.233,43.337-.233S334.974,385.278,334.974,385.433Z" transform="translate(-248.3 -385.2)" fill="#31343e"/></g></g><g transform="translate(246.723 279.213)"><path d="M344.328,366.3,326.2,403.88h12.916Z" transform="translate(-326.2 -366.3)" fill="#e0e0e0"/></g><g transform="translate(259.638 279.057)"><g transform="translate(0 0.311)"><path d="M342.8,404.08l5.213-37.58,29.721,9.181Z" transform="translate(-342.8 -366.5)" fill="#fbfbfb"/></g><path d="M342.8,403.991c.7-.622,3.968-3.268,10.037-8.247,6.224-5.057,14.861-12.215,24.82-20.307l.078.311c-3.657-1.167-7.547-2.334-11.515-3.579-6.458-2.023-12.6-3.89-18.284-5.68l.233-.156c-1.556,10.893-2.879,20.229-3.812,26.92-.934,6.613-1.4,9.959-1.556,10.737v-.156a1.519,1.519,0,0,1,.078-.545c.078-.467.156-1.167.233-2.023.233-1.789.622-4.435,1.011-7.78.934-6.691,2.179-16.106,3.657-27.154V366.1l.233.078c5.68,1.712,11.826,3.657,18.284,5.6,3.968,1.245,7.78,2.412,11.515,3.579l.389.078-.311.233c-10.037,8.092-18.829,15.172-25.131,20.229-3.112,2.49-5.6,4.513-7.314,5.913-.856.7-1.478,1.167-1.945,1.556a2.964,2.964,0,0,0-.467.389Q342.8,404.108,342.8,403.991Z" transform="translate(-342.8 -366.1)" fill="#263239"/></g><g transform="translate(226.26 60.27)" opacity="0.3"><path d="M302.079,84.9,299.9,97.427h2.723L304.8,84.9h-3.423" transform="translate(-299.9 -84.9)" fill="#010202"/></g></svg>