<svg xmlns="http://www.w3.org/2000/svg" xmlns:xlink="http://www.w3.org/1999/xlink" width="421.431" height="374" viewBox="0 0 421.431 374"><defs><clipPath id="a"><path d="M449.255,372.176l-2.15-3.128L424.3,363.9,414,383.71s9.905,33.039,15.053,42.162,26,13.685,29.976-1.173-8.6-49.591-8.6-49.591Z" transform="translate(-414 -363.9)"/></clipPath><clipPath id="b"><path d="M353.848,278.749c-15.249,93.382-1.694,164.934-1.694,164.934h-119.9C230.294,359.359,217,289.371,217,289.371,292.006,234.762,353.848,278.749,353.848,278.749Z" transform="translate(-217 -262.003)"/></clipPath><clipPath id="c"><path d="M223.1,373.59l3.845,31.67c19.875-1.3,36.623-8.406,48.548-12.381,1.825-.586,7.429-2.085,7.429-2.085l19.224-16.1c1.5-2.932,9.449-3.193,9.449-3.193,15.77-6.842,18.572-16.617,20.592-11.078S317.586,376,317.586,376a20.609,20.609,0,0,1,4.822,2.672c2.476,1.825,2.607,7.885,2.607,7.885s5.669,2.15,4.953,4.757-5.735,2.346-5.735,2.346c-1.434,1.825-5.6,1.3-5.6,1.3-1.5,6.06-8.081,5.8-8.081,5.8-5.148,5.539-14.923,2.085-14.923,2.085-3.128,3.714-9.188,3.193-9.188,3.193-60.734,46.137-81.522,41.445-81.522,41.445-17.269-16.943-15.444-65.948-15.444-65.948C198.984,367.856,223.1,373.59,223.1,373.59Z" transform="translate(-189.415 -358.794)"/></clipPath><clipPath id="d"><path d="M291.5,253.431l22.026,7.1,15.118-.065,8.732-.652,9.905-12.707c-12.186-1.759-12.512-34.733-12.512-34.733L296.712,209.9c2.541,24.958-6.712,39.36-6.712,39.36Z" transform="translate(-290 -209.9)"/></clipPath><clipPath id="e"><path d="M432.671,345.179a50.62,50.62,0,0,0-.521-6.321c-.521-3.584,1.368-8.537-.652-10.883-1.955-2.346-1.825-6.908-4.171-4.953s-.456,6.126-.456,6.126l-4.5-8.146s-6.321-9.123-9.449-6.126c-1.5,1.368.586,4.692,2.346,7.885,2.02,3.649,3.454,5.018,3.91,6.973a31.862,31.862,0,0,1-.065,6.582,1.6,1.6,0,0,1-.717,1.108h-.065a1.206,1.206,0,0,1-1.629-.521,14.132,14.132,0,0,0-2.346-3.78c-1.5-1.564-12.642-14.206-17.008-10.883-2.216,1.694.717,4.366,3.975,8.081,3.128,3.584,5.148,5.539,6.647,7.559a34.949,34.949,0,0,1,2.216,4.04,2.089,2.089,0,0,1-.521,2.476l-.13.13a1.972,1.972,0,0,1-2.476.261c-1.238-.782-3.193-2.085-4.562-3.128-2.281-1.759-8.015-12.381-11.534-10.166s3.584,11.925,6.06,15.249a27.178,27.178,0,0,0,5.213,5.018,1.043,1.043,0,0,1,.326,1.368h0a.064.064,0,0,1-.065.065,1.21,1.21,0,0,1-1.694.521c-1.434-.847-3.91-2.216-5.409-3.323-2.281-1.629-4.105-10.3-6.712-9.319s-1.043,7.1,1.564,11.86,10.948,7.559,10.948,7.559c3.323,5.8,11.665,8.667,11.665,8.667l3.193,27.5c.391,28.282,24.242,29.455,24.242,29.455s8.863-4.692,9.449-18.768-18.507-49.591-18.507-49.591Z" transform="translate(-387.344 -314.272)"/></clipPath></defs><g transform="translate(0)"><g transform="translate(0 0)"><g transform="translate(0 0)"><path d="M277.4,516.072a328.842,328.842,0,0,0,43.987-8.472" transform="translate(-106.487 -183.813)" fill="none" stroke="#263339" stroke-linecap="round" stroke-linejoin="round" stroke-width="1"/><g transform="translate(0 0)"><g transform="translate(7.457)"><path d="M103.42,324.484c-1.89-1.694-3.714-3.389-5.539-5.148a248.948,248.948,0,0,1-38.9-47.31,222.464,222.464,0,0,1-25.089-54.413,172.56,172.56,0,0,1,6.321-117.037c8.8-20.788,21.7-40.6,36.3-55.717A128.977,128.977,0,0,1,102.9,23.679a94.026,94.026,0,0,1,31.084-11.925,54.487,54.487,0,0,1,27.109,1.5A52.862,52.862,0,0,1,181.423,26.09,91.234,91.234,0,0,1,196.28,46.1,186.239,186.239,0,0,1,207.163,69.23c13.1,32.518,30.758,64.775,70.314,80.414,16.291,6.451,34.407,8.667,51.937,10.752,21.57,2.607,43.922,5.344,63.276,16.031a73.708,73.708,0,0,1,23.2,20.006,79.886,79.886,0,0,1,13.1,26.718,92.743,92.743,0,0,1,3.128,30.107,96.881,96.881,0,0,1-6.712,30.237,141.822,141.822,0,0,1-37.34,53.371c-15.509,14.011-34.147,25.284-55.456,33.5C292.2,385.935,245.285,389,203.97,378.832a224.338,224.338,0,0,1-56.629-22.678A250.361,250.361,0,0,1,103.42,324.484ZM177.252,26.09c-11.99-10.752-26.066-14.532-42.814-11.534-43.726,7.82-75.983,50.178-91.623,87.126A170.644,170.644,0,0,0,36.56,216.83c11.86,39.621,36.753,76.57,68.815,105.438,28.673,25.74,63.08,45.029,99.182,53.892,79.306,19.485,185.266-10.817,218.109-93.708,16.031-40.337,2.476-84.911-31.475-103.548-18.9-10.426-40.924-13.1-62.233-15.7-17.66-2.15-35.971-4.366-52.589-10.948a106.779,106.779,0,0,1-45.095-33.169c-9.905-12.316-18.181-27.37-26.783-48.744-5.409-13.489-13.163-30.432-25.089-42.162A16.262,16.262,0,0,0,177.252,26.09Z" transform="translate(-26.569 -10.732)" fill="#2e313c"/></g><g transform="translate(0 32.685)"><path d="M436.47,227.981c1.759-41.25-23.264-81.848-64.84-88.951-39.165-6.712-78.068,14.141-117.428,12.512-41.25-1.694-68.228-24.111-93.773-53.371C138.4,72.952,109.86,48.189,74.214,68.195,35.571,89.895,18.237,140.724,15.5,181.778A171.236,171.236,0,0,0,47.627,293.472C93.633,357.2,179.587,396.89,259.871,389.4,342.892,381.641,432.56,317.844,436.47,227.981Z" transform="translate(-15.126 -60.889)" fill="#2e313c"/></g></g><g transform="translate(321.689 165.304)"><g transform="translate(0 0)"><path d="M511.463,273.523c-4.3,6.712-2.15,15.314-2.15,15.314s9.188-2.346,13.489-9.123c4.3-6.712,2.15-15.314,2.15-15.314S515.764,266.811,511.463,273.523Z" transform="translate(-508.775 -264.4)" fill="#fff"/></g><g transform="translate(9.53 17.029)"><path d="M536.889,290.967c-8.276,1.759-13.489,9.123-13.489,9.123s8.211,4.5,16.487,2.672c8.276-1.759,13.489-9.123,13.489-9.123S545.165,289.142,536.889,290.967Z" transform="translate(-523.4 -290.531)" fill="#f8a921"/></g></g><g transform="translate(66.257 228.645)"><g transform="translate(16.422)"><path d="M152.166,368.182c3.128,4.887,1.564,11.013,1.564,11.013s-6.647-1.694-9.775-6.582-1.564-11.013-1.564-11.013S149.038,363.294,152.166,368.182Z" transform="translate(-142 -361.6)" fill="#fff"/></g><g transform="translate(0 12.269)"><path d="M128.725,380.736c6,1.3,9.71,6.582,9.71,6.582s-5.93,3.193-11.925,1.955c-6-1.3-9.71-6.582-9.71-6.582S122.73,379.432,128.725,380.736Z" transform="translate(-116.8 -380.428)" fill="#f8a920"/></g></g><path d="M449.255,372.176l-2.15-3.128L424.3,363.9,414,383.71s9.905,33.039,15.053,42.162,26,13.685,29.976-1.173-8.6-49.591-8.6-49.591Z" transform="translate(-154.071 -133.756)" fill="#868686"/><g transform="translate(259.929 230.144)"><g clip-path="url(#a)"><path d="M459.491,428.846a5.282,5.282,0,0,1,0-1.434,5.122,5.122,0,0,1,.521-1.694v-.261c-.2-2.476.326-4.953.456-7.429C451.019,414.9,435.9,385.511,431.86,377.3c-7.559,1.629-16.291,5.409-16.161,14.141.13,5.474,3.323,11.4,5.018,16.552,1.564,5.018,4.562,10.948,6,15.9a2.574,2.574,0,0,1-.261,2.476,5.023,5.023,0,0,1,.782,2.346Z" transform="translate(-414.591 -368.568)" fill="#020203" opacity="0.2"/></g></g><path d="M449.255,372.176l-2.15-3.128L424.3,363.9,414,383.71s9.905,33.039,15.053,42.162,26,13.685,29.976-1.173-8.6-49.591-8.6-49.591Z" transform="translate(-154.071 -133.756)" fill="none" stroke="#263339" stroke-linecap="round" stroke-linejoin="round" stroke-width="1"/><path d="M290.836,167.462l9.319,3.714,2.216-10.948,48.157-7.885c3.975-4.105,2.476-9.775,2.476-9.775,3.323-5.539.456-8.6.456-8.6,2.932-4.5-.456-8.993-.456-8.993,2.346-5.669-5.278-8.341-5.278-8.341-.391-6.973-8.537-5.93-8.537-5.93C337.3,105.685,330,107.51,330,107.51c-1.564-6.582-12.772-1.434-12.772-1.434-5.8-3.063-9.123,5.669-9.123,5.669-3.454-6.842-6.321-.261-6.321-.261-6.582-3.323-6.06,4.105-6.06,4.105-7.755-2.737-6.451,4.627-6.451,4.627-7.755-.13-4.366,6.842-4.366,6.842-6.647,4.5-1.368,11.208-1.368,11.208-3.454,5.93,1.368,9.384,1.368,9.384-3.584,4.627,1.238,8.993,1.238,8.993Z" transform="translate(-107.933 -43.277)" fill="#263339" stroke="#263339" stroke-linecap="round" stroke-linejoin="round" stroke-width="1"/><path d="M345.922,110.385c-5.669-2.476-8.928-.521-10.622,1.759" transform="translate(-126.657 -45.044)" fill="none" stroke="#7f8080" stroke-linecap="round" stroke-linejoin="round" stroke-width="0.75"/><path d="M333.017,116.6a10.619,10.619,0,0,0-.717,2.02" transform="translate(-125.612 -47.611)" fill="none" stroke="#7f8080" stroke-linecap="round" stroke-linejoin="round" stroke-width="0.75"/><path d="M356.83,115.4c-3.193,7.494-11.73,2.216-11.73,2.216" transform="translate(-130.07 -47.193)" fill="none" stroke="#7f8080" stroke-linecap="round" stroke-linejoin="round" stroke-width="0.75"/><path d="M334.883,121.3c-1.3,8.081-10.883,4.953-10.883,4.953" transform="translate(-122.72 -49.248)" fill="none" stroke="#7f8080" stroke-linecap="round" stroke-linejoin="round" stroke-width="0.75"/><path d="M346.683,135.29c-5.93-2.607-9.254-.261-10.883,2.15" transform="translate(-126.831 -53.723)" fill="none" stroke="#7f8080" stroke-linecap="round" stroke-linejoin="round" stroke-width="0.75"/><path d="M333.917,141.5a11.832,11.832,0,0,0-.717,1.955" transform="translate(-125.925 -56.284)" fill="none" stroke="#7f8080" stroke-linecap="round" stroke-linejoin="round" stroke-width="0.75"/><path d="M365.038,140.9a8.014,8.014,0,0,1-1.238,2.02" transform="translate(-136.584 -56.075)" fill="none" stroke="#7f8080" stroke-linecap="round" stroke-linejoin="round" stroke-width="0.75"/><path d="M357.249,145.082c-3.845,2.737-9.449-.782-9.449-.782" transform="translate(-131.011 -57.26)" fill="none" stroke="#7f8080" stroke-linecap="round" stroke-linejoin="round" stroke-width="0.75"/><path d="M294.857,149.7c-8.341.977-5.93,8.406-5.93,8.406" transform="translate(-110.39 -59.141)" fill="none" stroke="#7f8080" stroke-linecap="round" stroke-linejoin="round" stroke-width="0.75"/><path d="M306.9,165.39c6.517-2.15,3.389-7.69,3.389-7.69" transform="translate(-116.764 -61.927)" fill="none" stroke="#7f8080" stroke-linecap="round" stroke-linejoin="round" stroke-width="0.75"/><path d="M303.812,148.2c.782,6.06-6.712,5.93-6.712,5.93" transform="translate(-113.35 -58.618)" fill="none" stroke="#7f8080" stroke-linecap="round" stroke-linejoin="round" stroke-width="0.75"/><path d="M298.656,161.2c4.887,3.649-.456,8.928-.456,8.928" transform="translate(-113.733 -63.147)" fill="none" stroke="#7f8080" stroke-linecap="round" stroke-linejoin="round" stroke-width="0.75"/><path d="M366.557,124.3c-8.341.977-5.93,8.406-5.93,8.406" transform="translate(-135.366 -50.293)" fill="none" stroke="#7f8080" stroke-linecap="round" stroke-linejoin="round" stroke-width="0.75"/><path d="M378.6,140.09c6.517-2.15,3.389-7.69,3.389-7.69" transform="translate(-141.74 -53.114)" fill="none" stroke="#7f8080" stroke-linecap="round" stroke-linejoin="round" stroke-width="0.75"/><path d="M375.512,122.8c.782,6.06-6.712,5.93-6.712,5.93" transform="translate(-138.326 -49.77)" fill="none" stroke="#7f8080" stroke-linecap="round" stroke-linejoin="round" stroke-width="0.75"/><path d="M370.356,135.9c4.887,3.649-.456,8.928-.456,8.928" transform="translate(-138.709 -54.334)" fill="none" stroke="#7f8080" stroke-linecap="round" stroke-linejoin="round" stroke-width="0.75"/><path d="M304.057,125.4c-8.341,1.043-5.93,8.406-5.93,8.406" transform="translate(-113.595 -50.676)" fill="none" stroke="#7f8080" stroke-linecap="round" stroke-linejoin="round" stroke-width="0.75"/><path d="M316.1,141.19c6.517-2.15,3.389-7.69,3.389-7.69" transform="translate(-119.968 -53.498)" fill="none" stroke="#7f8080" stroke-linecap="round" stroke-linejoin="round" stroke-width="0.75"/><path d="M312.912,123.9c.782,6.06-6.712,5.93-6.712,5.93" transform="translate(-116.52 -50.153)" fill="none" stroke="#7f8080" stroke-linecap="round" stroke-linejoin="round" stroke-width="0.75"/><path d="M353.848,278.749c-15.249,93.382-1.694,164.934-1.694,164.934s-58.91,29.194-119.9,0C231.988,412.6,217,289.371,217,289.371,292.006,234.762,353.848,278.749,353.848,278.749Z" transform="translate(-85.448 -98.261)" fill="#f5f5f5"/><g transform="translate(230.93 214.309)"><path d="M370.934,351.85h-.2c-.065,0-.065,0-.065-.065l-.521-.847h-.391v.847a.064.064,0,0,1-.065.065h-.13a.064.064,0,0,1-.065-.065v-2.02c0-.065,0-.065.065-.065h.521c.456,0,.847.13.847.652h0a.571.571,0,0,1-.456.586l.456.912h0m-.326-1.564q0-.391-.586-.391H369.7v.782h.326c.391,0,.586-.065.586-.391Z" transform="translate(-369.5 -343.118)" fill="#283646"/><path d="M376.738,351.85h-.586c-.391,0-.652-.13-.652-.521v-1.108c0-.391.2-.521.652-.521h.586v.261h-.586c-.326,0-.391.065-.391.326v.391h.912a.064.064,0,0,1,.065.065v.13a.064.064,0,0,1-.065.065h-.847v.521c0,.2.065.326.391.326h.586v.065h-.065" transform="translate(-371.59 -343.118)" fill="#283646"/><path d="M381.821,351.781a.966.966,0,0,1-.456-.065c-.065,0-.065,0-.065-.065v-.13a.064.064,0,0,1,.065-.065h.456c.326,0,.456-.13.456-.326,0-.13-.065-.2-.326-.391l-.261-.2c-.261-.2-.391-.326-.391-.521,0-.326.261-.521.717-.521a1.27,1.27,0,0,1,.521.065.064.064,0,0,1,.065.065v.13a.064.064,0,0,1-.065.065h-.521c-.326,0-.456.065-.456.261,0,.13.065.2.326.326l.261.13c.326.2.456.391.456.586a.693.693,0,0,1-.782.652" transform="translate(-373.61 -343.049)" fill="#283646"/><path d="M388.338,351.85h-.586c-.391,0-.652-.13-.652-.521v-1.108c0-.391.2-.521.652-.521h.586v.261h-.586c-.326,0-.391.065-.391.326v.391h.912a.064.064,0,0,1,.065.065v.13a.064.064,0,0,1-.065.065h-.912v.521c0,.2.065.326.391.326h.586v.065h0" transform="translate(-375.631 -343.118)" fill="#283646"/><path d="M394.334,351.85h-.2c-.065,0-.065,0-.065-.065l-.521-.847h-.391v.847a.064.064,0,0,1-.065.065h-.13a.064.064,0,0,1-.065-.065v-2.02c0-.065,0-.065.065-.065h.521c.456,0,.847.13.847.652h0a.571.571,0,0,1-.456.586l.456.912h0c.065-.065.065,0,0,0m-.261-1.564q0-.391-.586-.391h-.326v.782h.326c.391,0,.586-.065.586-.391Z" transform="translate(-377.651 -343.118)" fill="#283646"/><path d="M400.294,349.665l-.521,1.89c-.065.2-.2.2-.326.2a.358.358,0,0,1-.326-.2l-.521-1.89h0a.064.064,0,0,1,.065-.065h.2a.064.064,0,0,1,.065.065l.521,1.89c0,.065,0,.065.065.065a.064.064,0,0,0,.065-.065l.521-1.89a.064.064,0,0,1,.065-.065h.2c-.065,0,0,.065-.065.065h0" transform="translate(-379.637 -343.083)" fill="#283646"/><path d="M406.059,351.85h-.2a.064.064,0,0,1-.065-.065l-.2-.652h-.782l-.2.652a.064.064,0,0,1-.065.065h-.2a.064.064,0,0,1-.065-.065h0l.521-1.89c.065-.2.2-.2.326-.2a.358.358,0,0,1,.326.2l.521,1.89.065.065c.065-.065.065,0,0,0m-.717-1.955h0a.09.09,0,0,0-.13,0l-.261.978h.652Z" transform="translate(-381.622 -343.118)" fill="#283646"/><path d="M374.192,344.792h-2.932l-.391.977H369.5l2.541-5.669h1.368l2.541,5.669h-1.368Zm-1.434-3.454-.977,2.281h1.955Z" transform="translate(-369.5 -339.774)" fill="#283646"/><path d="M383.9,341.394a2.069,2.069,0,0,0-1.3-.521,1.6,1.6,0,0,0-1.759,1.825,1.714,1.714,0,0,0,1.759,1.825,2.146,2.146,0,0,0,1.238-.391v-.912h-1.368v-1.043h2.411v2.476A2.5,2.5,0,0,1,382.6,345.7a2.761,2.761,0,0,1-3-3,2.8,2.8,0,0,1,3-3,2.753,2.753,0,0,1,2.085.847Z" transform="translate(-373.018 -339.635)" fill="#283646"/><path d="M394.553,345.569h-1.368l-1.434-1.89h-.912v1.89H389.6V339.9h2.672a1.9,1.9,0,0,1,2.085,1.89,1.657,1.657,0,0,1-1.3,1.759l1.564,1.89Zm-3.714-4.562v1.629h1.434a.848.848,0,0,0,.847-.717v-.065a.808.808,0,0,0-.782-.847h-1.5Z" transform="translate(-376.502 -339.704)" fill="#283646"/><path d="M401.033,339.6a2.932,2.932,0,1,0,2.932,2.932,2.962,2.962,0,0,0-2.932-2.932Zm.652,4.171-1.043-.782c-.065,0-.065-.065-.065-.13v-2.02a.14.14,0,0,1,.13-.13h.586a.14.14,0,0,1,.13.13v1.629l.782.521a.239.239,0,0,1,.065.2h0l-.326.456c-.065.2-.2.2-.261.13" transform="translate(-379.463 -339.6)" fill="#e8521d"/></g><g transform="translate(131.553 163.742)"><g clip-path="url(#b)"><path d="M216.9,322.285l15.7,43.987-1.759,63.667,1.434,29.976s5.474-20.723,15.053-27.109c21.9-14.532,63.015-49.265,63.015-49.265l-68.1,17.921a389.941,389.941,0,0,0-2.607-38.969C236.971,339.1,221.722,314.4,221.722,314.4Z" transform="translate(-216.965 -280.255)" fill="#020203" opacity="0.2"/><path d="M307.2,284.387l6.321-8.472,18.9-2.216,14.467,5.669-4.562,15.184-15.184-10.427L312.8,295.139Z" transform="translate(-248.421 -266.078)" fill="#020203" opacity="0.2"/></g></g><path d="M353.848,278.749c-15.249,93.382-1.694,164.934-1.694,164.934s-64.514,28.673-119.9,0C231.532,395.786,217,289.371,217,289.371,292.006,234.762,353.848,278.749,353.848,278.749Z" transform="translate(-85.448 -98.261)" fill="none" stroke="#777" stroke-linecap="round" stroke-linejoin="round" stroke-width="1"/><path d="M223.1,373.59l3.845,31.67c19.875-1.3,36.623-8.406,48.548-12.381,1.825-.586,7.429-2.085,7.429-2.085l19.224-16.1c1.5-2.932,9.449-3.193,9.449-3.193,15.77-6.842,18.572-16.617,20.592-11.078S317.586,376,317.586,376a20.609,20.609,0,0,1,4.822,2.672c2.476,1.825,2.607,7.885,2.607,7.885s5.669,2.15,4.953,4.757-5.735,2.346-5.735,2.346c-1.434,1.825-5.6,1.3-5.6,1.3-1.5,6.06-8.081,5.8-8.081,5.8-5.148,5.539-14.923,2.085-14.923,2.085-3.128,3.714-9.188,3.193-9.188,3.193-60.734,46.137-81.522,41.445-81.522,41.445-17.269-16.943-15.444-65.948-15.444-65.948C198.984,367.856,223.1,373.59,223.1,373.59Z" transform="translate(-75.838 -131.977)" fill="#868686"/><g transform="translate(113.576 226.817)"><g clip-path="url(#c)"><path d="M229.968,372.343l4.887-1.043,2.346,10.3,2.867,23.59.521,4.431-6.321.261L228.6,377.621Z" transform="translate(-203.065 -363.15)" fill="#020203" opacity="0.2"/><path d="M194.712,440.192l.977,5.6L200.9,459.35l5.6,7.624h3.975l8.537-1.694,10.818-4.757s6.712-2.867,27.174-13.489c1.89-.977,20.2-13.945,21.961-14.858,3.063-1.564,6.256-5.474,8.993-6.647,1.564-.652,2.867-.065,4.236-.586.912-.326,4.171-2.346,5.018-2.607a25.248,25.248,0,0,1,3.845.847c-1.955-.2-1.89-1.3-1.825-3s1.759-2.085,3-1.825c1.238.326,3.063-1.955-1.434-3.454-4.5-1.434-14.532,6.517-14.532,6.517s-27.826,17.595-56.824,24.958-22.417,17.66-22.417,17.66c-7.233-7.1-13.229-26.653-13.229-26.653Z" transform="translate(-190.942 -378.281)" fill="#020203" opacity="0.2"/><path d="M363.9,419.6h4.562l9.905-3.975,8.472-6.973,1.5-9.254s-1.5-.977-2.085-1.3-.977,6.712-.977,6.712c-.782,2.281-5.865,1.368-5.865,1.368-3.128,5.865-7.82,6.126-7.82,6.126-2.216,3-6.256.2-6.06,2.085a3.776,3.776,0,0,1-1.629,3.128Z" transform="translate(-250.196 -372.48)" fill="#020203" opacity="0.2"/><path d="M394.061,370.749s5.278-5.865,3.975-7.689c-1.3-1.89-2.411,2.541-7.429,6.517s-12.707,5.93-12.707,5.93c5.213,2.085,7.364,1.825,7.364,1.825Z" transform="translate(-255.073 -360.123)" fill="#020203" opacity="0.2"/></g></g><path d="M223.1,373.59l3.845,31.67c19.875-1.3,36.623-8.406,48.548-12.381,1.825-.586,7.429-2.085,7.429-2.085l19.224-16.1c1.5-2.932,9.449-3.193,9.449-3.193,15.77-6.842,18.572-16.617,20.592-11.078S317.586,376,317.586,376a20.609,20.609,0,0,1,4.822,2.672c2.476,1.825,2.607,7.885,2.607,7.885s5.669,2.15,4.953,4.757-5.735,2.346-5.735,2.346c-1.434,1.825-5.6,1.3-5.6,1.3-1.5,6.06-8.081,5.8-8.081,5.8-5.148,5.539-14.923,2.085-14.923,2.085-3.128,3.714-9.188,3.193-9.188,3.193-60.734,46.137-81.522,41.445-81.522,41.445-17.269-16.943-15.444-65.948-15.444-65.948C198.984,367.856,223.1,373.59,223.1,373.59Z" transform="translate(-75.838 -131.977)" fill="none" stroke="#263339" stroke-linecap="round" stroke-linejoin="round" stroke-width="1"/><path d="M220.8,436.756c5.669-7.624,8.406-5.865,15.184-6.256" transform="translate(-86.771 -156.956)" fill="none" stroke="#263339" stroke-linecap="round" stroke-linejoin="round" stroke-width="1"/><path d="M381.948,406.423a70.927,70.927,0,0,0-.717-8.276C380.71,395.671,371,391.5,371,391.5" transform="translate(-139.093 -143.37)" fill="none" stroke="#263339" stroke-linecap="round" stroke-linejoin="round" stroke-width="1"/><path d="M371.115,415.184a65.782,65.782,0,0,0,.521-7.168c-.065-2.476-3.128-2.737-5.8-4.757A8.269,8.269,0,0,1,363.1,400" transform="translate(-136.341 -146.331)" fill="none" stroke="#263339" stroke-linecap="round" stroke-linejoin="round" stroke-width="1"/><line y1="7.103" x2="0.782" transform="translate(248.46 254.581)" fill="none" stroke="#263339" stroke-linecap="round" stroke-linejoin="round" stroke-width="1"/><line x2="8.081" y2="2.737" transform="translate(233.732 241.287)" fill="none" stroke="#263339" stroke-linecap="round" stroke-linejoin="round" stroke-width="1"/><path d="M361.322,417.319A19.487,19.487,0,0,1,356.5,413.8" transform="translate(-134.042 -151.138)" fill="none" stroke="#263339" stroke-linecap="round" stroke-linejoin="round" stroke-width="1"/><path d="M413.973,330.549c-1.108,12.772-1.173,23.655-1.173,28.934v.065a1.326,1.326,0,0,0,.391.977,1.306,1.306,0,0,0,1.955,0c18.833-18.377,30.041-14.206,34.407-11.078a1.6,1.6,0,0,0,.782.261,1.253,1.253,0,0,0,1.238-1.3c-1.434-49.461-29.585-60.6-29.585-60.6C417.427,301.029,415.146,316.864,413.973,330.549Z" transform="translate(-153.653 -107.247)" fill="#f5f5f5" stroke="#777" stroke-linecap="round" stroke-linejoin="round" stroke-width="1"/><path d="M414.5,380.963c11.925-13.815,23.785-14.336,30.367-13.1" transform="translate(-154.246 -134.984)" fill="none" stroke="#777" stroke-linecap="round" stroke-linejoin="round" stroke-width="1"/><path d="M464.5,368.8a17.2,17.2,0,0,1,3.063,1.108" transform="translate(-171.663 -135.463)" fill="none" stroke="#263339" stroke-linecap="round" stroke-linejoin="round" stroke-width="1"/><path d="M291.5,253.431l22.026,7.1,15.118-.065,8.732-.652,9.905-12.707c-12.186-1.759-12.512-34.733-12.512-34.733L296.712,209.9c2.541,24.958-6.712,39.36-6.712,39.36Z" transform="translate(-110.877 -80.111)" fill="#868686"/><g transform="translate(179.123 129.789)"><g clip-path="url(#d)"><path d="M302.8,212.7c0,1.238,0,16.682,8.472,25.284,8.863,9.058,22.678,13.359,29.846,13.359,2.15,0,4.627-1.955,7.1-5.018a4.506,4.506,0,0,1-2.607-2.737l-.261-.586-.2-.391a3.378,3.378,0,0,1,2.085-4.236h0c.456-.912,1.3-1.564,1.694-2.476.912-1.825.977-4.04,1.694-6a22.41,22.41,0,0,1,4.822-7.168l-.261.065a48.712,48.712,0,0,1-13.359,1.955,94.642,94.642,0,0,1-12.577-1.89c-4.3-.782-8.6-1.043-12.772-2.02a3.647,3.647,0,0,1-2.737-2.476,74.942,74.942,0,0,1-9.058-2.541C304.038,215.437,303.582,212.961,302.8,212.7Z" transform="translate(-294.459 -210.875)" fill="#263339" stroke="#263339" stroke-linecap="round" stroke-linejoin="round" stroke-width="1"/></g></g><path d="M291.5,253.431l22.026,7.1,15.118-.065,8.732-.652,9.905-12.707c-12.186-1.759-12.512-34.733-12.512-34.733L296.712,209.9c2.541,24.958-6.712,39.36-6.712,39.36Z" transform="translate(-110.877 -80.111)" fill="none" stroke="#263339" stroke-linecap="round" stroke-linejoin="round" stroke-width="1"/><path d="M297.873,180.564l3.128,3c-.782-14.988,1.955-12.056,5.735-15.835s-4.171-19.354,2.867-16.422c7.038,3,38.643-.782,41.25,2.346,2.541,3.193,3.193,28.738,1.368,39.751s-12.642,32.713-19.745,32.713-17.008-2.672-25.936-11.73-8.928-23.134-8.928-23.134c-10.492,7.1-13.685-21.179-8.732-22.352,4.953-1.238,7.168,7.494,7.168,7.494Z" transform="translate(-109.691 -59.572)" fill="#868686" stroke="#263339" stroke-linecap="round" stroke-linejoin="round" stroke-width="1"/><path d="M341.82,197a2.355,2.355,0,0,0-2.02,2.541,2.313,2.313,0,0,0,2.02,2.541,2.355,2.355,0,0,0,2.02-2.541C343.775,198.173,342.928,197,341.82,197Z" transform="translate(-128.224 -75.617)" fill="#263339"/><path d="M373.52,197a2.355,2.355,0,0,0-2.02,2.541,2.313,2.313,0,0,0,2.02,2.541,2.609,2.609,0,0,0,0-5.083Z" transform="translate(-139.267 -75.617)" fill="#263339"/><path d="M341.288,185.429c-9.058-6.191-14.988,0-14.988,0" transform="translate(-123.522 -70.628)" fill="none" stroke="#263339" stroke-linecap="round" stroke-linejoin="round" stroke-width="4"/><path d="M379.557,183.67c-3.193-5.735-10.557,2.02-10.557,2.02" transform="translate(-138.396 -70.238)" fill="none" stroke="#263339" stroke-linecap="round" stroke-linejoin="round" stroke-width="4"/><path d="M357.884,233.747c-7.559,5.083-25.284-.847-25.284-.847C348.3,250.3,357.884,233.747,357.884,233.747Z" transform="translate(-125.716 -88.123)" fill="#fff" stroke="#263339" stroke-linecap="round" stroke-linejoin="round" stroke-width="1"/><path d="M360.7,213.8c2.15,1.108,2.541,2.476,2.346,3.584a1.883,1.883,0,0,1-1.825,1.5,8.84,8.84,0,0,0-1.89.391c-1.3,2.15-5.409,2.541-6.973.847a3.019,3.019,0,0,0-3.193-.521,3.151,3.151,0,0,1-3.389-.912c-1.825-2.281,1.043-4.887,1.043-4.887" transform="translate(-130.094 -81.47)" fill="none" stroke="#263339" stroke-linecap="round" stroke-linejoin="round" stroke-width="1"/><path d="M363.054,204.24a27.84,27.84,0,0,1,.977-9.84" transform="translate(-136.294 -74.712)" fill="none" stroke="#263339" stroke-linecap="round" stroke-linejoin="round" stroke-width="1"/><path d="M358.171,231.631c-3.193-.717-5.148.065-6.126.717a1.738,1.738,0,0,1-1.694.065c-4.562-2.216-12.251-.391-12.251-.391" transform="translate(-127.632 -87.571)" fill="none" stroke="#263339" stroke-linecap="round" stroke-linejoin="round" stroke-width="0.75"/><path d="M281.966,266.731l-4.366,2.411c4.366,14.467,23.72,24.958,23.72,24.958l9.384-12.642,7.429-1.173c-16.357-3.389-28.543-10.035-32.061-13.163A3.433,3.433,0,0,0,281.966,266.731Z" transform="translate(-106.557 -99.733)" fill="#f5f5f5" stroke="#777" stroke-linecap="round" stroke-linejoin="round" stroke-width="1"/><path d="M366.735,264.662l3.649,2.216c-1.3,17.008-15.444,26.522-15.444,26.522l-8.406-12.642-7.233-1.173c16.1-3.258,20.332-10.231,23.264-14.011A3.1,3.1,0,0,1,366.735,264.662Z" transform="translate(-128.05 -99.032)" fill="#f5f5f5" stroke="#777" stroke-linecap="round" stroke-linejoin="round" stroke-width="1"/><path d="M344.806,203.1a10.481,10.481,0,0,1-8.406,0" transform="translate(-127.04 -77.742)" fill="none" stroke="#263339" stroke-linecap="round" stroke-linejoin="round" stroke-width="0.75"/><path d="M376.606,203.1a10.481,10.481,0,0,1-8.406,0" transform="translate(-138.117 -77.742)" fill="none" stroke="#263339" stroke-linecap="round" stroke-linejoin="round" stroke-width="0.75"/><path d="M223.159,357.045v.391a1.2,1.2,0,0,1-1.434.912c-20.527-4.5-29.325,2.672-32.518,6.647a.905.905,0,0,1-.652.326,1,1,0,0,1-1.043-.912C185.3,311.755,206.673,304,206.673,304,218.142,315.925,222.377,349.29,223.159,357.045Z" transform="translate(-75.12 -112.89)" fill="#f5f5f5" stroke="#777" stroke-linecap="round" stroke-linejoin="round" stroke-width="1"/><path d="M238.538,376.726,237.3,376.4" transform="translate(-92.519 -138.11)" fill="none" stroke="#777" stroke-linecap="round" stroke-linejoin="round" stroke-width="1"/><path d="M230.537,375.547A41.685,41.685,0,0,0,222,374.7" transform="translate(-87.189 -137.518)" fill="none" stroke="#777" stroke-linecap="round" stroke-linejoin="round" stroke-width="1"/><path d="M211.493,374.8a31.394,31.394,0,0,0-14.793,4.5" transform="translate(-78.376 -137.553)" fill="none" stroke="#777" stroke-linecap="round" stroke-linejoin="round" stroke-width="1"/><path d="M192.841,383.4a27.087,27.087,0,0,0-2.541,2.085" transform="translate(-76.147 -140.549)" fill="none" stroke="#777" stroke-linecap="round" stroke-linejoin="round" stroke-width="1"/><path d="M394.991,346.351a1.331,1.331,0,0,1-.065-1.3l15.118-42.358a3.006,3.006,0,0,1,2.476-1.89h19.289a1.3,1.3,0,0,1,1.108.521l1.5,1.694a1.331,1.331,0,0,1,.065,1.3L419.3,346.677a3.006,3.006,0,0,1-2.476,1.89H397.532a1.392,1.392,0,0,1-1.108-.521Z" transform="translate(-147.378 -111.776)" fill="#fff" stroke="#777" stroke-linecap="round" stroke-linejoin="round" stroke-width="1"/><path d="M420.12,347.579l15.118-42.358a1.175,1.175,0,0,0,.13-.652A1.255,1.255,0,0,0,434,303.4H414.711a2.8,2.8,0,0,0-2.476,1.89l-15.118,42.358a.9.9,0,0,0-.13.717,1.255,1.255,0,0,0,1.368,1.173h19.289A3.2,3.2,0,0,0,420.12,347.579Z" transform="translate(-148.136 -112.678)" fill="#f8a920" stroke="#777" stroke-linecap="round" stroke-linejoin="round" stroke-width="1"/><path d="M427.658,312.148l1.629-4.562a.9.9,0,0,0,.13-.717,1.255,1.255,0,0,0-1.368-1.173h-4.562a2.8,2.8,0,0,0-2.476,1.89l-1.694,4.562a.9.9,0,0,0-.13.717,1.255,1.255,0,0,0,1.368,1.173h4.562A2.907,2.907,0,0,0,427.658,312.148Z" transform="translate(-155.869 -113.479)" fill="#010202" stroke="#777" stroke-linecap="round" stroke-linejoin="round" stroke-width="1"/><path d="M431.746,308.117a.782.782,0,0,0-.782-.717,1.776,1.776,0,0,0-1.5,1.108.827.827,0,0,0-.065.391.782.782,0,0,0,.782.717,1.776,1.776,0,0,0,1.5-1.108C431.681,308.443,431.746,308.247,431.746,308.117Z" transform="translate(-159.436 -114.075)" fill="#777"/><path d="M424.446,311.117a.782.782,0,0,0-.782-.717,1.776,1.776,0,0,0-1.5,1.108.826.826,0,0,0-.065.391.782.782,0,0,0,.782.717,1.776,1.776,0,0,0,1.5-1.108A.431.431,0,0,0,424.446,311.117Z" transform="translate(-156.893 -115.12)" fill="#777"/><path d="M429.646,314.117a.782.782,0,0,0-.782-.717,1.776,1.776,0,0,0-1.5,1.108.826.826,0,0,0-.065.391.782.782,0,0,0,.782.717,1.776,1.776,0,0,0,1.5-1.108C429.581,314.377,429.646,314.247,429.646,314.117Z" transform="translate(-158.704 -116.165)" fill="#020203"/><path d="M432.671,345.179a50.62,50.62,0,0,0-.521-6.321c-.521-3.584,1.368-8.537-.652-10.883-1.955-2.346-1.825-6.908-4.171-4.953s-.456,6.126-.456,6.126l-4.5-8.146s-6.321-9.123-9.449-6.126c-1.5,1.368.586,4.692,2.346,7.885,2.02,3.649,3.454,5.018,3.91,6.973a31.862,31.862,0,0,1-.065,6.582,1.6,1.6,0,0,1-.717,1.108h-.065a1.206,1.206,0,0,1-1.629-.521,14.132,14.132,0,0,0-2.346-3.78c-1.5-1.564-12.642-14.206-17.008-10.883-2.216,1.694.717,4.366,3.975,8.081,3.128,3.584,5.148,5.539,6.647,7.559a34.949,34.949,0,0,1,2.216,4.04,2.089,2.089,0,0,1-.521,2.476l-.13.13a1.972,1.972,0,0,1-2.476.261c-1.238-.782-3.193-2.085-4.562-3.128-2.281-1.759-8.015-12.381-11.534-10.166s3.584,11.925,6.06,15.249a27.178,27.178,0,0,0,5.213,5.018,1.043,1.043,0,0,1,.326,1.368h0a.064.064,0,0,1-.065.065,1.21,1.21,0,0,1-1.694.521c-1.434-.847-3.91-2.216-5.409-3.323-2.281-1.629-4.105-10.3-6.712-9.319s-1.043,7.1,1.564,11.86,10.948,7.559,10.948,7.559c3.323,5.8,11.665,8.667,11.665,8.667l3.193,27.5c.391,28.282,24.242,29.455,24.242,29.455s8.863-4.692,9.449-18.768-18.507-49.591-18.507-49.591Z" transform="translate(-144.786 -116.468)" fill="#868686"/><path d="M432.671,345.179a50.62,50.62,0,0,0-.521-6.321c-.521-3.584,1.368-8.537-.652-10.883-1.955-2.346-1.825-6.908-4.171-4.953s-.456,6.126-.456,6.126l-4.5-8.146s-6.321-9.123-9.449-6.126c-1.5,1.368.586,4.692,2.346,7.885,2.02,3.649,3.454,5.018,3.91,6.973a31.862,31.862,0,0,1-.065,6.582,1.6,1.6,0,0,1-.717,1.108h-.065a1.206,1.206,0,0,1-1.629-.521,14.132,14.132,0,0,0-2.346-3.78c-1.5-1.564-12.642-14.206-17.008-10.883-2.216,1.694.717,4.366,3.975,8.081,3.128,3.584,5.148,5.539,6.647,7.559a34.949,34.949,0,0,1,2.216,4.04,2.089,2.089,0,0,1-.521,2.476l-.13.13a1.972,1.972,0,0,1-2.476.261c-1.238-.782-3.193-2.085-4.562-3.128-2.281-1.759-8.015-12.381-11.534-10.166s3.584,11.925,6.06,15.249a27.178,27.178,0,0,0,5.213,5.018,1.043,1.043,0,0,1,.326,1.368h0a.064.064,0,0,1-.065.065,1.21,1.21,0,0,1-1.694.521c-1.434-.847-3.91-2.216-5.409-3.323-2.281-1.629-4.105-10.3-6.712-9.319s-1.043,7.1,1.564,11.86,10.948,7.559,10.948,7.559c3.323,5.8,11.665,8.667,11.665,8.667l3.193,27.5c.391,28.282,24.242,29.455,24.242,29.455s8.863-4.692,9.449-18.768-18.507-49.591-18.507-49.591Z" transform="translate(-144.786 -116.468)" fill="none" stroke="#263339" stroke-linecap="round" stroke-linejoin="round" stroke-width="1"/><path d="M452.149,346.941c-1.368-.391-3.649-8.341-3.649-8.341" transform="translate(-166.089 -124.943)" fill="none" stroke="#263339" stroke-linecap="round" stroke-linejoin="round" stroke-width="1"/><path d="M351,499.49c15.053-4.5,22.743-8.993,26.653-11.99" transform="translate(-132.126 -176.811)" fill="none" stroke="#263339" stroke-linecap="round" stroke-linejoin="round" stroke-width="1"/><path d="M394.9,483.65a7.99,7.99,0,0,0,1.694-2.15" transform="translate(-147.418 -174.721)" fill="none" stroke="#263339" stroke-linecap="round" stroke-linejoin="round" stroke-width="1"/><path d="M340.629,293.765l1.173,33.1v.326a7.078,7.078,0,0,1-7.168,7.038h0L333.2,293.7" transform="translate(-125.925 -109.302)" fill="none" stroke="#777" stroke-linecap="round" stroke-linejoin="round" stroke-width="0.75"/><path d="M337.876,295.6a2.476,2.476,0,1,1-2.476,2.476A2.518,2.518,0,0,1,337.876,295.6Z" transform="translate(-126.691 -109.964)" fill="#f8a920" stroke="#263339" stroke-linecap="round" stroke-linejoin="round" stroke-width="0.75"/><ellipse cx="2.476" cy="2.476" rx="2.476" ry="2.476" transform="translate(209.816 212.94)" fill="#f8a920" stroke="#263339" stroke-linecap="round" stroke-linejoin="round" stroke-width="0.75"/><path d="M329.9,233.211a8.363,8.363,0,0,0,2.8-2.411" transform="translate(-124.776 -87.391)" fill="#868686" stroke="#263339" stroke-linecap="round" stroke-linejoin="round" stroke-width="0.75"/><path d="M360.7,240.764c3.128-.13,4.3-1.564,4.3-1.564" transform="translate(-135.505 -90.318)" fill="none" stroke="#263339" stroke-linecap="round" stroke-linejoin="round" stroke-width="0.75"/><path d="M338.886,236.875A33.819,33.819,0,0,1,332.5,232.9" transform="translate(-125.681 -88.123)" fill="#868686" stroke="#263339" stroke-linecap="round" stroke-linejoin="round" stroke-width="0.75"/><path d="M334.2,237.4s3.128,8.406,11.795,9.514,11.469-8.081,11.469-8.081" transform="translate(-126.273 -89.69)" fill="none" stroke="#263339" stroke-linecap="round" stroke-linejoin="round" stroke-width="0.75"/><g transform="translate(265.598 70.097)"><path d="M528.372,148.317H452.258A3.268,3.268,0,0,1,449,145.058h0a3.227,3.227,0,0,1,3.258-3.258H528.5a3.268,3.268,0,0,1,3.258,3.258h0a3.383,3.383,0,0,1-3.389,3.258Z" transform="translate(-431.862 -126.486)" fill="#f8a921"/><path d="M526.156,173.417h-73.9A3.268,3.268,0,0,1,449,170.158h0a3.227,3.227,0,0,1,3.258-3.258h74.028a3.268,3.268,0,0,1,3.258,3.258h0a3.3,3.3,0,0,1-3.389,3.258Z" transform="translate(-431.862 -135.23)" fill="#f8a921"/><path d="M452.158,192h52.067a3.268,3.268,0,0,1,3.258,3.258h0a3.268,3.268,0,0,1-3.258,3.258H452.158a3.268,3.268,0,0,1-3.258-3.258h0A3.227,3.227,0,0,1,452.158,192Z" transform="translate(-431.827 -143.973)" fill="#f8a921"/><path d="M585.3,198.089a10.832,10.832,0,0,0,10.817-10.818V145.5" transform="translate(-479.341 -127.775)" fill="none" stroke="#f8a921" stroke-miterlimit="10" stroke-width="1"/><path d="M535.392,226.2h-41.51l-28.8,28.8V226.2H459.8" transform="translate(-435.624 -155.886)" fill="none" stroke="#f8a921" stroke-miterlimit="10" stroke-width="1"/><path d="M422.8,145.6v41.706a10.832,10.832,0,0,0,10.817,10.817h6.191" transform="translate(-422.735 -127.81)" fill="none" stroke="#f8a921" stroke-miterlimit="10" stroke-width="1"/><path d="M539.477,129.117A10.832,10.832,0,0,0,528.659,118.3H433.518A10.832,10.832,0,0,0,422.7,129.117" transform="translate(-422.7 -118.3)" fill="none" stroke="#f8a921" stroke-miterlimit="10" stroke-width="1"/></g><g transform="translate(94.995 118.385)"><path d="M175.594,207.458a1.669,1.669,0,0,1-1.694-1.629h0a1.613,1.613,0,0,1,1.629-1.629h38.317a1.613,1.613,0,0,1,1.629,1.629h0a1.613,1.613,0,0,1-1.629,1.629Z" transform="translate(-165.428 -196.51)" fill="#f59b1e"/><path d="M177.294,220.058a1.669,1.669,0,0,1-1.694-1.629h0a1.613,1.613,0,0,1,1.629-1.629h37.21a1.613,1.613,0,0,1,1.629,1.629h0a1.613,1.613,0,0,1-1.629,1.629Z" transform="translate(-166.021 -200.9)" fill="#f59b1e"/><path d="M222.155,231.029h0a1.613,1.613,0,0,1-1.629,1.629h-26.2a1.613,1.613,0,0,1-1.629-1.629h0a1.613,1.613,0,0,1,1.629-1.629h26.2A1.613,1.613,0,0,1,222.155,231.029Z" transform="translate(-171.977 -205.289)" fill="#f59b1e"/><path d="M160.9,206.1v20.983a5.4,5.4,0,0,0,5.409,5.409" transform="translate(-160.9 -197.172)" fill="none" stroke="#f59b1e" stroke-miterlimit="10" stroke-width="1"/><path d="M212.057,246.6h-2.672v14.532L194.918,246.6H174" transform="translate(-165.463 -211.28)" fill="none" stroke="#f59b1e" stroke-miterlimit="10" stroke-width="1"/><path d="M237.9,232.492h3.128a5.4,5.4,0,0,0,5.409-5.409V206.1" transform="translate(-187.723 -197.172)" fill="none" stroke="#f59b1e" stroke-miterlimit="10" stroke-width="1"/><path d="M219.614,197.809a5.4,5.4,0,0,0-5.409-5.409h-47.9a5.4,5.4,0,0,0-5.409,5.409" transform="translate(-160.9 -192.4)" fill="none" stroke="#f59b1e" stroke-miterlimit="10" stroke-width="1"/></g><g transform="translate(242.558 197.804)"><g clip-path="url(#e)"><path d="M416.729,381.547a2.649,2.649,0,0,1,1.238.521c.717.521,1.629.912,2.346,1.434a4.493,4.493,0,0,1,1.89,2.476,4.85,4.85,0,0,1,.13,1.694,2.217,2.217,0,0,1,.065.652c0,5.409.977,10.687,1.825,15.966.782,4.887.912,9.644,1.3,14.532a3.977,3.977,0,0,1,.847,2.672c-.065,1.694.782,2.932,1.629,4.366a24.97,24.97,0,0,1,2.476,5.148,39.34,39.34,0,0,0,9.514,7.82c.261.13.521.2.847.326a17.578,17.578,0,0,1,3.193.782l.717.13a3.758,3.758,0,0,1,2.15.912l.977.326.391.2c.391,0,.782.065,1.108.065a12.663,12.663,0,0,0,5.018-3.845l.13-.261h0c.13-.2.326-.456.521-.717.065-.065.065-.065.065-.13a19.316,19.316,0,0,0,1.694-4.171c-24.242,19.289-19.028-52.328-19.875-56.629s3.193-14.858,0-17.2-5.669,1.694-8.667,1.694-4.562,4.171-6.908,7.233a41.506,41.506,0,0,1-7.038,6.908C412.167,376.008,415.425,379.983,416.729,381.547Z" transform="translate(-396.491 -329.461)" fill="#020203" opacity="0.2"/><path d="M403.893,359.431a1.126,1.126,0,0,0-.13,1.564c1.238,1.368,3.584,3.975,4.822,4.5,1.759.782,3.584-3.193,3.584-3.193-1.955-.978-3.714-3.193-4.757-4.627l-.2-.2a1.127,1.127,0,0,0-1.564.2,14.957,14.957,0,0,1-1.759,1.759Z" transform="translate(-392.974 -329.241)" fill="#020203" opacity="0.2"/><path d="M421.391,347.211a.7.7,0,0,0-.065.912,23.91,23.91,0,0,1,2.737,3.975,7.626,7.626,0,0,0,3.584-2.867l-2.02-3.91c-.065-.065-.065-.13-.13-.2a.7.7,0,0,0-.912.065,8.238,8.238,0,0,1-3,1.955A.239.239,0,0,0,421.391,347.211Z" transform="translate(-399.133 -324.971)" fill="#020203" opacity="0.2"/><path d="M437.6,344.124l4.757.261v-5.6c-2.346.912-4.757-2.281-4.757-2.281A16.854,16.854,0,0,1,437.6,344.124Z" transform="translate(-404.851 -322.015)" fill="#020203" opacity="0.2"/><path d="M404.132,380.557l-.456-1.89a1.389,1.389,0,0,0-1.3-1.043A24.958,24.958,0,0,1,395.4,375.8C400.353,380.1,404.132,380.557,404.132,380.557Z" transform="translate(-390.15 -335.705)" fill="#020203" opacity="0.2"/><path d="M450.528,344.093c-.2-2.737,1.694-3.584,0-4.757S447.4,335.1,447.4,335.1C447.987,337.185,450.528,344.093,450.528,344.093Z" transform="translate(-408.264 -321.527)" fill="#020203" opacity="0.2"/></g></g></g></g></g></svg>