<svg xmlns="http://www.w3.org/2000/svg" xmlns:xlink="http://www.w3.org/1999/xlink" width="73.816" height="73.832" viewBox="0 0 73.816 73.832"><defs><clipPath id="a"><rect width="73.816" height="73.832" fill="#80828b"/></clipPath></defs><g clip-path="url(#a)"><g transform="translate(0 -1)"><path d="M408.3,193.579h-6.113v14.186a1.156,1.156,0,0,0,1.153,1.153h14.417l-7.382-14.071a2.431,2.431,0,0,0-2.076-1.268Z" transform="translate(-347.52 -167.265)" fill="#80828b"/><path d="M118.44,219.991h-.807v-8.765H102.64a3.4,3.4,0,0,1-3.46-3.46V193.579h-4.5a1.156,1.156,0,0,0-1.153,1.153v25.374H55.468a1.156,1.156,0,0,0-1.153,1.153v7.5a2.314,2.314,0,0,0,2.307,2.307H57.2a3.926,3.926,0,0,1-.115-1.153,8.65,8.65,0,1,1,17.3,0,3.931,3.931,0,0,1-.115,1.153H97.1a3.926,3.926,0,0,1-.115-1.153,8.65,8.65,0,1,1,17.3,0,3.926,3.926,0,0,1-.115,1.153h4.267a2.314,2.314,0,0,0,2.307-2.307v-6.344a2.341,2.341,0,0,0-2.307-2.422Z" transform="translate(-46.932 -167.266)" fill="#80828b"/><ellipse cx="6.344" cy="6.344" rx="6.344" ry="6.344" transform="translate(52.246 56.185)" fill="#80828b"/><ellipse cx="6.344" cy="6.344" rx="6.344" ry="6.344" transform="translate(12.341 56.185)" fill="#80828b"/><path d="M44.288,172.549V144.984a2.314,2.314,0,0,0-2.307-2.307H2.307A2.314,2.314,0,0,0,0,144.984v26.411A2.314,2.314,0,0,0,2.307,173.7H43.134a1.09,1.09,0,0,0,1.154-1.153ZM9.458,166.436a1.038,1.038,0,1,1-2.076,0V150.059a1.038,1.038,0,1,1,2.076,0Zm9.111,0a1.038,1.038,0,1,1-2.076,0V150.059a1.038,1.038,0,1,1,2.076,0Zm9.227,0a1.038,1.038,0,1,1-2.076,0V150.059a1.038,1.038,0,1,1,2.076,0Zm9.111,0a1.038,1.038,0,1,1-2.076,0V150.059a1.038,1.038,0,1,1,2.076,0Z" transform="translate(0 -123.283)" fill="#80828b"/></g><path d="M57.532,526.2H52.919a1.153,1.153,0,0,0,0,2.307h4.613a1.09,1.09,0,0,0,1.153-1.153,1.24,1.24,0,0,0-1.153-1.153" transform="translate(-44.729 -454.67)" fill="#80828b"/><path d="M154.252,526.2h-4.613a1.153,1.153,0,0,0,0,2.307h4.613a1.09,1.09,0,0,0,1.153-1.153,1.156,1.156,0,0,0-1.153-1.153" transform="translate(-128.302 -454.67)" fill="#80828b"/><path d="M251.832,526.2h-4.613a1.153,1.153,0,0,0,0,2.307h4.613a1.09,1.09,0,0,0,1.153-1.153,1.155,1.155,0,0,0-1.153-1.153" transform="translate(-212.618 -454.67)" fill="#80828b"/><path d="M349.412,526.2H344.8a1.153,1.153,0,0,0,0,2.307h4.613a1.09,1.09,0,0,0,1.153-1.153,1.24,1.24,0,0,0-1.153-1.153" transform="translate(-296.934 -454.67)" fill="#80828b"/><path d="M446.132,526.2h-4.613a1.153,1.153,0,0,0,0,2.307h4.613a1.09,1.09,0,0,0,1.153-1.153,1.156,1.156,0,0,0-1.153-1.153" transform="translate(-380.507 -454.67)" fill="#80828b"/></g></svg>