<svg xmlns="http://www.w3.org/2000/svg" width="343.999" height="259.024" viewBox="0 0 343.999 259.024"><g transform="translate(0 5.268)"><g transform="translate(0 -0.422)"><path d="M191.052,287.2a178.247,178.247,0,0,1-48.318-1.928c-33.183-6.1-66.119-23.572-90.309-48.015A140.193,140.193,0,0,1,23.212,194.9a113.5,113.5,0,0,1-9.676-50.814,77.812,77.812,0,0,1,4.962-24.07A73.107,73.107,0,0,1,30.531,99.182,63.387,63.387,0,0,1,48.642,84.069,57.438,57.438,0,0,1,71.9,77.1c17.491-1.431,34.486,3.856,50.985,8.956,13.335,4.167,27.167,8.459,41.061,9.081,33.68,1.555,56.877-16.109,76.911-35.452A160.217,160.217,0,0,1,256.24,46.44a72.892,72.892,0,0,1,17.243-9.7A42.216,42.216,0,0,1,292.339,34a43.578,43.578,0,0,1,20.1,7.712,74.034,74.034,0,0,1,18.608,18.721A103.129,103.129,0,0,1,343.2,84.38a149.2,149.2,0,0,1,8.187,52.183,137.776,137.776,0,0,1-33.37,86.95,176.451,176.451,0,0,1-35.789,31.347,198.583,198.583,0,0,1-43.48,21.644c-1.861.684-3.783,1.306-5.644,1.928A191.071,191.071,0,0,1,191.052,287.2ZM274.228,38.852c-12.405,4.665-23.57,14.43-31.819,22.453-13.149,12.688-24.066,20.9-35.23,26.62a83.84,83.84,0,0,1-43.356,9.392c-14.2-.684-28.1-4.976-41.619-9.143-16.251-5.038-33.059-10.262-50.116-8.894-30.64,2.488-54.83,30.414-56.381,64.871-3.1,70.841,63.7,127.253,127.4,138.946,28.966,5.287,60.1,2.55,89.192-6.779,32.563-10.449,62.583-29.17,83.982-54.048a135.8,135.8,0,0,0,32.873-85.52c.682-31.907-8.932-73.143-38.021-93.045-11.164-7.65-22.515-9.454-34.734-5.535A10.854,10.854,0,0,0,274.228,38.852Z" transform="translate(-13.431 -33.837)" fill="#efeef2"/><g transform="translate(5.949 8.466)"><path d="M29.315,90.213C41.4,59.993,72.638,38.84,105.053,47.165,135.546,55,156.867,82.5,185.873,94.037c30.37,12.088,57.145,4.687,85.1-8.079,24.11-11.039,52.744-19.674,72.02,6.229,20.887,28.061,16.982,70.183,5.64,100.588a135.291,135.291,0,0,1-59.438,69.937c-53.922,30.96-128.916,31.823-184.511.493C47.165,230.888,2.974,156.079,29.315,90.213Z" transform="translate(-21.514 -45.34)" fill="#efeef2"/></g></g><g transform="translate(10.486 -5.268)"><path d="M142.42,99.358c.442-3.386-4.343-6.183-7.875-6.477-1.693-.147-3.459.147-5.152-.442-3.533-1.251-4.931-5.741-8.391-7.213-2.576-1.1-5.52-.147-8.023,1.1s-4.931,2.8-7.728,3.018c-2.429.147-5.079-.736-7.139.442-1.546.883-2.429,2.723-3.827,3.754a9.855,9.855,0,0,1-5,1.4,13.942,13.942,0,0,0-5.226.883c-1.619.736-2.944,2.429-2.576,4.2Z" transform="translate(-81.416 -84.741)" fill="#65676e"/></g><g transform="translate(42.621 0.979)"><path d="M266.9,119.851c.883-6.183-7.875-11.261-14.426-11.776-3.165-.221-6.4.221-9.347-.81-6.4-2.208-8.979-10.525-15.236-13.175-4.711-1.987-10.084-.221-14.647,2.061s-9.053,5.152-14.132,5.52c-4.416.294-9.2-1.325-13.1.81-2.87,1.619-4.416,4.931-7.066,6.919-2.576,1.914-5.962,2.355-9.2,2.5s-6.551.221-9.495,1.546-5.373,4.416-4.784,7.581Z" transform="translate(-155.38 -93.228)" fill="#65676e"/></g><g transform="translate(1.596 47.368)"><g transform="translate(39.507 109.316)"><rect width="261.435" height="26.129" transform="translate(261.435 26.129) rotate(180)" fill="#d67b0f"/><g opacity="0.4"><rect width="261.435" height="26.129" transform="translate(261.435 26.129) rotate(180)" fill="#d67b0f"/></g></g><g transform="translate(128.608 138.74)"><path d="M235.433,374.815h70.143a3.534,3.534,0,0,0,3.533-3.533V354.133a3.534,3.534,0,0,0-3.533-3.533H235.433a3.534,3.534,0,0,0-3.533,3.533v17.149A3.582,3.582,0,0,0,235.433,374.815Z" transform="translate(-231.9 -350.6)" fill="#53555f"/></g><g transform="translate(20.903 127.7)"><path d="M313.458,339.206v24.951c0,1.914-1.84,3.533-4.122,3.533H284.679a4.348,4.348,0,0,1-3.386-1.546l-9.936-12.292a4.347,4.347,0,0,0-3.386-1.546H48.122c-2.282,0-4.122-1.546-4.122-3.533v-9.642c0-1.914,1.84-3.533,4.122-3.533H309.336C311.618,335.747,313.458,337.293,313.458,339.206Z" transform="translate(-44 -335.6)" fill="#31343e"/></g><g transform="translate(226.539 24.726)"><path d="M411.455,197.538a1.919,1.919,0,0,1,2.061-1.84c10.378.442,59.839,2.723,70,7.581,7.8,3.754,16.34,17.738,22.3,27.159,4.343,6.771,13.837,21.713,15.751,29.367,1.619,6.477,2.576,19.946,2.5,26.644l-2.723,35.329H476.52l-4.49-11.7a19.785,19.785,0,0,0-18.4-12.66H409.1V238.756Z" transform="translate(-409.1 -195.694)" fill="#efab1e"/></g><g transform="translate(306.25 36.212)"><path d="M517.4,211.3c6.183,5.888,12.365,15.9,17,23.185,3.975,6.256,12.439,19.578,15.236,27.527.073.147.073.294.147.442-1.4-.368-3.459-1.178-4.122-2.429-.957-1.987-2.208-8.685-17.812-34C523.067,218.292,518.43,213.8,517.4,211.3Z" transform="translate(-517.4 -211.3)" fill="#31343e"/></g><g transform="translate(246.044 33.556)"><path d="M441.488,207.7c11.482.662,36.286,2.355,44.235,5.079,10.3,3.533,21.933,30.913,22.522,32.091l7.8,20.02a.868.868,0,0,1-.81,1.178H495a7.306,7.306,0,0,1-2.208-.368l-53.214-19.873a6.045,6.045,0,0,1-3.974-5.741V213.292A5.571,5.571,0,0,1,441.488,207.7Z" transform="translate(-435.6 -207.692)" fill="#31343e"/><g transform="translate(1.914 1.993)"><path d="M514.452,264.792s-7.507-16.781-10.01-22.3c-3.827-8.317-12.66-25.319-18.7-27.159-5.52-1.619-21.345-3.68-43.72-4.931h-.221a3.612,3.612,0,0,0-3.607,3.606v27.38a3.284,3.284,0,0,0,2.134,3.091l39.3,4.858a10.794,10.794,0,0,1,7.8,4.858l6.771,10.378a3.438,3.438,0,0,0,1.251.221Z" transform="translate(-438.2 -210.4)" fill="#455a64"/></g><g transform="translate(44.75 6.115)"><path d="M496.4,251.108l13.4,14.868-7.36-49.387L500.522,216l3.607,36.58a1.081,1.081,0,0,1-1.472,1.1Z" transform="translate(-496.4 -216)" fill="#31343e"/></g></g><g transform="translate(333.251 117.024)"><path d="M563.223,322.939c.074-.662-.147-1.178-.515-1.178l-7.139-.662c-.589-.074-1.1,1.03-1.178,2.355l-.294,5.52c-.074.883.221,1.619.589,1.693l7.287,1.251c.294.074.662-.442.662-1.1Z" transform="translate(-554.085 -321.095)" fill="#ebebeb"/></g><g transform="translate(290.794 144.481)"><path d="M496.4,379.082h48.062A3.534,3.534,0,0,0,548,375.549V361.933a3.534,3.534,0,0,0-3.533-3.533H496.4v20.682Z" transform="translate(-496.4 -358.4)" fill="#31343e"/></g><g transform="translate(228.24 129.321)"><g transform="translate(0 0)"><g transform="translate(0)"><circle cx="28.19" cy="28.19" r="28.19" transform="translate(0 56.34) rotate(-87.798)" fill="#31343e"/></g></g><g transform="translate(0.949 28.776)"><path d="M469.153,376.9h0a28.23,28.23,0,1,1-56.453.883v-.074Z" transform="translate(-412.7 -376.9)" fill="#263239"/></g><g transform="translate(9.411 9.488)"><path d="M463.8,370.2A19.8,19.8,0,1,1,443.7,350.7,19.808,19.808,0,0,1,463.8,370.2Z" transform="translate(-424.198 -350.694)" fill="#fbfbfb"/></g><g transform="translate(17.141 17.146)"><path d="M458.841,373.023A12.072,12.072,0,1,1,446.623,361.1,12.032,12.032,0,0,1,458.841,373.023Z" transform="translate(-434.699 -361.099)" fill="#31343e"/></g></g><g transform="translate(307.501 51.448)"><path d="M523.663,260.116h2.576a4.586,4.586,0,0,0,4.563-4.563V236.563A4.586,4.586,0,0,0,526.239,232h-2.576a4.586,4.586,0,0,0-4.563,4.563v18.989A4.586,4.586,0,0,0,523.663,260.116Z" transform="translate(-519.1 -232)" fill="#263239"/><g transform="translate(10.378 10.451)"><path d="M539.383,281.235h.589V251.573A5.4,5.4,0,0,0,534.6,246.2h-1.4v.589h1.4a4.775,4.775,0,0,1,4.784,4.784Z" transform="translate(-533.2 -246.2)" fill="#263239"/></g><g transform="translate(10.599 14.058)"><path d="M535.414,282.528l1.619-27.748a3.521,3.521,0,0,0-3.533-3.68v.589a2.948,2.948,0,0,1,2.134.883,2.88,2.88,0,0,1,.81,2.134l-1.619,27.748Z" transform="translate(-533.5 -251.1)" fill="#263239"/></g><g transform="translate(10.644 42.763)"><rect width="7.949" height="9.2" transform="translate(7.949 9.2) rotate(180)" fill="#31343e"/></g><g transform="translate(13.616 25.393)"><rect width="3.238" height="0.589" fill="#263239"/></g></g><g transform="translate(238.978 29.191)"><path d="M481.2,206.942a6,6,0,0,1-.736-.074c-.442-.074-1.178-.147-2.061-.221-1.84-.221-4.49-.515-8.023-.957-6.992-.81-17.149-1.914-29.809-3.386-1.619-.147-3.239-.368-4.858-.515a10.3,10.3,0,0,0-2.576.147,9.82,9.82,0,0,0-2.429.957,9.226,9.226,0,0,0-3.68,3.827,8.041,8.041,0,0,0-.883,2.65c-.074.442-.074.957-.147,1.4v83.1h31.06a31.935,31.935,0,0,1,5.3.221,23.554,23.554,0,0,1,5.079,1.4,20.992,20.992,0,0,1,11.188,11.556,19.67,19.67,0,0,1,.662,1.914,19.238,19.238,0,0,1,.442,1.987l.147,1.03.074.515V313l.074,1.03v.589c-.147-.147.147.221.147.147H519.4v-46.3a17.906,17.906,0,0,0-.221-2.8,27.529,27.529,0,0,0-3.312-10.157c-1.619-3.018-3.165-5.962-4.711-8.832-3.018-5.667-5.815-10.893-8.317-15.6s-4.784-8.979-6.771-12.66c-.515-.957-.957-1.84-1.4-2.65-.221-.442-.442-.883-.662-1.251a6.091,6.091,0,0,0-.81-1.1,16.333,16.333,0,0,0-3.533-3.312,18.954,18.954,0,0,0-6.109-2.65,14.414,14.414,0,0,0-2.355-.515,3.335,3.335,0,0,1,.589.074c.368.074.957.147,1.693.294a17.069,17.069,0,0,1,6.035,2.723,16.334,16.334,0,0,1,3.533,3.312c.294.368.515.736.81,1.1.221.368.442.81.662,1.251.442.883.957,1.766,1.4,2.65,1.987,3.68,4.2,7.949,6.771,12.733,2.5,4.711,5.3,10.01,8.317,15.677,1.472,2.87,3.091,5.815,4.711,8.832a27.162,27.162,0,0,1,3.312,10.083c.074.883.147,1.84.221,2.723v46.149l.147-.147H480.318c-.074,0,.294.294.147.147v-.589l-.074-1.03v-.515l-.074-.515-.147-1.03a19.253,19.253,0,0,0-.442-1.987c-.147-.662-.442-1.325-.662-1.987a21.045,21.045,0,0,0-11.335-11.7,21.6,21.6,0,0,0-5.152-1.472,31.937,31.937,0,0,0-5.3-.221H426.368l.147.147V212.094a11.689,11.689,0,0,1,.147-2.8,10.488,10.488,0,0,1,.81-2.576,8.89,8.89,0,0,1,3.607-3.754,6.87,6.87,0,0,1,2.429-.883,9.544,9.544,0,0,1,2.5-.147c1.693.147,3.312.368,4.858.515,12.733,1.4,22.89,2.5,29.809,3.312,3.459.368,6.183.662,8.023.883.883.074,1.619.147,2.061.221A1.575,1.575,0,0,0,481.2,206.942Z" transform="translate(-426 -201.761)" fill="#263239"/></g><g transform="translate(257.892 91.856)"><g transform="translate(0 0.883)"><path d="M437.565,294.8a2.059,2.059,0,0,1-.442-.074,2.6,2.6,0,0,1-1.178-.515,3.274,3.274,0,0,1-1.251-1.619,3.442,3.442,0,0,1-.147-1.251,3.3,3.3,0,0,1,.368-1.4,3.035,3.035,0,0,1,2.65-1.619h12.807a3.038,3.038,0,0,1,3.018,2.723,3.347,3.347,0,0,1-.368,2.061,3.635,3.635,0,0,1-1.472,1.325,4.167,4.167,0,0,1-1.914.221h-5.3c-2.061,0-3.68,0-4.931.074H438.08a3.075,3.075,0,0,1-.515.074h1.767c1.178,0,2.87,0,4.931.074h6.33a2.6,2.6,0,0,0,1.03-.221,3.328,3.328,0,0,0,1.619-1.4,3.861,3.861,0,0,0,.442-2.208,3.1,3.1,0,0,0-1.03-2.061,3.469,3.469,0,0,0-2.208-.883H437.638a3.276,3.276,0,0,0-3.238,3.238,3.849,3.849,0,0,0,.221,1.325,3,3,0,0,0,1.325,1.619,2.83,2.83,0,0,0,1.251.442A1.288,1.288,0,0,0,437.565,294.8Z" transform="translate(-434.4 -288.1)" fill="#263239"/></g><g transform="translate(4.269)"><path d="M440.2,287.047a87.689,87.689,0,0,0,10.157,0,87.653,87.653,0,0,0-10.157,0Z" transform="translate(-440.2 -286.9)" fill="#fff"/></g></g><g transform="translate(226.613 123.772)"><path d="M473.381,371.655h0a2.4,2.4,0,0,0,2.208-2.576c-1.251-15.457-2.944-24.8-5.3-28.484-4.784-7.507-9.495-8.832-14.72-9.716A69.137,69.137,0,0,0,441,330.438l-1.178.074c-7.875.294-22.522.147-28.263.074a2.31,2.31,0,0,0-2.355,2.282h0a2.436,2.436,0,0,0,2.355,2.429c5.741.074,20.535.221,28.484-.074l1.178-.074c4.49-.147,9.2-.368,13.543.368,4.71.81,7.8,1.693,11.555,7.581,1.1,1.693,3.091,7.434,4.637,26.35A2.222,2.222,0,0,0,473.381,371.655Z" transform="translate(-409.2 -330.264)" fill="#263239"/></g><g transform="translate(2.282 1.766)"><path d="M23.926,290.433H298.315a5.246,5.246,0,0,0,5.226-5.226V169.726a5.246,5.246,0,0,0-5.226-5.226H23.926a5.246,5.246,0,0,0-5.226,5.226V285.134A5.262,5.262,0,0,0,23.926,290.433Z" transform="translate(-18.7 -164.5)" fill="#efab1e"/></g><g transform="translate(267.357 46.369)"><path d="M450.6,225.1a.911.911,0,0,0,.221.147,2.57,2.57,0,0,0,.662.442c.589.368,1.4.957,2.429,1.693,2.061,1.4,4.931,3.312,8.1,5.3,3.165,2.061,6.109,3.827,8.243,5.152,1.03.662,1.914,1.178,2.5,1.472.294.147.515.294.662.368a.91.91,0,0,1,.221.147.911.911,0,0,0-.221-.147,2.569,2.569,0,0,0-.662-.442c-.589-.368-1.472-.957-2.5-1.619-2.134-1.325-5-3.165-8.17-5.226s-6.035-3.9-8.17-5.226c-1.03-.662-1.84-1.178-2.5-1.619a2.568,2.568,0,0,1-.662-.442Z" transform="translate(-450.6 -225.1)" fill="#fbfbfb"/></g><g transform="translate(267.168 49.019)"><path d="M464.3,228.7a.911.911,0,0,0,.221.147,2.567,2.567,0,0,0,.662.442c.589.368,1.4.957,2.429,1.693,2.061,1.4,4.931,3.312,8.1,5.3,3.165,2.061,6.109,3.827,8.243,5.152,1.03.662,1.914,1.178,2.5,1.472.294.147.515.294.662.368a.912.912,0,0,1,.221.147.91.91,0,0,0-.221-.147,2.57,2.57,0,0,0-.662-.442c-.589-.368-1.472-.957-2.5-1.619-2.134-1.325-5-3.165-8.17-5.226s-6.035-3.9-8.17-5.226c-1.03-.662-1.84-1.178-2.5-1.619a2.566,2.566,0,0,1-.662-.442A.1.1,0,0,1,464.3,228.7Z" transform="translate(-464.3 -228.7)" fill="#fbfbfb"/></g><g transform="translate(315.518 52.92)"><path d="M531.175,247.248a2.3,2.3,0,0,0,.147-.515c.074-.368.221-.81.368-1.472a17.861,17.861,0,0,0,.589-4.858,10.67,10.67,0,0,0-1.1-4.784,7.409,7.409,0,0,0-.81-1.251A1.274,1.274,0,0,0,530,234a12.655,12.655,0,0,1,1.03,1.766,11.46,11.46,0,0,1,1.03,4.711,27.286,27.286,0,0,1-.515,4.858A6.685,6.685,0,0,0,531.175,247.248Z" transform="translate(-529.991 -234)" fill="#fbfbfb"/></g><g transform="translate(339.298 91.267)"><path d="M563.625,302.734v-2.429c-.074-1.546-.147-3.607-.368-5.888-.147-2.282-.368-4.416-.589-5.888q-.11-1.1-.221-1.766a4.839,4.839,0,0,0-.147-.662v.662c.074.515.074,1.1.147,1.766.147,1.546.294,3.607.515,5.888.147,2.282.294,4.343.442,5.888.074.736.074,1.325.147,1.766A4.543,4.543,0,0,1,563.625,302.734Z" transform="translate(-562.3 -286.1)" fill="#fbfbfb"/></g><g transform="translate(276.147 119.309)"><path d="M476.5,324.2c0,.074,1.1.221,2.871.81a18.916,18.916,0,0,1,3.018,1.251,21.329,21.329,0,0,1,6.33,4.711,26.1,26.1,0,0,1,2.061,2.5c1.1,1.546,1.546,2.576,1.619,2.5a4.013,4.013,0,0,0-.294-.736c-.147-.221-.221-.515-.442-.81s-.368-.662-.662-1.1a15.01,15.01,0,0,0-2.061-2.576,21.563,21.563,0,0,0-3.018-2.65,25.107,25.107,0,0,0-3.459-2.061,16.37,16.37,0,0,0-3.091-1.178,10.036,10.036,0,0,0-1.251-.294,5.064,5.064,0,0,0-.957-.147A1.419,1.419,0,0,0,476.5,324.2Z" transform="translate(-476.5 -324.2)" fill="#fbfbfb"/></g><g transform="translate(32.974)"><path d="M62.461,292.376H61.136a.738.738,0,0,1-.736-.736v-128.8a.738.738,0,0,1,.736-.736h1.325a.738.738,0,0,1,.736.736v128.8A.792.792,0,0,1,62.461,292.376Z" transform="translate(-60.4 -162.1)" fill="#31343e"/><path d="M122.861,292.376h-1.325a.738.738,0,0,1-.736-.736v-128.8a.738.738,0,0,1,.736-.736h1.325a.738.738,0,0,1,.736.736v128.8A.693.693,0,0,1,122.861,292.376Z" transform="translate(-76.344 -162.1)" fill="#31343e"/><path d="M183.361,292.376h-1.325a.738.738,0,0,1-.736-.736v-128.8a.738.738,0,0,1,.736-.736h1.325a.738.738,0,0,1,.736.736v128.8A.792.792,0,0,1,183.361,292.376Z" transform="translate(-92.315 -162.1)" fill="#31343e"/><path d="M243.761,292.376h-1.325a.738.738,0,0,1-.736-.736v-128.8a.738.738,0,0,1,.736-.736h1.325a.738.738,0,0,1,.736.736v128.8A.693.693,0,0,1,243.761,292.376Z" transform="translate(-108.259 -162.1)" fill="#31343e"/><path d="M304.261,292.376h-1.325a.738.738,0,0,1-.736-.736v-128.8a.738.738,0,0,1,.736-.736h1.325a.738.738,0,0,1,.736.736v128.8A.738.738,0,0,1,304.261,292.376Z" transform="translate(-124.23 -162.1)" fill="#31343e"/><path d="M364.661,292.376h-1.325a.738.738,0,0,1-.736-.736v-128.8a.738.738,0,0,1,.736-.736h1.325a.738.738,0,0,1,.736.736v128.8A.693.693,0,0,1,364.661,292.376Z" transform="translate(-140.174 -162.1)" fill="#31343e"/></g><g transform="translate(0 24.951)"><path d="M15.6,294.714v-.957a.974.974,0,0,1,.957-.957H301.765a.974.974,0,0,1,.957.957v.957a.974.974,0,0,1-.957.957H16.483A.913.913,0,0,1,15.6,294.714Z" transform="translate(-15.6 -221.553)" fill="#31343e"/><path d="M15.6,246.314v-.957a.974.974,0,0,1,.957-.957H301.765a.974.974,0,0,1,.957.957v.957a.974.974,0,0,1-.957.957H16.483A.913.913,0,0,1,15.6,246.314Z" transform="translate(-15.6 -208.777)" fill="#31343e"/><path d="M15.6,197.914v-.957a.974.974,0,0,1,.957-.957H301.765a.974.974,0,0,1,.957.957v.957a.974.974,0,0,1-.957.957H16.483A.913.913,0,0,1,15.6,197.914Z" transform="translate(-15.6 -196)" fill="#31343e"/></g><g transform="translate(41.291 126.301)"><g transform="translate(8.027 2.967)"><g transform="translate(0 0)"><g transform="translate(0)"><circle cx="28.19" cy="28.19" r="28.19" transform="matrix(0.04, -0.999, 0.999, 0.04, 0, 56.334)" fill="#31343e"/></g></g><g transform="translate(1.026 28.829)"><path d="M140.453,376.9h0A28.23,28.23,0,1,1,84,377.783v-.074Z" transform="translate(-84 -376.9)" fill="#31343e"/></g><g transform="translate(9.489 9.541)"><path d="M135.1,370.2A19.8,19.8,0,1,1,115,350.7,19.808,19.808,0,0,1,135.1,370.2Z" transform="translate(-95.497 -350.694)" fill="#fbfbfb"/></g><g transform="translate(17.218 17.199)"><path d="M130.141,373.023A12.072,12.072,0,1,1,117.923,361.1,12.174,12.174,0,0,1,130.141,373.023Z" transform="translate(-105.999 -361.099)" fill="#31343e"/></g></g><path d="M143.83,373.887a2.557,2.557,0,0,0,2.355-2.5c.147-8.538-1.84-37.684-37.316-37.684C74.5,333.7,71.7,361.448,71.7,370.943a2.482,2.482,0,0,0,2.5,2.5h.957a2.482,2.482,0,0,0,2.5-2.5c.074-7.8,2.65-31.428,31.134-31.428,28.337,0,31.06,23.921,31.207,31.943a2.537,2.537,0,0,0,2.723,2.5C143.168,373.96,143.462,373.887,143.83,373.887Z" transform="translate(-71.7 -333.7)" fill="#53555f"/></g></g></g></svg>