<svg xmlns="http://www.w3.org/2000/svg" width="470.057" height="371.788" viewBox="0 0 470.057 371.788"><g transform="translate(-8.1 -45.716)"><g transform="translate(40.082 45.716)"><g transform="translate(6.681)"><path d="M161.705,372.867c-2.152-1.506-4.232-3.013-6.312-4.591a261.944,261.944,0,0,1-45.836-43.612,226.6,226.6,0,0,1-32.494-52.65,178.016,178.016,0,0,1-8.177-120.722c6.384-22.38,17.144-44.329,30.2-61.616a130.676,130.676,0,0,1,24.388-25.034,95.065,95.065,0,0,1,30.414-16.068c9.827-3.013,19.224-3.658,27.975-1.865a54.65,54.65,0,0,1,22.452,10.616,94.676,94.676,0,0,1,17.717,18.65A211.89,211.89,0,0,1,236.09,98.283c17.5,31.7,39.6,62.549,82.131,73.6,17.5,4.591,36.367,4.519,54.587,4.519,22.452,0,45.692,0,66.853,8.464a75.344,75.344,0,0,1,26.253,17.646A82.014,82.014,0,0,1,482.7,228.259a94.51,94.51,0,0,1,6.958,30.485,100.852,100.852,0,0,1-3.084,31.777,148.128,148.128,0,0,1-31.561,59.393c-14.131,16.355-31.848,30.2-52.65,41.317-39.452,21.017-87.152,30.055-130.836,24.819a229.507,229.507,0,0,1-60.9-16.211A269.633,269.633,0,0,1,161.705,372.867ZM200.081,57.684c-13.629-9.54-28.477-11.692-45.334-6.456C110.92,64.785,83.089,112.2,71.684,152.081a176.378,176.378,0,0,0,8.034,118.786c17.144,39.093,47.27,73.882,83.781,99.418,32.637,22.81,70.3,38.232,108.385,42.823,83.709,10.042,188.579-34.287,211.892-123.376,11.333-43.4-8.106-87.3-45.19-102.216-20.658-8.321-43.612-8.321-65.777-8.249-18.363,0-37.372,0-55.3-4.662A109.619,109.619,0,0,1,267.149,146.2c-11.692-11.405-22.021-25.823-33.57-46.625-7.245-13.127-17.359-29.553-30.988-40.1C201.731,58.831,200.942,58.257,200.081,57.684Z" transform="translate(-62 -45.716)" fill="#efeef2"/></g><g transform="translate(0 38.537)"><path d="M490.323,228.957c-3.3-42.464-34.072-80.984-77.612-83.064-40.958-1.937-78.258,24.245-118.786,27.544-42.536,3.443-72.95-16.139-102.861-42.967-25.751-23.1-58.1-44.9-92.1-19.941-36.869,27.114-48.346,81.342-45.979,123.735A177.168,177.168,0,0,0,99.895,344.73c55.089,59.536,148.2,89.52,229.609,71.73C413.644,398.169,497.568,321.632,490.323,228.957Z" transform="translate(-52.686 -99.441)" fill="#efeef2"/></g></g><g transform="translate(143.957 137.304)"><path d="M350,389.237H202.593a5.112,5.112,0,0,1-5.093-5.093V178.493a5.112,5.112,0,0,1,5.093-5.093H350.071a5.112,5.112,0,0,1,5.093,5.093V384.144A5.222,5.222,0,0,1,350,389.237Z" transform="translate(-197.5 -173.4)" fill="#31343e"/></g><path d="M603.807,157.892s-.143.646-.359,1.722a8.736,8.736,0,0,0-2.3-2.008h0s-4.591-4.16-6.169-8.679a22.87,22.87,0,0,1-1.076-6.958c0-.143.287-1.722.5-3.013a1.958,1.958,0,0,0-1.578-2.3,6.513,6.513,0,0,0-7.245,4.806c-1.722,6.025-.287,10.114-.215,11.907v.861c-1.722-.287-3.084-.574-3.084-.5h0l-11.477-2.152a4.007,4.007,0,0,0-4.878,2.941c-1.076,3.873,3.3,4.949,3.3,4.949s-2.08,0-2.439,3.515,3.371,4.447,3.371,4.447-2.3-.072-2.726,3.084c-.43,3.084,3.515,4.734,3.586,4.734-.574-.072-.932-.143-.932-.143s.287.072.717.143c-1.793.287-1.937,2.367-1.937,2.367-.932,4.3,2.367,5.093,2.367,5.093l20.945,3.873a12.319,12.319,0,0,0,6.241-.5c-.143.861-.215,1.435-.215,1.435l14.633,2.726s1.291-6.671,2.8-14.848,2.726-14.848,2.654-14.848Z" transform="translate(-157.649 -25.68)" fill="#31343e"/><path d="M529.82,443.607s.215.574.574,1.65a7.209,7.209,0,0,0-3.013-.5h0s-6.1-1.219-9.755-4.232a23.445,23.445,0,0,1-4.519-5.452c-.072-.143-.646-1.65-1.148-2.869a1.967,1.967,0,0,0-2.511-1.148,6.5,6.5,0,0,0-3.73,7.819c1.578,6.025,4.949,8.823,5.954,10.329a2.685,2.685,0,0,1,.43.717c-1.65.646-2.941,1.148-2.941,1.148h0l-10.9,4.089a4.06,4.06,0,0,0-2.726,5.021c1.076,3.945,5.38,2.582,5.38,2.582s-1.793,1.076-.287,4.3c1.435,3.228,5.236,2.08,5.236,2.08s-2.008,1.148-.789,4.089c1.219,2.869,5.451,2.3,5.523,2.224-.5.215-.861.359-.861.359s.287-.072.717-.215c-1.363,1.148-.43,3.013-.43,3.013,1.435,4.16,4.662,3.084,4.662,3.084l19.941-7.388a11.77,11.77,0,0,0,5.093-3.658,6.578,6.578,0,0,0,.5,1.291l13.916-5.165s-2.3-6.384-5.165-14.2-5.308-14.131-5.308-14.131Z" transform="translate(-137.747 -108.901)" fill="#31343e"/><g transform="translate(150.754 127.692)"><g transform="translate(0.305 0.215)"><path d="M359.9,376.065H212.493a5.112,5.112,0,0,1-5.093-5.093V165.393a5.112,5.112,0,0,1,5.093-5.093H359.9a5.112,5.112,0,0,1,5.093,5.093V371.044A5.051,5.051,0,0,1,359.9,376.065Z" transform="translate(-207.4 -160.3)" fill="#fff" stroke="#31343e" stroke-miterlimit="10" stroke-width="1"/></g><path d="M359.779,375.98a7.44,7.44,0,0,0,1.865-.359,4.424,4.424,0,0,0,1.865-1.363,4.863,4.863,0,0,0,1.291-2.869c.072-4.878,0-12.194,0-21.519,0-18.65,0-45.692-.072-79.119V165.81a5.1,5.1,0,0,0-1.148-3.658,5,5,0,0,0-3.443-1.722H212.444a4.854,4.854,0,0,0-4.806,4.089,12.864,12.864,0,0,0-.072,2.367V371.031a5.026,5.026,0,0,0,1.219,3.228,4.882,4.882,0,0,0,2.941,1.65,13.818,13.818,0,0,0,1.722.072h38.376c33.355,0,60.4.072,79.119.072h27.114c1.076-.072,1.722-.072,1.722-.072H330.728c-18.65,0-45.692,0-79.119.072H213.233a15.6,15.6,0,0,1-1.793-.072,5.212,5.212,0,0,1-4.447-5.093V166.743a13.062,13.062,0,0,1,.072-2.367,5.09,5.09,0,0,1,.932-2.224A5.168,5.168,0,0,1,212.229,160H359.994a5.081,5.081,0,0,1,3.658,1.865,5.461,5.461,0,0,1,1.219,3.873V270.68c0,33.355-.072,60.4-.072,79.119,0,9.325,0,16.57-.072,21.519a5.3,5.3,0,0,1-1.291,2.941,4.793,4.793,0,0,1-1.937,1.291,9.811,9.811,0,0,1-1.363.359A1.255,1.255,0,0,1,359.779,375.98Z" transform="translate(-206.975 -160)" fill="#fff" stroke="#31343e" stroke-miterlimit="10" stroke-width="1"/></g><g transform="translate(175.447 186.583)"><g transform="translate(30.055 5.523)"><path d="M358.9,259.125H286.456a3.184,3.184,0,0,1-3.156-3.156v-3.013a3.184,3.184,0,0,1,3.156-3.156H358.9a3.184,3.184,0,0,1,3.156,3.156v3.013A3.184,3.184,0,0,1,358.9,259.125Z" transform="translate(-283.3 -249.8)" fill="#e0e0e0"/></g><path d="M259.261,263.619h-14.2a3.674,3.674,0,0,1-3.658-3.658v-14.2a3.674,3.674,0,0,1,3.658-3.658h14.2a3.674,3.674,0,0,1,3.658,3.658v14.2A3.584,3.584,0,0,1,259.261,263.619Z" transform="translate(-241.4 -242.1)" fill="#31343e"/><g transform="translate(3.3 5.595)"><path d="M246,255.352l2.224-2.152,4.16,3.73,7.03-7.03,2.008,2.152L252.1,261.09Z" transform="translate(-246 -249.9)" fill="#fff"/></g></g><g transform="translate(175.447 220.081)"><g transform="translate(30.055 5.523)"><path d="M358.9,305.825H286.456a3.184,3.184,0,0,1-3.156-3.156v-3.013a3.184,3.184,0,0,1,3.156-3.156H358.9a3.184,3.184,0,0,1,3.156,3.156v3.013A3.184,3.184,0,0,1,358.9,305.825Z" transform="translate(-283.3 -296.5)" fill="#e0e0e0"/></g><path d="M259.261,310.319h-14.2a3.674,3.674,0,0,1-3.658-3.658v-14.2a3.674,3.674,0,0,1,3.658-3.658h14.2a3.674,3.674,0,0,1,3.658,3.658v14.2A3.584,3.584,0,0,1,259.261,310.319Z" transform="translate(-241.4 -288.8)" fill="#f8a921"/><g transform="translate(3.3 5.595)"><path d="M246,302.052l2.224-2.152,4.16,3.73,7.03-7.03,2.008,2.152L252.1,307.79Z" transform="translate(-246 -296.6)" fill="#fff"/></g></g><g transform="translate(175.447 253.579)"><g transform="translate(30.055 5.523)"><path d="M358.9,352.525H286.456a3.184,3.184,0,0,1-3.156-3.156v-3.013a3.184,3.184,0,0,1,3.156-3.156H358.9a3.184,3.184,0,0,1,3.156,3.156v3.013A3.184,3.184,0,0,1,358.9,352.525Z" transform="translate(-283.3 -343.2)" fill="#e0e0e0"/></g><path d="M259.261,357.019h-14.2a3.674,3.674,0,0,1-3.658-3.658v-14.2a3.674,3.674,0,0,1,3.658-3.658h14.2a3.674,3.674,0,0,1,3.658,3.658v14.2A3.584,3.584,0,0,1,259.261,357.019Z" transform="translate(-241.4 -335.5)" fill="#31343e"/><g transform="translate(3.3 5.595)"><path d="M246,348.751l2.224-2.152,4.16,3.73,7.03-7.03,2.008,2.152L252.1,354.49Z" transform="translate(-246 -343.3)" fill="#fff"/></g></g><g transform="translate(175.447 287.149)"><g transform="translate(30.055 5.452)"><path d="M358.9,399.225H286.456a3.184,3.184,0,0,1-3.156-3.156v-3.013a3.184,3.184,0,0,1,3.156-3.156H358.9a3.184,3.184,0,0,1,3.156,3.156v3.013A3.184,3.184,0,0,1,358.9,399.225Z" transform="translate(-283.3 -389.9)" fill="#e0e0e0"/></g><path d="M259.261,403.819h-14.2a3.674,3.674,0,0,1-3.658-3.658v-14.2a3.674,3.674,0,0,1,3.658-3.658h14.2a3.674,3.674,0,0,1,3.658,3.658v14.2A3.584,3.584,0,0,1,259.261,403.819Z" transform="translate(-241.4 -382.3)" fill="#f8a921"/><g transform="translate(3.3 5.523)"><path d="M246,395.452l2.224-2.152,4.16,3.73,7.03-7.03,2.008,2.152-9.325,9.11Z" transform="translate(-246 -390)" fill="#fff"/></g></g><path d="M451.029,258.227s.359,1.722.932,4.806a21.06,21.06,0,0,1,6.456-5.595h-.072s12.84-11.62,17.359-24.317c3.3-9.181,3.084-19.511,3.084-19.511-.072-.5-.861-4.949-1.435-8.536a5.6,5.6,0,0,1,4.376-6.384c6.169-1.363,17.072,2.152,20.3,13.485,4.878,16.785.717,28.262.574,33.426,0,1-.072,1.722-.072,2.367,4.878-.861,8.679-1.506,8.679-1.435h0l32.135-5.954s10.688-2.654,13.772,8.249c3.084,10.975-9.325,13.987-9.325,13.987s5.738,0,6.886,9.9c1.076,9.9-9.54,12.553-9.54,12.553s6.456-.143,7.747,8.679c1.219,8.679-9.827,13.27-10.114,13.342a12.913,12.913,0,0,1,2.582-.359,12.894,12.894,0,0,1-2.08.5c4.949.789,5.451,6.671,5.451,6.671,2.582,12.122-6.743,14.2-6.743,14.2l-58.675,10.831a33.788,33.788,0,0,1-17.5-1.506c.43,2.511.717,3.945.646,3.945l-41.03,7.6c-.072,0-3.587-18.65-7.89-41.6C413.3,284.552,409.928,265.9,410,265.9Z" transform="translate(-113.615 -43.167)" fill="#f8a921"/><g transform="translate(30.193 256.52)"><g transform="translate(11.118)"><path d="M106.835,401.575H63.94a9.582,9.582,0,0,1-9.54-9.54V349.14a9.582,9.582,0,0,1,9.54-9.54h42.895a9.582,9.582,0,0,1,9.54,9.54v42.895A9.536,9.536,0,0,1,106.835,401.575Z" transform="translate(-54.4 -339.6)" fill="#a9a9aa"/></g><path d="M91.335,401.575H48.44a9.582,9.582,0,0,1-9.54-9.54V349.14a9.582,9.582,0,0,1,9.54-9.54H91.335a9.582,9.582,0,0,1,9.54,9.54v42.895A9.536,9.536,0,0,1,91.335,401.575Z" transform="translate(-38.9 -339.6)" fill="#cfcece"/><g transform="translate(9.612 16.139)"><path d="M52.3,377.809l6.241-6.241,12.051,10.688L90.676,362.1l5.81,6.241L69.659,394.307Z" transform="translate(-52.3 -362.1)" fill="#fff"/></g></g><g transform="translate(8.1 165.71)"><g transform="translate(12.911)"><path d="M88.29,284.8H35.64a9.582,9.582,0,0,1-9.54-9.54V222.54A9.582,9.582,0,0,1,35.64,213H88.362a9.582,9.582,0,0,1,9.54,9.54v52.722A9.6,9.6,0,0,1,88.29,284.8Z" transform="translate(-26.1 -213)" fill="#ee715f"/></g><g transform="translate(12.911)" opacity="0.3"><path d="M88.29,284.8H35.64a9.582,9.582,0,0,1-9.54-9.54V222.54A9.582,9.582,0,0,1,35.64,213H88.362a9.582,9.582,0,0,1,9.54,9.54v52.722A9.6,9.6,0,0,1,88.29,284.8Z" transform="translate(-26.1 -213)" fill="#f59b1e"/></g><path d="M70.362,284.8H17.64a9.582,9.582,0,0,1-9.54-9.54V222.54A9.582,9.582,0,0,1,17.64,213H70.362a9.582,9.582,0,0,1,9.54,9.54v52.722A9.582,9.582,0,0,1,70.362,284.8Z" transform="translate(-8.1 -213)" fill="#f8a921"/><g transform="translate(11.118 18.722)"><path d="M23.6,257.32l7.245-7.245L44.76,262.484,68.073,239.1l6.671,7.245L43.756,276.4Z" transform="translate(-23.6 -239.1)" fill="#fff"/></g></g><g transform="translate(59.316 217.929)"><g transform="translate(8.249)"><path d="M131.026,331.707H96.882A5.909,5.909,0,0,1,91,325.826V291.682a5.908,5.908,0,0,1,5.882-5.882h34.144a5.908,5.908,0,0,1,5.882,5.882v34.144A5.818,5.818,0,0,1,131.026,331.707Z" transform="translate(-91 -285.8)" fill="#263239"/></g><path d="M119.526,331.707H85.382a5.909,5.909,0,0,1-5.882-5.882V291.682a5.908,5.908,0,0,1,5.882-5.882h34.144a5.908,5.908,0,0,1,5.882,5.882v34.144A5.818,5.818,0,0,1,119.526,331.707Z" transform="translate(-79.5 -285.8)" fill="#455a64"/><g transform="translate(7.101 11.979)"><path d="M89.4,314.192l4.662-4.662,8.895,7.962,14.92-14.992,4.3,4.662-19.869,19.224Z" transform="translate(-89.4 -302.5)" fill="#fff"/></g></g></g></svg>