<svg xmlns="http://www.w3.org/2000/svg" xmlns:xlink="http://www.w3.org/1999/xlink" width="75.487" height="75.874" viewBox="0 0 75.487 75.874"><defs><clipPath id="a"><rect width="75.487" height="75.874" fill="#80828b"/></clipPath></defs><g clip-path="url(#a)"><path d="M35.769,57.094H10.839a2.592,2.592,0,1,1,0-5.184H36.652A22,22,0,0,1,41.174,43.7H33.15a2.592,2.592,0,0,1,0-5.184H45.208a2.567,2.567,0,0,1,1.586.556,21.86,21.86,0,0,1,9.253-2.87V1.728A1.728,1.728,0,0,0,54.32,0H1.728A1.728,1.728,0,0,0,0,1.728V66.8A1.728,1.728,0,0,0,1.728,68.53H38.343a21.9,21.9,0,0,1-2.6-10.368c0-.359.01-.714.027-1.068ZM25.419,43.7H21.053a2.592,2.592,0,0,1,0-5.184h4.366a2.592,2.592,0,0,1,0,5.184M47.8,27.716a2.592,2.592,0,0,1-2.592,2.592H28.022a2.592,2.592,0,0,1,0-5.184H45.207A2.593,2.593,0,0,1,47.8,27.716M16.64,11.436H39.4a2.592,2.592,0,1,1,0,5.184H16.64a2.592,2.592,0,0,1,0-5.184Zm-5.8,13.689h8.486a2.592,2.592,0,1,1,0,5.184H10.837a2.592,2.592,0,0,1,0-5.184m0,13.392h2.438a2.592,2.592,0,0,1,0,5.184H10.837a2.592,2.592,0,0,1,0-5.184M59.5,60.5a4.673,4.673,0,0,1,2.439,1.372A1.362,1.362,0,0,1,62.3,62.91c-.087.644-1.151,1.433-2.8,1.838ZM57.774,40.449A17.713,17.713,0,1,0,75.487,58.161,17.713,17.713,0,0,0,57.774,40.449Zm7.183,18.965a5.229,5.229,0,0,1,1.2,4.016c-.364,2.7-3.035,4.7-6.653,5.293v1.549a1.728,1.728,0,0,1-3.456,0V68.854A11.481,11.481,0,0,1,49.791,66.6a1.944,1.944,0,0,1,2.438-3.028,7.641,7.641,0,0,0,3.817,1.375v-5a9.641,9.641,0,0,1-5.413-3.085,5.2,5.2,0,0,1-1.24-3.972c.364-2.694,3.039-4.7,6.653-5.292V46.05a1.728,1.728,0,1,1,3.456,0v1.418a11.479,11.479,0,0,1,6.256,2.253,1.944,1.944,0,1,1-2.439,3.028A7.642,7.642,0,0,0,59.5,51.374v5.149a8.967,8.967,0,0,1,5.455,2.891Zm-8.912-7.843v4.351a5.418,5.418,0,0,1-2.4-1.512,1.485,1.485,0,0,1-.4-1c.087-.644,1.15-1.436,2.8-1.841Z" fill="#80828b"/></g></svg>