<svg xmlns="http://www.w3.org/2000/svg" xmlns:xlink="http://www.w3.org/1999/xlink" width="62.097" height="65.137" viewBox="0 0 62.097 65.137"><defs><clipPath id="a"><rect width="62.097" height="65.137" fill="#80828b"/></clipPath></defs><g clip-path="url(#a)"><path d="M58.546,32.568,62,23.5a1.5,1.5,0,0,0-.582-1.794l-8.121-5.3L50.759,7.044a1.523,1.523,0,0,0-1.525-1.108l-9.687.482L31.99.333a1.5,1.5,0,0,0-1.885,0L22.551,6.418l-9.687-.482a1.5,1.5,0,0,0-1.525,1.108L8.8,16.406l-8.121,5.3A1.505,1.505,0,0,0,.1,23.5l3.453,9.063L.1,41.633a1.5,1.5,0,0,0,.583,1.794L8.8,48.732,11.339,58.1A1.51,1.51,0,0,0,12.864,59.2l9.687-.483L30.105,64.8a1.5,1.5,0,0,0,1.885,0l7.556-6.085,9.687.483A1.537,1.537,0,0,0,50.759,58.1l2.535-9.364,8.121-5.305A1.5,1.5,0,0,0,62,41.633ZM24.179,18.789a5.589,5.589,0,1,1-5.7,5.588,5.681,5.681,0,0,1,5.7-5.588M22.593,45.9H19.044L39.43,19.241h3.549Zm15.29.453a5.589,5.589,0,1,1,0-11.175,5.589,5.589,0,1,1,0,11.175" transform="translate(0 0)" fill="#80828b"/></g></svg>