<svg xmlns="http://www.w3.org/2000/svg" xmlns:xlink="http://www.w3.org/1999/xlink" width="75.853" height="61.929" viewBox="0 0 75.853 61.929"><defs><clipPath id="a"><rect width="75.853" height="61.929" fill="#80828b"/></clipPath></defs><g clip-path="url(#a)"><path d="M75.076,27.743c-1.16.152-1.907,1.359-2.945,1.681a5.764,5.764,0,0,1-.65-.761,1.469,1.469,0,0,1-.194-.836,3.46,3.46,0,0,0,1.788-.764,2.484,2.484,0,0,0,.821-1.34,3.511,3.511,0,0,0-.84-3.2c-.534.666-.075,1.568-.336,2.272-.382,1.019-1.646,1.046-2.765.831-.12-.023-.235-.048-.348-.075A7.579,7.579,0,0,0,67,25.641c-.793.056-1.855.724-2.777.758-.273.009-.389-.119-.59-.086-.675.116-1.508.807-2.019.758C59.784,26.9,59.94,24.137,58,23.79a.715.715,0,0,0-.209.548c.021.567.567,1.235.8,1.892.309.878.4,1.949,1.1,2.439.728.513,1.668.276,2.691.42-.713,1.567-1.65.443-2.859,0a4.963,4.963,0,0,0-.672-.186h0l-.026-.008c-.025,0-.078-.014-.143-.023-.183-.033-.362-.057-.535-.074a.179.179,0,0,1-.043,0,8.829,8.829,0,0,0-1.149-.041H56.9a.059.059,0,0,1-.025,0c-.021,0-.043,0-.064,0a3.892,3.892,0,0,0-.9.149,1.238,1.238,0,0,0-1.025,1.421,17.214,17.214,0,0,0-3.357.258,46.716,46.716,0,0,1-4.813.773,36.338,36.338,0,0,1-3.868-.086c-3.906-.171-7.709-.335-11.442-.168-.958.044-1.906.141-2.849.255A14.073,14.073,0,0,1,1.355,36.148C-.816,40.7.378,48.721.434,49.076c.269,3.2-.866,7.591-.246,8.871a.256.256,0,0,0,.1-.009,3.932,3.932,0,0,0,1.68-1.155.381.381,0,0,0,.121-.13l.006,0c.534-.885-.131-4.893-.371-7.724a37.24,37.24,0,0,1-.183-8.4c0,.058.006.119.008.178a33.133,33.133,0,0,0,.5,3.366c.155,1.149.3,2.351.422,3.449.265,2.391.69,4.688.842,6.815a9.4,9.4,0,0,1,0,1.765c-.22,1.529-1.5,1.643-2.1,2.777-.657,1.241-.021,3.068.084,4.542A27.722,27.722,0,0,1,.871,68.8C.706,70.013.363,71.129.193,72.182h0a.032.032,0,0,0,0,.026A4.6,4.6,0,0,0,.906,76.1a4.557,4.557,0,0,1,.644,1.541c.068.485-.154,1.036-.086,1.6a7.294,7.294,0,0,0,.424,1.433,12.43,12.43,0,0,0,3.264.373h.009a3.692,3.692,0,0,0,1.1-.291c.328-2.239-1.67-3.008-2.019-4.628a14.244,14.244,0,0,1,0-3.7,14.9,14.9,0,0,1,.839-4.878c.544-1.388,1.64-2.37,2.1-3.87.106-.336.058-.7.168-1.009.375-1.008,1.638-1.622,2.273-2.272.571.612.277,1.431.59,2.187A11.221,11.221,0,0,0,11.982,64.6a16.218,16.218,0,0,1,1.68,2.185c1.2,2.032,2.6,4.126,2.693,7.153a2.574,2.574,0,0,1,3.029,2.1c.056.464-.192.987-.008,1.386h0a.477.477,0,0,0,.216.258c.018.011.03.026.049.037a.1.1,0,0,0,.029,0c1.085.532,4.624-.045,4.624-.045l0,0a.288.288,0,0,0,.228-.121c.041-1.5-1.267-2.379-1.935-3.45-.126-.209-.554-.116-.672-.336-1.364-3.4-3.928-5.61-5.216-9.086.215-.566.978-.453,1.516-.506.774-.515-.541-2.192.5-2.439.483.3-.235.941.157,1.334a2.764,2.764,0,0,0,1.981.132l0,0,.017-.008.022-.008a.96.96,0,0,0,.211-.1.215.215,0,0,0,.037-.023s0,0,0,0a.458.458,0,0,0,.2-.412l-.008,0a14.383,14.383,0,0,1-.011-1.5c.125-.791,1.31-1.155,1.68-1.683.7-.991.426-2.735,1.347-2.945.6-.138,2.467.993,3.366,1.345a14.7,14.7,0,0,0,3.87.924c2.416.164,4.617-.717,6.9-1.176a30.291,30.291,0,0,1,5.991-.747c1.511,1.276.839,4.743.839,4.743l0,0a4.914,4.914,0,0,0-.27.715c-.229.8.242,1.639.169,2.609-.223,2.915-1.317,5.772-2.1,8.413,1.022.649.666,1.951.422,3.2a4.8,4.8,0,0,0,4.964.839c.356-1.811-1.459-2.617-1.683-4.039-.206-1.3.368-2.886.587-4.206.238-1.411.456-2.741.59-4.206,1.043-1.423,1.473-3.464,2.439-4.964.406,1.31.444,2.613.758,3.954.293,1.251.9,2.4,1.094,3.618.467,2.966-.243,5.46.336,8.5.233.3.873.192.925.673-.546,1.162.429,1.661.506,2.691a4.225,4.225,0,0,0,4.2-.324l.179-.179c-.082-2.146-2.072-2.94-2.525-4.543a16.706,16.706,0,0,1-.084-3.2c-.076-1.62-.371-3.4-.336-4.626s.489-2.464.5-3.618-.12-2.616,0-3.7c.066-.6,1.03-.764,1.513-1.093a8.651,8.651,0,0,0,2.282-2.885,12.679,12.679,0,0,1,.746-1.153c.787-1.042,1.629-1.123,1.936-2.272.146-.55-.015-1.308.168-1.849a25.687,25.687,0,0,0,1.343-2.863,10.673,10.673,0,0,1,.59-2.523,5.742,5.742,0,0,1,3.031-1.429c.313.008.613.266.924.336a4.625,4.625,0,0,0,3.967-.956l.148-.147,0,0a2.015,2.015,0,0,0,.593-1.168c.034-.344-.225-.6-.252-1.094-.023-.362.222-.61.168-.925-.115-.675-.543-.795-.925-1.093a10.877,10.877,0,0,1-.084-4.964c5.494-1.775,3.415-5.446,2.945-5.384" transform="translate(0 -19.137)" fill="#80828b"/><path d="M28.768,0A11.965,11.965,0,1,0,40.733,11.965,11.96,11.96,0,0,0,28.768,0m0,22.67a10.7,10.7,0,1,1,10.705-10.7A10.7,10.7,0,0,1,28.768,22.67Zm-.756-6.108v-.63a4.618,4.618,0,0,1-2.2-.756.726.726,0,0,1,.252-1.323c.819.189,1.511.819,2.456.756.882.063,1.826-.63,1.2-1.448a5.737,5.737,0,0,0-1.385-.567,4.484,4.484,0,0,1-2.267-1.07c-1.071-1.448.189-3.464,1.952-3.589v-.63a.7.7,0,0,1,.693-.693.661.661,0,0,1,.693.693v.63a3.545,3.545,0,0,1,1.889.756c.756.5.063,1.763-.756,1.133a2.513,2.513,0,0,0-2.708-.315.779.779,0,0,0-.126,1.2c.63.567,2.078.63,2.771.945a2.06,2.06,0,0,1,.63,3.4,2.894,2.894,0,0,1-1.7.819v.63a.661.661,0,0,1-.693.693.648.648,0,0,1-.693-.63M28.768,3.9a8.163,8.163,0,0,0-8,6.675.613.613,0,0,1-.63.5h-.126a.653.653,0,0,1-.5-.756,9.388,9.388,0,0,1,9.257-7.683A9.261,9.261,0,0,1,32.42,3.4a.62.62,0,1,1-.5,1.134,7.815,7.815,0,0,0-3.149-.63Zm-7.493,11.02a.605.605,0,0,1-.378.819c-.063,0-.126.063-.252.063a.551.551,0,0,1-.567-.378,11.887,11.887,0,0,1-.567-2.141.6.6,0,0,1,.567-.692.569.569,0,0,1,.693.567A6.2,6.2,0,0,0,21.274,14.924ZM38.025,13.6a9.377,9.377,0,0,1-9.194,7.746,9.886,9.886,0,0,1-4.03-.881.62.62,0,0,1,.5-1.134,8.167,8.167,0,0,0,11.461-5.919.653.653,0,0,1,.756-.5c.378,0,.567.315.5.693Zm-1.637-4.66a.638.638,0,0,1,1.2-.441,13.408,13.408,0,0,1,.567,2.141.6.6,0,0,1-.567.693h-.063a.67.67,0,0,1-.63-.567C36.765,10.2,36.576,9.572,36.387,8.942Z" transform="translate(-14.274)" fill="#80828b"/></g></svg>