<svg xmlns="http://www.w3.org/2000/svg" width="447.86" height="363.721" viewBox="0 0 447.86 363.721"><g transform="translate(-9.97 -10.867)"><g transform="translate(9.97 51.32)"><path d="M226.675,381.191c-2.64,0-5.279,0-7.919-.08a262.116,262.116,0,0,1-63.429-9.6,228.394,228.394,0,0,1-57.59-24.876,180.734,180.734,0,0,1-76.946-95.583c-7.679-22.316-11.518-46.792-10.718-68.788a136.558,136.558,0,0,1,5.679-34.954A95.8,95.8,0,0,1,31.67,116.279c6.4-8.239,13.838-14.157,22.156-17.757a55.925,55.925,0,0,1,24.8-4.239,95.223,95.223,0,0,1,25.515,5.2,190.932,190.932,0,0,1,24.636,10.4c32.954,16.157,69.268,28.955,111.02,13.438,17.2-6.4,32.874-17.357,47.991-27.915,18.717-13.2,37.993-26.635,60.549-31.914a76.114,76.114,0,0,1,32.074-.64,81.12,81.12,0,0,1,28.875,11.678A97.058,97.058,0,0,1,432.8,95.8a100.375,100.375,0,0,1,15.917,28.235,148.6,148.6,0,0,1,8.238,67.668c-2.24,21.756-8.878,43.592-19.756,64.868-20.556,40.393-54.95,75.586-94.223,96.623a233.432,233.432,0,0,1-59.989,21.916A263.989,263.989,0,0,1,226.675,381.191ZM75.422,97c-16.877,0-30.475,6.879-41.433,20.956-28.555,36.713-24.076,92.3-10.4,132.056a178.705,178.705,0,0,0,75.666,94.063c36.953,22.556,82.225,33.914,127.337,33.994,40.313,0,80.626-9.118,114.94-27.435,75.427-40.313,136.776-137.975,104.381-225.56-15.757-42.632-57.43-67.828-96.943-58.63-22,5.119-41.033,18.477-59.429,31.354-15.277,10.718-31.034,21.756-48.631,28.235a111.521,111.521,0,0,1-58.31,5.679c-16.317-2.719-33.274-8.638-54.95-19.2C113.975,105.8,96.139,98.042,78.622,97.242A22.363,22.363,0,0,0,75.422,97Z" transform="translate(-9.97 -61.443)" fill="#efeef2"/></g><g transform="translate(10.624 10.867)"><path d="M409.606,46.487C382.171,13.133,334.26-1.024,296.826,22.571c-35.194,22.156-50.871,65.588-82.705,91.9-33.354,27.515-69.988,28.955-110.38,24.076-34.794-4.239-74.387-3.6-88.144,36.953C.719,219.416,22.715,271.087,49.351,305a179.466,179.466,0,0,0,103.182,64.548C232.918,386.986,327.7,357.791,384.971,295.8,444.16,231.654,469.436,119.194,409.606,46.487Z" transform="translate(-10.787 -10.867)" fill="#efeef2"/></g><g transform="translate(109.576 93.879)"><path d="M257.838,116.93,134.5,222.831l2.32,47.911c0,5.679,6.879,86.785,13.438,86.785l115.1-77.026L369.1,349.608c6.559,0,19.2-75.347,19.2-81.026l7.679-45.832L272.635,116.93A13.146,13.146,0,0,0,257.838,116.93Z" transform="translate(-134.5 -114.65)" fill="#efab1e"/></g><g transform="translate(131.012 134.071)"><path d="M326.95,386.7H213.691A52.365,52.365,0,0,1,161.3,334.31V217.291A52.365,52.365,0,0,1,213.691,164.9H326.95a52.365,52.365,0,0,1,52.391,52.391V334.23A52.433,52.433,0,0,1,326.95,386.7Z" transform="translate(-161.3 -164.9)" fill="#fff"/></g><g transform="translate(147.409 150.388)"><g transform="translate(0 60.069)"><path d="M231.311,313.191H185.079a3.294,3.294,0,0,1-3.279-3.279V263.679a3.294,3.294,0,0,1,3.279-3.279h46.232a3.294,3.294,0,0,1,3.279,3.279v46.232A3.347,3.347,0,0,1,231.311,313.191Zm-43.032-6.479h39.753V266.959H188.279Z" transform="translate(-181.8 -260.4)" fill="#fdd5a9"/><g transform="translate(72.227 33.594)"><path d="M390.8,308.959H275.379a3.279,3.279,0,0,1,0-6.559H390.719A3.294,3.294,0,0,1,394,305.679,3.227,3.227,0,0,1,390.8,308.959Z" transform="translate(-272.1 -302.4)" fill="#31343e"/></g><g transform="translate(14.293 10.62)"><path d="M208.572,305.37h0a3.242,3.242,0,0,1-2.879-1.76l-5.679-11.038a3.273,3.273,0,0,1,5.839-2.959l2.959,5.759,11.6-20.076a3.224,3.224,0,0,1,5.6,3.2L211.452,303.77A3.464,3.464,0,0,1,208.572,305.37Z" transform="translate(-199.669 -273.677)" fill="#31343e"/></g><g transform="translate(72.307 12.798)"><path d="M334.349,282.8H274.44a2.236,2.236,0,0,1-2.24-2.24v-1.92a2.236,2.236,0,0,1,2.24-2.24h59.909a2.236,2.236,0,0,1,2.24,2.24v1.92A2.186,2.186,0,0,1,334.349,282.8Z" transform="translate(-272.2 -276.4)" fill="#fdd5a9"/></g></g><path d="M231.311,238.091H185.079a3.294,3.294,0,0,1-3.279-3.279V188.579a3.294,3.294,0,0,1,3.279-3.279h46.232a3.294,3.294,0,0,1,3.279,3.279v46.232A3.347,3.347,0,0,1,231.311,238.091Zm-43.032-6.479h39.753V191.859H188.279Z" transform="translate(-181.8 -185.3)" fill="#fdd5a9"/><g transform="translate(72.227 12.638)"><path d="M363.2,207.659H274.979a3.075,3.075,0,0,1-2.879-3.279,3.126,3.126,0,0,1,2.879-3.279H363.2a3.307,3.307,0,0,1,0,6.559Z" transform="translate(-272.1 -201.1)" fill="#fdd5a9"/></g><g transform="translate(72.307 33.594)"><path d="M383.86,233.859H275.239a3.148,3.148,0,0,1-3.039-3.279,3.2,3.2,0,0,1,3.039-3.279H383.86a3.289,3.289,0,0,1,0,6.559Z" transform="translate(-272.2 -227.3)" fill="#31343e"/></g><g transform="translate(14.293 10.62)"><path d="M208.572,230.27h0a3.242,3.242,0,0,1-2.879-1.76l-5.679-11.038a3.273,3.273,0,1,1,5.839-2.959l2.959,5.759,11.6-20.076a3.224,3.224,0,0,1,5.6,3.2L211.452,228.67A3.464,3.464,0,0,1,208.572,230.27Z" transform="translate(-199.669 -198.577)" fill="#31343e"/></g></g><g transform="translate(240.893 199.42)"><path d="M300.775,329.305l59.509-58.55C375.881,255.4,398.2,246.6,421.633,246.6h0c5.519,0,9.918,3.519,9.918,7.839V410.891c0,4.319-7.439,10.878-12.958,10.878H384.76l-83.985-82.705A6.719,6.719,0,0,1,300.775,329.305Z" transform="translate(-298.675 -246.6)" fill="#f8a921"/></g><g transform="translate(107.177 199.34)"><g transform="translate(0)"><path d="M262.277,329.205l-59.509-58.55C187.17,255.3,164.854,246.5,141.418,246.5h0c-5.519,0-9.918,3.519-9.918,7.839V411.671c0,4.319,6.4,10,11.838,10l34.874-.08,84.065-82.705A6.626,6.626,0,0,0,262.277,329.205Z" transform="translate(-131.5 -246.5)" fill="#f8a921"/></g></g><g transform="translate(107.257 252.524)"><path d="M398.112,392.1v33.754c0,5.039-5.279,9.118-11.838,9.118H143.438c-6.559,0-11.838-4.079-11.838-9.118V392.1L257.5,315a14.646,14.646,0,0,1,14.8,0Z" transform="translate(-131.6 -312.992)" fill="#efab1e"/></g><g transform="translate(262.029 261.329)"><path d="M327.1,324l109.74,55.99v14.317L325.1,325.92Z" transform="translate(-325.1 -324)" fill="#f59a23"/></g><g transform="translate(107.177 261.329)"><path d="M241.24,324,131.5,379.99v14.317L243.16,325.92Z" transform="translate(-131.5 -324)" fill="#f59a23"/></g><g transform="translate(47.747 74.642)"><g transform="translate(57.75)"><path d="M201.707,90.6l-25.755,83.585-4.079,13.358-11.758-9.918L129.4,151.709Z" transform="translate(-129.4 -90.6)" fill="#717583"/></g><path d="M187.257,90.6,97.833,142.191,57.2,128.753Z" transform="translate(-57.2 -90.6)" fill="#53555f"/><g transform="translate(40.633)"><path d="M197.424,90.6l-72.307,61.109L111.2,179.464,108,142.191Z" transform="translate(-108 -90.6)" fill="#31343e"/></g></g><g transform="translate(60.545 169.916)"><g transform="translate(0)"><path d="M217.414,397.189a.721.721,0,0,1-.4-.08c-2.959-.88-6-1.92-8.878-3.039a1.493,1.493,0,0,1,1.04-2.8c2.879,1.12,5.759,2.08,8.718,2.96a1.524,1.524,0,0,1-.48,2.959Zm-20.076-8a1.507,1.507,0,0,1-.64-.16c-2.8-1.44-5.519-2.959-8.239-4.559a1.454,1.454,0,1,1,1.52-2.48c2.64,1.6,5.279,3.039,8,4.479a1.48,1.48,0,0,1,.64,2A1.441,1.441,0,0,1,197.338,389.191Zm-18.4-11.358a1.2,1.2,0,0,1-.88-.32c-2.48-1.84-4.959-3.839-7.279-5.919a1.66,1.66,0,0,1-.48-.8c-1.36.48-2.8.88-4.159,1.28a1.488,1.488,0,0,1-1.76-1.04,1.531,1.531,0,0,1,1.04-1.76,41.967,41.967,0,0,0,8.4-3.039,1.485,1.485,0,1,1,1.36,2.639c-.72.32-1.36.64-2.08.96,2.16,1.92,4.479,3.759,6.8,5.439a1.517,1.517,0,0,1,.32,2.08A2.808,2.808,0,0,1,178.941,377.833Zm-25.515-4.639h0a48.765,48.765,0,0,1-9.518-1.36,1.475,1.475,0,0,1,.64-2.88,50.367,50.367,0,0,0,8.958,1.28,1.483,1.483,0,0,1-.08,2.959Zm-20.956-5.279a1.483,1.483,0,0,1-.56-.16,84.61,84.61,0,0,1-8.4-4.4,1.454,1.454,0,1,1,1.52-2.48,87.559,87.559,0,0,0,8.079,4.239,1.47,1.47,0,0,1-.64,2.8Zm30.315-4.559a1.29,1.29,0,0,1-1.04-.48,66.051,66.051,0,0,1-5.919-7.519,1.442,1.442,0,1,1,2.4-1.6,52.118,52.118,0,0,0,5.6,7.119,1.5,1.5,0,0,1-.08,2.08A1.476,1.476,0,0,1,162.784,363.355Zm21.516-1.84a1.476,1.476,0,0,1-.96-.4,1.5,1.5,0,0,1-.08-2.08c.88-.96,1.76-2.08,2.56-3.119a26.35,26.35,0,0,0,2.32-4.159,1.45,1.45,0,1,1,2.64,1.2,24.007,24.007,0,0,1-2.64,4.639,22.886,22.886,0,0,1-2.8,3.439A1.29,1.29,0,0,1,184.3,361.516Zm-70.227-4.879a1.2,1.2,0,0,1-.88-.32,87.326,87.326,0,0,1-7.119-6.159,1.472,1.472,0,0,1,2-2.16q3.359,3.119,6.959,6a1.5,1.5,0,0,1,.24,2.08A1.545,1.545,0,0,1,114.073,356.637Zm37.513-11.678a1.371,1.371,0,0,1-1.36-1.04,28.669,28.669,0,0,1-1.36-8.319,7.317,7.317,0,0,1,.08-1.36,1.442,1.442,0,1,1,2.879.16v1.2a25.292,25.292,0,0,0,1.2,7.439,1.437,1.437,0,0,1-.96,1.84A1.014,1.014,0,0,1,151.586,344.959Zm40.393-3.2a1.434,1.434,0,0,1-1.44-1.44,23.954,23.954,0,0,0-1.52-8.638,1.442,1.442,0,0,1,2.72-.96,27.541,27.541,0,0,1,1.68,9.6,1.434,1.434,0,0,1-1.44,1.44Zm-93.423-.24a1.4,1.4,0,0,1-1.12-.56c-2-2.4-3.919-4.959-5.679-7.519a1.442,1.442,0,1,1,2.4-1.6c1.76,2.48,3.6,4.959,5.519,7.279a1.586,1.586,0,0,1-.16,2.08A1.537,1.537,0,0,1,98.555,341.519Zm56.39-17.037a1.476,1.476,0,0,1-.96-.4,1.5,1.5,0,0,1-.08-2.08,19.71,19.71,0,0,1,8.319-5.359,1.442,1.442,0,1,1,.96,2.72,17.35,17.35,0,0,0-7.119,4.559A1.4,1.4,0,0,1,154.945,324.482Zm-68.468-.96a1.425,1.425,0,0,1-1.28-.8c-1.44-2.8-2.8-5.6-4-8.478a1.471,1.471,0,1,1,2.72-1.12c1.2,2.8,2.48,5.6,3.919,8.238a1.48,1.48,0,0,1-.64,2A1.189,1.189,0,0,1,86.478,323.523Zm96.783-.8a1.2,1.2,0,0,1-.88-.32,20.017,20.017,0,0,0-7.839-3.519,1.475,1.475,0,0,1,.64-2.88,22.952,22.952,0,0,1,8.958,4.079,1.434,1.434,0,0,1,.24,2.08A1.4,1.4,0,0,1,183.26,322.723ZM78.4,303.446a1.537,1.537,0,0,1-1.44-1.04,90.305,90.305,0,0,1-2.16-9.2,1.46,1.46,0,1,1,2.879-.48c.56,2.959,1.28,6,2.08,8.878a1.482,1.482,0,0,1-1.04,1.84ZM74.8,282.17a1.419,1.419,0,0,1-1.44-1.36c-.08-2-.16-4-.16-6,0-1.12,0-2.32.08-3.439a1.48,1.48,0,0,1,2.959.08c0,1.12-.08,2.24-.08,3.359,0,1.92.08,3.919.16,5.839a1.389,1.389,0,0,1-1.36,1.52Zm1.04-21.676H75.6a1.448,1.448,0,0,1-1.2-1.68c.48-3.119,1.12-6.159,1.84-9.278a1.445,1.445,0,0,1,2.8.72,88.553,88.553,0,0,0-1.76,8.958A1.4,1.4,0,0,1,75.84,260.494Zm5.439-20.956a1.014,1.014,0,0,1-.48-.08,1.587,1.587,0,0,1-.88-1.92c1.12-2.959,2.32-5.839,3.679-8.638a1.45,1.45,0,0,1,2.64,1.2c-1.28,2.719-2.56,5.6-3.6,8.4A1.293,1.293,0,0,1,81.279,239.538Zm9.678-19.357a1.543,1.543,0,0,1-.8-.24,1.446,1.446,0,0,1-.48-2c1.68-2.64,3.519-5.2,5.439-7.679a1.48,1.48,0,1,1,2.32,1.84c-1.84,2.4-3.679,4.879-5.279,7.439A1.41,1.41,0,0,1,90.957,220.181Z" transform="translate(-73.2 -209.714)" fill="#31343e"/></g></g><g transform="translate(279.359 257.107)"><path d="M348.233,417.487h-.24a1.448,1.448,0,0,1-1.2-1.68,44.865,44.865,0,0,1,2.8-9.2,1.4,1.4,0,0,1,1.92-.72,1.467,1.467,0,0,1,.72,1.92,42.22,42.22,0,0,0-2.64,8.559A1.376,1.376,0,0,1,348.233,417.487Zm64.628-11.678h-.16a19,19,0,0,1-9.278-3.6,1.488,1.488,0,0,1,1.76-2.4,16.121,16.121,0,0,0,7.839,3.039,1.506,1.506,0,0,1,1.36,1.6A1.49,1.49,0,0,1,412.861,405.809Zm10.958-4.639a1.2,1.2,0,0,1-.88-.32,1.517,1.517,0,0,1-.32-2.08,12.122,12.122,0,0,0,2.32-7.439v-.4a1.48,1.48,0,0,1,2.959-.08v.48a15,15,0,0,1-2.879,9.2A1.414,1.414,0,0,1,423.819,401.17Zm-66.548-3.119a1.2,1.2,0,0,1-.88-.32,1.5,1.5,0,0,1-.24-2.08,74.808,74.808,0,0,1,6.4-7.039,1.472,1.472,0,1,1,2,2.16,60.69,60.69,0,0,0-6.159,6.719A1.21,1.21,0,0,1,357.271,398.05Zm41.033-6a1.465,1.465,0,0,1-1.44-1.28,16.718,16.718,0,0,1-.08-2,21.447,21.447,0,0,1,1.6-7.839,1.471,1.471,0,1,1,2.719,1.12,18.319,18.319,0,0,0-1.36,6.719,11.809,11.809,0,0,0,.08,1.68,1.444,1.444,0,0,1-1.28,1.6Zm-24.956-8.479a1.41,1.41,0,0,1-1.2-.64,1.5,1.5,0,0,1,.4-2,56.044,56.044,0,0,1,8.318-4.559,1.45,1.45,0,1,1,1.2,2.639,64.094,64.094,0,0,0-7.919,4.4A2.841,2.841,0,0,1,373.348,383.573Zm48.631-2.48a1.579,1.579,0,0,1-1.12-.48,15.1,15.1,0,0,0-1.6-1.6,19.065,19.065,0,0,0-5.359-3.2,1.471,1.471,0,0,1,1.12-2.719,23.738,23.738,0,0,1,6.159,3.679,22.667,22.667,0,0,1,2,1.92,1.431,1.431,0,0,1-.16,2.08A1.608,1.608,0,0,1,421.98,381.093ZM393.1,375.014a1.537,1.537,0,0,1-1.44-1.12,1.474,1.474,0,0,1,1.12-1.76c.56-.16,1.12-.24,1.68-.4a37.976,37.976,0,0,1,7.839-.88,1.48,1.48,0,1,1,.08,2.959,47.022,47.022,0,0,0-7.359.8c-.48.08-1.04.24-1.6.32C393.345,374.934,393.265,375.014,393.1,375.014Zm14-1.76a1.439,1.439,0,0,1-1.2-.56,1.5,1.5,0,0,1,.24-2.08,19.816,19.816,0,0,1,3.919-2.4,29.36,29.36,0,0,1,4.879-1.84,1.467,1.467,0,0,1,.88,2.8,31.467,31.467,0,0,0-4.4,1.68,17.591,17.591,0,0,0-3.439,2.16A1.612,1.612,0,0,1,407.1,373.255Zm20.556-5.839a1.419,1.419,0,0,1-1.44-1.36,1.389,1.389,0,0,1,1.36-1.52c1.68-.08,3.439-.16,5.119-.24h.72c1.36-.08,2.48-.08,3.439-.16a1.442,1.442,0,0,1,.16,2.88c-1.04.08-2.08.08-3.519.16h-.72c-1.68.08-3.359.08-5.039.24Zm21.516-2.16a1.537,1.537,0,0,1-1.44-1.04,1.482,1.482,0,0,1,1.04-1.84,29.072,29.072,0,0,0,6.4-2.72,8.116,8.116,0,0,0,1.44-1.04,1.48,1.48,0,0,1,1.84,2.32,19.115,19.115,0,0,1-1.76,1.28,29.667,29.667,0,0,1-7.039,3.039C449.495,365.176,449.335,365.256,449.175,365.256Zm16.077-13.6a2.335,2.335,0,0,1-.72-.16,1.453,1.453,0,0,1-.56-2,39.313,39.313,0,0,0,3.519-8.238,1.467,1.467,0,1,1,2.8.88,44.826,44.826,0,0,1-3.759,8.8A1.514,1.514,0,0,1,465.252,351.659Zm5.359-20.8a1.434,1.434,0,0,1-1.44-1.44,42.309,42.309,0,0,0-1.2-8.878,1.445,1.445,0,0,1,2.8-.72,42.7,42.7,0,0,1,1.36,9.518,1.471,1.471,0,0,1-1.52,1.52Z" transform="translate(-346.766 -318.723)" fill="#31343e"/></g><g transform="translate(352.173 189.581)"><circle cx="30.715" cy="30.715" r="30.715" fill="#31343e"/><g transform="translate(15.917 12.238)"><g transform="translate(0 3.599)"><path d="M484.335,272.9v-6.959A11.862,11.862,0,0,0,472.5,254.1h0a11.862,11.862,0,0,0-11.838,11.838V272.9c0,3.759-1.04,5.2-2.959,8.4h29.595C485.375,278.1,484.335,276.656,484.335,272.9Z" transform="translate(-457.7 -254.1)" fill="#fff"/></g><g transform="translate(10.318 32.394)"><path d="M475.079,294.579h0A4.472,4.472,0,0,1,470.6,290.1h8.878A4.355,4.355,0,0,1,475.079,294.579Z" transform="translate(-470.6 -290.1)" fill="#fff"/></g><g transform="translate(11.198)"><path d="M475.3,249.6a3.6,3.6,0,1,0,3.6,3.6A3.584,3.584,0,0,0,475.3,249.6Zm0,5.839a2.16,2.16,0,1,1,2.16-2.16A2.151,2.151,0,0,1,475.3,255.439Z" transform="translate(-471.7 -249.6)" fill="#fff"/></g></g></g><g transform="translate(345.374 182.783)"><path d="M466.813,300.827a37.6,37.6,0,0,1-26.555-10.958A37.513,37.513,0,0,1,466.813,225.8a37.6,37.6,0,0,1,26.555,10.958,36.992,36.992,0,0,1,10.958,26.555,37.414,37.414,0,0,1-37.513,37.513Zm0-72.147a34.682,34.682,0,1,0,24.476,10.158A34.3,34.3,0,0,0,466.813,228.679Z" transform="translate(-429.3 -225.8)" fill="#31343e"/></g><g transform="translate(353.453 115.295)"><g transform="translate(0.38 0.44)"><path d="M441.335,154.473a1.685,1.685,0,0,1-1.04-.4,1.5,1.5,0,0,1,0-2.08l9.6-9.6a1.471,1.471,0,0,1,2.08,2.08l-9.6,9.6A1.884,1.884,0,0,1,441.335,154.473Z" transform="translate(-439.875 -141.975)" fill="#31343e"/></g><path d="M441.24,154.683a1.592,1.592,0,0,1-1.28-.56,1.888,1.888,0,0,1-.56-1.28,1.592,1.592,0,0,1,.56-1.28l9.6-9.6a1.787,1.787,0,0,1,2.56,0,1.888,1.888,0,0,1,.56,1.28,1.591,1.591,0,0,1-.56,1.28l-9.6,9.6A1.591,1.591,0,0,1,441.24,154.683Zm9.6-12.478a1.027,1.027,0,0,0-.8.32l-9.6,9.6a1.131,1.131,0,0,0,1.6,1.6l9.6-9.6a1.16,1.16,0,0,0,0-1.6A1.146,1.146,0,0,0,450.838,142.2Z" transform="translate(-439.4 -141.425)" fill="#31343e"/></g><g transform="translate(357.99 136.289)"><g transform="translate(0.315 0.395)"><path d="M462.93,173.472h-.24l-16-2.4a1.448,1.448,0,0,1-1.2-1.68,1.409,1.409,0,0,1,1.68-1.2l16,2.4a1.448,1.448,0,0,1,1.2,1.68A1.467,1.467,0,0,1,462.93,173.472Z" transform="translate(-445.466 -168.166)" fill="#31343e"/></g><path d="M462.851,173.693h-.24l-16-2.4a1.821,1.821,0,0,1,.56-3.6l16,2.4a1.81,1.81,0,0,1-.32,3.6Zm-15.917-5.359a1.121,1.121,0,0,0-1.12.96,1.2,1.2,0,0,0,.96,1.28l16,2.4h.16a1.122,1.122,0,0,0,1.12-.96,1.2,1.2,0,0,0-.96-1.28l-16-2.4A.111.111,0,0,1,446.934,168.334Z" transform="translate(-445.072 -167.672)" fill="#31343e"/></g><g transform="translate(339.674 104.456)"><g transform="translate(0.393 0.233)"><path d="M426.532,147.15a1.465,1.465,0,0,1-1.44-1.28l-2.4-16a1.46,1.46,0,0,1,2.88-.48l2.4,16a1.448,1.448,0,0,1-1.2,1.68A.294.294,0,0,1,426.532,147.15Z" transform="translate(-422.666 -128.166)" fill="#31343e"/></g><path d="M426.434,147.491a1.883,1.883,0,0,1-1.84-1.52l-2.4-16a2.034,2.034,0,0,1,.32-1.36,1.9,1.9,0,0,1,1.2-.72,2.034,2.034,0,0,1,1.36.32,1.9,1.9,0,0,1,.72,1.2l2.4,16a2.034,2.034,0,0,1-.32,1.36,1.9,1.9,0,0,1-1.2.72C426.594,147.411,426.514,147.491,426.434,147.491Zm-2.4-18.957h-.16a1.077,1.077,0,0,0-.72.4,1.543,1.543,0,0,0-.24.8l2.4,16a1.122,1.122,0,0,0,1.12.96h.16a1.077,1.077,0,0,0,.72-.4,1.543,1.543,0,0,0,.24-.8l-2.4-16a1.077,1.077,0,0,0-.4-.72A1.29,1.29,0,0,0,424.034,128.535Z" transform="translate(-422.174 -127.874)" fill="#31343e"/></g></g></svg>