<svg xmlns="http://www.w3.org/2000/svg" width="136.206" height="48.341" viewBox="0 0 136.206 48.341"><g transform="translate(-691.825 -633.636)"><g transform="translate(691.825 669.721)"><path d="M699.84,1232.466H698.8c-.194,0-.291,0-.421-.211l-2.9-4.823h-.42c-.534,0-.923-.017-1.782-.049v4.759a.308.308,0,0,1-.291.324h-.874a.309.309,0,0,1-.291-.324V1220.81c0-.227.1-.324.388-.357.7-.08,1.912-.129,2.85-.129,2.558,0,4.534.858,4.534,3.482v.113a3.185,3.185,0,0,1-2.542,3.27L700,1232.11a.268.268,0,0,1,.049.145.205.205,0,0,1-.211.211m-1.7-8.661c0-1.62-1.052-2.154-3.076-2.154-.5,0-1.393,0-1.782.049v4.436c.713.016,1.409.033,1.782.033,1.992,0,3.076-.5,3.076-2.25Z" transform="translate(-691.825 -1220.323)" fill="#15171e"/><path d="M1057.962,1232.5c-.615.064-2.2.08-3.156.08-2.268,0-3.449-.858-3.449-3.011v-6.234c0-2.153,1.181-3.011,3.449-3.011.954,0,2.477.033,3.156.1a.228.228,0,0,1,.162.227v.809a.174.174,0,0,1-.178.194h-3.125c-1.716,0-1.992.453-1.992,1.683v2.25h4.972a.325.325,0,0,1,.323.324v.616a.323.323,0,0,1-.323.323h-4.972v2.72c0,1.23.276,1.683,1.992,1.683h3.125a.174.174,0,0,1,.178.194v.827a.23.23,0,0,1-.162.227" transform="translate(-1029.244 -1220.324)" fill="#15171e"/><path d="M1387.309,1232.579a16.184,16.184,0,0,1-2.688-.227c-.276-.049-.307-.114-.307-.292v-.647a.251.251,0,0,1,.276-.26h.049c.744.064,1.926.1,2.671.1,1.943,0,2.461-.778,2.461-1.91,0-.81-.469-1.263-1.943-2.169l-1.57-.956c-1.49-.906-2.235-1.732-2.235-3.027,0-1.959,1.408-2.866,3.869-2.866a22.131,22.131,0,0,1,2.817.194c.162.033.275.113.275.276v.7a.251.251,0,0,1-.275.26h-.033c-.712-.049-1.846-.1-2.784-.1-1.668,0-2.38.356-2.38,1.538,0,.761.534,1.214,1.764,1.959l1.49.89c1.879,1.118,2.542,2.007,2.542,3.3,0,1.554-.809,3.238-4,3.238" transform="translate(-1341.447 -1220.323)" fill="#15171e"/><path d="M1737.76,1232.5c-.615.064-2.2.08-3.156.08-2.268,0-3.449-.858-3.449-3.011v-6.234c0-2.153,1.181-3.011,3.449-3.011.955,0,2.477.033,3.156.1a.228.228,0,0,1,.162.227v.809a.174.174,0,0,1-.178.194h-3.125c-1.717,0-1.992.453-1.992,1.683v2.25h4.972a.325.325,0,0,1,.323.324v.616a.323.323,0,0,1-.323.323h-4.972v2.72c0,1.23.276,1.683,1.992,1.683h3.125a.174.174,0,0,1,.178.194v.827a.23.23,0,0,1-.162.227" transform="translate(-1667.229 -1220.324)" fill="#15171e"/><path d="M2079.208,1232.466h-1.036c-.194,0-.291,0-.421-.211l-2.9-4.823h-.42c-.534,0-.923-.017-1.781-.049v4.759a.308.308,0,0,1-.291.324h-.874a.309.309,0,0,1-.291-.324V1220.81c0-.227.1-.324.387-.357.7-.08,1.912-.129,2.85-.129,2.558,0,4.534.858,4.534,3.482v.113a3.185,3.185,0,0,1-2.542,3.27l2.946,4.922a.268.268,0,0,1,.049.145.2.2,0,0,1-.211.211m-1.7-8.661c0-1.62-1.052-2.154-3.076-2.154-.5,0-1.392,0-1.781.049v4.436c.712.016,1.408.033,1.781.033,1.992,0,3.076-.5,3.076-2.25Z" transform="translate(-1986.353 -1220.323)" fill="#15171e"/><path d="M2419.731,1222.541l-2.978,10.54a1.724,1.724,0,0,1-3.3,0l-3-10.54a.217.217,0,0,1-.016-.1.277.277,0,0,1,.291-.275h.939a.326.326,0,0,1,.291.242l2.818,10.313c.064.227.146.34.324.34.162,0,.242-.113.307-.34l2.833-10.313a.31.31,0,0,1,.276-.242h.956a.264.264,0,0,1,.275.275.2.2,0,0,1-.017.1" transform="translate(-2304.732 -1222.055)" fill="#15171e"/><path d="M2763.991,1232.467h-.956a.3.3,0,0,1-.276-.243l-1.052-3.724h-4.193l-1.036,3.724a.325.325,0,0,1-.291.243h-.955a.26.26,0,0,1-.275-.258.282.282,0,0,1,.016-.113l3-10.541a1.593,1.593,0,0,1,1.652-1.23,1.571,1.571,0,0,1,1.635,1.214l3,10.557a.259.259,0,0,1,.017.113.251.251,0,0,1-.275.258m-4.064-10.573c-.049-.178-.145-.291-.307-.291-.178,0-.275.113-.324.291l-1.472,5.328h3.578Z" transform="translate(-2628.06 -1220.324)" fill="#15171e"/></g><path d="M720.877,685.337H704.754l-2.291,5.389h-7.546l14.1-31.44h7.635l14.1,31.44h-7.59Zm-8.04-18.953L707.4,679.14h10.824Z" transform="translate(-2.902 -24.072)" fill="#15171e"/><path d="M1308.254,653.051a11.076,11.076,0,0,0-7.365-2.784c-5.975,0-9.882,3.413-9.882,10.286,0,4.491,2.47,10.107,9.882,10.107a10.1,10.1,0,0,0,6.692-2.2v-5.03h-7.5v-5.839h13.564v13.7c-2.7,3.863-7.006,5.839-12.8,5.839-12.126,0-16.707-8.4-16.707-16.573,0-8.848,5.21-16.709,16.753-16.709a15.314,15.314,0,0,1,11.722,4.851Z" transform="translate(-555.879 -9.572)" fill="#15171e"/><path d="M1900.268,683.224H1892.5l-8.04-10.326h-5.074v10.326h-7.006v-31.44h14.911c7.59,0,11.633,5.074,11.633,10.6-.044,4.087-1.258,7.725-7.277,9.882l8.627,10.42ZM1879.383,657.8v9.162h7.994A4.364,4.364,0,0,0,1892,662.87q.01-.154.008-.307a4.619,4.619,0,0,0-4.475-4.759c-.08,0-.161,0-.241,0Z" transform="translate(-1107.94 -17.032)" fill="#15171e"/><path d="M2391.007,633.636a16.347,16.347,0,1,0,.006,0Zm3.764,23.082-5.819-4.226a.8.8,0,0,1-.323-.639v-11.1a.793.793,0,0,1,.791-.791h3.165a.793.793,0,0,1,.791.791v9.079l4.183,3.046a.784.784,0,0,1,.181,1.094l-.009.013-1.85,2.558a.8.8,0,0,1-1.108.171" transform="translate(-1579.326)" fill="#ffb02a"/></g></svg>