<svg xmlns="http://www.w3.org/2000/svg" width="62.444" height="77.137" viewBox="0 0 62.444 77.137"><defs><style>.a{fill:#32343e;}</style></defs><path class="a" d="M182.89,35a20.215,20.215,0,0,0-20.2,20.2v9.183a11.018,11.018,0,0,0-11.02,11.02v25.712a11.019,11.019,0,0,0,11.02,11.02h40.4a11.019,11.019,0,0,0,11.02-11.02V75.406a11.018,11.018,0,0,0-11.02-11.02V55.2a20.215,20.215,0,0,0-20.2-20.2Zm0,67.955a14.693,14.693,0,0,1,0-29.386,1.837,1.837,0,1,1,0,3.673,11.02,11.02,0,1,0,11.02,11.02,1.836,1.836,0,0,1,3.673,0,14.709,14.709,0,0,1-14.693,14.693Zm9.433-21.5a1.838,1.838,0,0,1,0,2.6l-9.183,9.183h0a1.836,1.836,0,0,1-2.467.117l-4.461-3.673a1.837,1.837,0,1,1,2.337-2.832l3.174,2.612,8-8h0a1.837,1.837,0,0,1,2.6,0Zm-16.78-17.068V55.2a7.347,7.347,0,0,1,14.693,0v9.183Z" transform="translate(-151.668 -35)"/></svg>